%TF.GenerationSoftware,KiCad,Pcbnew,8.0.6*%
%TF.CreationDate,2025-07-09T15:48:56+05:30*%
%TF.ProjectId,pll1,706c6c31-2e6b-4696-9361-645f70636258,rev?*%
%TF.SameCoordinates,Original*%
%TF.FileFunction,Plated,1,2,PTH,Drill*%
%TF.FilePolarity,Positive*%
%FSLAX46Y46*%
G04 Gerber Fmt 4.6, Leading zero omitted, Abs format (unit mm)*
G04 Created by KiCad (PCBNEW 8.0.6) date 2025-07-09 15:48:56*
%MOMM*%
%LPD*%
G01*
G04 APERTURE LIST*
%TA.AperFunction,ComponentDrill*%
%ADD10C,0.750000*%
%TD*%
%TA.AperFunction,ComponentDrill*%
%ADD11C,0.787400*%
%TD*%
%TA.AperFunction,ComponentDrill*%
%ADD12C,0.800000*%
%TD*%
G04 APERTURE END LIST*
D10*
%TO.C,Q2*%
X144230000Y-73640000D03*
%TO.C,Q1*%
X145500000Y-65500000D03*
X145500000Y-66770000D03*
X145500000Y-68040000D03*
%TO.C,Q2*%
X145500000Y-73640000D03*
%TO.C,Q3*%
X145730000Y-81860000D03*
%TO.C,Q2*%
X146770000Y-73640000D03*
%TO.C,Q3*%
X147000000Y-81860000D03*
X148270000Y-81860000D03*
D11*
%TO.C,U4*%
X124880000Y-44840000D03*
X124880000Y-47380000D03*
X124880000Y-49920000D03*
X124880000Y-52460000D03*
X124880000Y-55000000D03*
X124880000Y-57540000D03*
X124880000Y-60080000D03*
X132500000Y-44840000D03*
X132500000Y-47380000D03*
X132500000Y-49920000D03*
X132500000Y-52460000D03*
X132500000Y-55000000D03*
X132500000Y-57540000D03*
X132500000Y-60080000D03*
%TO.C,U3*%
X137380000Y-44800000D03*
X137380000Y-47340000D03*
X137380000Y-49880000D03*
X137380000Y-52420000D03*
X137380000Y-54960000D03*
X137380000Y-57500000D03*
X137380000Y-60040000D03*
X145000000Y-44800000D03*
X145000000Y-47340000D03*
X145000000Y-49880000D03*
X145000000Y-52420000D03*
X145000000Y-54960000D03*
X145000000Y-57500000D03*
X145000000Y-60040000D03*
%TO.C,U1*%
X149500000Y-44840000D03*
X149500000Y-47380000D03*
X149500000Y-49920000D03*
X149500000Y-52460000D03*
X149500000Y-55000000D03*
X149500000Y-57540000D03*
X149500000Y-60080000D03*
%TO.C,U2*%
X151880000Y-67920000D03*
X151880000Y-70460000D03*
X151880000Y-73000000D03*
X151880000Y-75540000D03*
X151880000Y-78080000D03*
X151880000Y-80620000D03*
X151880000Y-83160000D03*
%TO.C,U1*%
X157120000Y-44840000D03*
X157120000Y-47380000D03*
X157120000Y-49920000D03*
X157120000Y-52460000D03*
X157120000Y-55000000D03*
X157120000Y-57540000D03*
X157120000Y-60080000D03*
%TO.C,U2*%
X159500000Y-67920000D03*
X159500000Y-70460000D03*
X159500000Y-73000000D03*
X159500000Y-75540000D03*
X159500000Y-78080000D03*
X159500000Y-80620000D03*
X159500000Y-83160000D03*
D12*
%TO.C,C3*%
X123500000Y-69500000D03*
%TO.C,J1*%
X124500000Y-81000000D03*
X124500000Y-83000000D03*
%TO.C,C3*%
X127000000Y-69500000D03*
%TO.C,R2*%
X131380000Y-67000000D03*
%TO.C,U5*%
X131880000Y-80200000D03*
X131880000Y-87820000D03*
X134420000Y-80200000D03*
X134420000Y-87820000D03*
%TO.C,C2*%
X136000000Y-71500000D03*
X136000000Y-76500000D03*
%TO.C,U5*%
X136960000Y-80200000D03*
X136960000Y-87820000D03*
%TO.C,R2*%
X139000000Y-67000000D03*
%TO.C,U5*%
X139500000Y-80200000D03*
X139500000Y-87820000D03*
%TO.C,J2*%
X140000000Y-40000000D03*
X142000000Y-40000000D03*
X144000000Y-40000000D03*
%TO.C,C1*%
X161197349Y-61000000D03*
%TO.C,R1*%
X161500000Y-43920000D03*
X161500000Y-54080000D03*
%TO.C,C1*%
X164997349Y-61000000D03*
M02*
