%TF.GenerationSoftware,KiCad,Pcbnew,8.0.6*%
%TF.CreationDate,2024-12-13T16:31:17+05:30*%
%TF.ProjectId,pll1,706c6c31-2e6b-4696-9361-645f70636258,rev?*%
%TF.SameCoordinates,Original*%
%TF.FileFunction,Legend,Top*%
%TF.FilePolarity,Positive*%
%FSLAX46Y46*%
G04 Gerber Fmt 4.6, Leading zero omitted, Abs format (unit mm)*
G04 Created by KiCad (PCBNEW 8.0.6) date 2024-12-13 16:31:17*
%MOMM*%
%LPD*%
G01*
G04 APERTURE LIST*
%ADD10C,0.100000*%
%ADD11C,0.150000*%
%ADD12C,0.120000*%
%ADD13C,0.152400*%
G04 APERTURE END LIST*
D10*
X121994360Y-39396228D02*
X121994360Y-39872419D01*
X121661027Y-38872419D02*
X121994360Y-39396228D01*
X121994360Y-39396228D02*
X122327693Y-38872419D01*
X122613408Y-39586704D02*
X123089598Y-39586704D01*
X122518170Y-39872419D02*
X122851503Y-38872419D01*
X122851503Y-38872419D02*
X123184836Y-39872419D01*
X123518170Y-39872419D02*
X123518170Y-38872419D01*
X123518170Y-38872419D02*
X123756265Y-38872419D01*
X123756265Y-38872419D02*
X123899122Y-38920038D01*
X123899122Y-38920038D02*
X123994360Y-39015276D01*
X123994360Y-39015276D02*
X124041979Y-39110514D01*
X124041979Y-39110514D02*
X124089598Y-39300990D01*
X124089598Y-39300990D02*
X124089598Y-39443847D01*
X124089598Y-39443847D02*
X124041979Y-39634323D01*
X124041979Y-39634323D02*
X123994360Y-39729561D01*
X123994360Y-39729561D02*
X123899122Y-39824800D01*
X123899122Y-39824800D02*
X123756265Y-39872419D01*
X123756265Y-39872419D02*
X123518170Y-39872419D01*
X124470551Y-39586704D02*
X124946741Y-39586704D01*
X124375313Y-39872419D02*
X124708646Y-38872419D01*
X124708646Y-38872419D02*
X125041979Y-39872419D01*
X126089599Y-39586704D02*
X126565789Y-39586704D01*
X125994361Y-39872419D02*
X126327694Y-38872419D01*
X126327694Y-38872419D02*
X126661027Y-39872419D01*
X126994361Y-39872419D02*
X126994361Y-38872419D01*
X127565789Y-39872419D02*
X127137218Y-39300990D01*
X127565789Y-38872419D02*
X126994361Y-39443847D01*
X127946742Y-39824800D02*
X128089599Y-39872419D01*
X128089599Y-39872419D02*
X128327694Y-39872419D01*
X128327694Y-39872419D02*
X128422932Y-39824800D01*
X128422932Y-39824800D02*
X128470551Y-39777180D01*
X128470551Y-39777180D02*
X128518170Y-39681942D01*
X128518170Y-39681942D02*
X128518170Y-39586704D01*
X128518170Y-39586704D02*
X128470551Y-39491466D01*
X128470551Y-39491466D02*
X128422932Y-39443847D01*
X128422932Y-39443847D02*
X128327694Y-39396228D01*
X128327694Y-39396228D02*
X128137218Y-39348609D01*
X128137218Y-39348609D02*
X128041980Y-39300990D01*
X128041980Y-39300990D02*
X127994361Y-39253371D01*
X127994361Y-39253371D02*
X127946742Y-39158133D01*
X127946742Y-39158133D02*
X127946742Y-39062895D01*
X127946742Y-39062895D02*
X127994361Y-38967657D01*
X127994361Y-38967657D02*
X128041980Y-38920038D01*
X128041980Y-38920038D02*
X128137218Y-38872419D01*
X128137218Y-38872419D02*
X128375313Y-38872419D01*
X128375313Y-38872419D02*
X128518170Y-38920038D01*
X128946742Y-39872419D02*
X128946742Y-38872419D01*
X128946742Y-39348609D02*
X129518170Y-39348609D01*
X129518170Y-39872419D02*
X129518170Y-38872419D01*
X129946742Y-39586704D02*
X130422932Y-39586704D01*
X129851504Y-39872419D02*
X130184837Y-38872419D01*
X130184837Y-38872419D02*
X130518170Y-39872419D01*
X131041980Y-39396228D02*
X131041980Y-39872419D01*
X130708647Y-38872419D02*
X131041980Y-39396228D01*
X131041980Y-39396228D02*
X131375313Y-38872419D01*
X145303884Y-88872419D02*
X145303884Y-87872419D01*
X145875312Y-88872419D02*
X145446741Y-88300990D01*
X145875312Y-87872419D02*
X145303884Y-88443847D01*
X146494360Y-87872419D02*
X146684836Y-87872419D01*
X146684836Y-87872419D02*
X146780074Y-87920038D01*
X146780074Y-87920038D02*
X146875312Y-88015276D01*
X146875312Y-88015276D02*
X146922931Y-88205752D01*
X146922931Y-88205752D02*
X146922931Y-88539085D01*
X146922931Y-88539085D02*
X146875312Y-88729561D01*
X146875312Y-88729561D02*
X146780074Y-88824800D01*
X146780074Y-88824800D02*
X146684836Y-88872419D01*
X146684836Y-88872419D02*
X146494360Y-88872419D01*
X146494360Y-88872419D02*
X146399122Y-88824800D01*
X146399122Y-88824800D02*
X146303884Y-88729561D01*
X146303884Y-88729561D02*
X146256265Y-88539085D01*
X146256265Y-88539085D02*
X146256265Y-88205752D01*
X146256265Y-88205752D02*
X146303884Y-88015276D01*
X146303884Y-88015276D02*
X146399122Y-87920038D01*
X146399122Y-87920038D02*
X146494360Y-87872419D01*
X147208646Y-87872419D02*
X147780074Y-87872419D01*
X147494360Y-88872419D02*
X147494360Y-87872419D01*
X148589598Y-88872419D02*
X148113408Y-88872419D01*
X148113408Y-88872419D02*
X148113408Y-87872419D01*
X148875313Y-88586704D02*
X149351503Y-88586704D01*
X148780075Y-88872419D02*
X149113408Y-87872419D01*
X149113408Y-87872419D02*
X149446741Y-88872419D01*
X150541980Y-88872419D02*
X150541980Y-87872419D01*
X150541980Y-88348609D02*
X151113408Y-88348609D01*
X151113408Y-88872419D02*
X151113408Y-87872419D01*
X151541980Y-88586704D02*
X152018170Y-88586704D01*
X151446742Y-88872419D02*
X151780075Y-87872419D01*
X151780075Y-87872419D02*
X152113408Y-88872419D01*
X153018170Y-88872419D02*
X152684837Y-88396228D01*
X152446742Y-88872419D02*
X152446742Y-87872419D01*
X152446742Y-87872419D02*
X152827694Y-87872419D01*
X152827694Y-87872419D02*
X152922932Y-87920038D01*
X152922932Y-87920038D02*
X152970551Y-87967657D01*
X152970551Y-87967657D02*
X153018170Y-88062895D01*
X153018170Y-88062895D02*
X153018170Y-88205752D01*
X153018170Y-88205752D02*
X152970551Y-88300990D01*
X152970551Y-88300990D02*
X152922932Y-88348609D01*
X152922932Y-88348609D02*
X152827694Y-88396228D01*
X152827694Y-88396228D02*
X152446742Y-88396228D01*
X153399123Y-88824800D02*
X153541980Y-88872419D01*
X153541980Y-88872419D02*
X153780075Y-88872419D01*
X153780075Y-88872419D02*
X153875313Y-88824800D01*
X153875313Y-88824800D02*
X153922932Y-88777180D01*
X153922932Y-88777180D02*
X153970551Y-88681942D01*
X153970551Y-88681942D02*
X153970551Y-88586704D01*
X153970551Y-88586704D02*
X153922932Y-88491466D01*
X153922932Y-88491466D02*
X153875313Y-88443847D01*
X153875313Y-88443847D02*
X153780075Y-88396228D01*
X153780075Y-88396228D02*
X153589599Y-88348609D01*
X153589599Y-88348609D02*
X153494361Y-88300990D01*
X153494361Y-88300990D02*
X153446742Y-88253371D01*
X153446742Y-88253371D02*
X153399123Y-88158133D01*
X153399123Y-88158133D02*
X153399123Y-88062895D01*
X153399123Y-88062895D02*
X153446742Y-87967657D01*
X153446742Y-87967657D02*
X153494361Y-87920038D01*
X153494361Y-87920038D02*
X153589599Y-87872419D01*
X153589599Y-87872419D02*
X153827694Y-87872419D01*
X153827694Y-87872419D02*
X153970551Y-87920038D01*
X154399123Y-88872419D02*
X154399123Y-87872419D01*
X154399123Y-88348609D02*
X154970551Y-88348609D01*
X154970551Y-88872419D02*
X154970551Y-87872419D01*
X155399123Y-88586704D02*
X155875313Y-88586704D01*
X155303885Y-88872419D02*
X155637218Y-87872419D01*
X155637218Y-87872419D02*
X155970551Y-88872419D01*
X156161028Y-87872419D02*
X156494361Y-88872419D01*
X156494361Y-88872419D02*
X156827694Y-87872419D01*
X157113409Y-88586704D02*
X157589599Y-88586704D01*
X157018171Y-88872419D02*
X157351504Y-87872419D01*
X157351504Y-87872419D02*
X157684837Y-88872419D01*
X158589599Y-88872419D02*
X158256266Y-88396228D01*
X158018171Y-88872419D02*
X158018171Y-87872419D01*
X158018171Y-87872419D02*
X158399123Y-87872419D01*
X158399123Y-87872419D02*
X158494361Y-87920038D01*
X158494361Y-87920038D02*
X158541980Y-87967657D01*
X158541980Y-87967657D02*
X158589599Y-88062895D01*
X158589599Y-88062895D02*
X158589599Y-88205752D01*
X158589599Y-88205752D02*
X158541980Y-88300990D01*
X158541980Y-88300990D02*
X158494361Y-88348609D01*
X158494361Y-88348609D02*
X158399123Y-88396228D01*
X158399123Y-88396228D02*
X158018171Y-88396228D01*
X159018171Y-88872419D02*
X159018171Y-87872419D01*
X159018171Y-87872419D02*
X159256266Y-87872419D01*
X159256266Y-87872419D02*
X159399123Y-87920038D01*
X159399123Y-87920038D02*
X159494361Y-88015276D01*
X159494361Y-88015276D02*
X159541980Y-88110514D01*
X159541980Y-88110514D02*
X159589599Y-88300990D01*
X159589599Y-88300990D02*
X159589599Y-88443847D01*
X159589599Y-88443847D02*
X159541980Y-88634323D01*
X159541980Y-88634323D02*
X159494361Y-88729561D01*
X159494361Y-88729561D02*
X159399123Y-88824800D01*
X159399123Y-88824800D02*
X159256266Y-88872419D01*
X159256266Y-88872419D02*
X159018171Y-88872419D01*
X160018171Y-88872419D02*
X160018171Y-87872419D01*
X160018171Y-88348609D02*
X160589599Y-88348609D01*
X160589599Y-88872419D02*
X160589599Y-87872419D01*
X161018171Y-88586704D02*
X161494361Y-88586704D01*
X160922933Y-88872419D02*
X161256266Y-87872419D01*
X161256266Y-87872419D02*
X161589599Y-88872419D01*
X161922933Y-88872419D02*
X161922933Y-87872419D01*
X161922933Y-87872419D02*
X162494361Y-88872419D01*
X162494361Y-88872419D02*
X162494361Y-87872419D01*
X164303885Y-88872419D02*
X163970552Y-88396228D01*
X163732457Y-88872419D02*
X163732457Y-87872419D01*
X163732457Y-87872419D02*
X164113409Y-87872419D01*
X164113409Y-87872419D02*
X164208647Y-87920038D01*
X164208647Y-87920038D02*
X164256266Y-87967657D01*
X164256266Y-87967657D02*
X164303885Y-88062895D01*
X164303885Y-88062895D02*
X164303885Y-88205752D01*
X164303885Y-88205752D02*
X164256266Y-88300990D01*
X164256266Y-88300990D02*
X164208647Y-88348609D01*
X164208647Y-88348609D02*
X164113409Y-88396228D01*
X164113409Y-88396228D02*
X163732457Y-88396228D01*
X164732457Y-88348609D02*
X165065790Y-88348609D01*
X165208647Y-88872419D02*
X164732457Y-88872419D01*
X164732457Y-88872419D02*
X164732457Y-87872419D01*
X164732457Y-87872419D02*
X165208647Y-87872419D01*
X165637219Y-88872419D02*
X165637219Y-87872419D01*
X165637219Y-87872419D02*
X165875314Y-87872419D01*
X165875314Y-87872419D02*
X166018171Y-87920038D01*
X166018171Y-87920038D02*
X166113409Y-88015276D01*
X166113409Y-88015276D02*
X166161028Y-88110514D01*
X166161028Y-88110514D02*
X166208647Y-88300990D01*
X166208647Y-88300990D02*
X166208647Y-88443847D01*
X166208647Y-88443847D02*
X166161028Y-88634323D01*
X166161028Y-88634323D02*
X166113409Y-88729561D01*
X166113409Y-88729561D02*
X166018171Y-88824800D01*
X166018171Y-88824800D02*
X165875314Y-88872419D01*
X165875314Y-88872419D02*
X165637219Y-88872419D01*
X166637219Y-88872419D02*
X166637219Y-87872419D01*
X166637219Y-87872419D02*
X166875314Y-87872419D01*
X166875314Y-87872419D02*
X167018171Y-87920038D01*
X167018171Y-87920038D02*
X167113409Y-88015276D01*
X167113409Y-88015276D02*
X167161028Y-88110514D01*
X167161028Y-88110514D02*
X167208647Y-88300990D01*
X167208647Y-88300990D02*
X167208647Y-88443847D01*
X167208647Y-88443847D02*
X167161028Y-88634323D01*
X167161028Y-88634323D02*
X167113409Y-88729561D01*
X167113409Y-88729561D02*
X167018171Y-88824800D01*
X167018171Y-88824800D02*
X166875314Y-88872419D01*
X166875314Y-88872419D02*
X166637219Y-88872419D01*
X167827695Y-88396228D02*
X167827695Y-88872419D01*
X167494362Y-87872419D02*
X167827695Y-88396228D01*
X167827695Y-88396228D02*
X168161028Y-87872419D01*
X151661027Y-38872419D02*
X152232455Y-38872419D01*
X151946741Y-39872419D02*
X151946741Y-38872419D01*
X152756265Y-38872419D02*
X152946741Y-38872419D01*
X152946741Y-38872419D02*
X153041979Y-38920038D01*
X153041979Y-38920038D02*
X153137217Y-39015276D01*
X153137217Y-39015276D02*
X153184836Y-39205752D01*
X153184836Y-39205752D02*
X153184836Y-39539085D01*
X153184836Y-39539085D02*
X153137217Y-39729561D01*
X153137217Y-39729561D02*
X153041979Y-39824800D01*
X153041979Y-39824800D02*
X152946741Y-39872419D01*
X152946741Y-39872419D02*
X152756265Y-39872419D01*
X152756265Y-39872419D02*
X152661027Y-39824800D01*
X152661027Y-39824800D02*
X152565789Y-39729561D01*
X152565789Y-39729561D02*
X152518170Y-39539085D01*
X152518170Y-39539085D02*
X152518170Y-39205752D01*
X152518170Y-39205752D02*
X152565789Y-39015276D01*
X152565789Y-39015276D02*
X152661027Y-38920038D01*
X152661027Y-38920038D02*
X152756265Y-38872419D01*
X153613408Y-39872419D02*
X153613408Y-38872419D01*
X153613408Y-38872419D02*
X154184836Y-39872419D01*
X154184836Y-39872419D02*
X154184836Y-38872419D01*
X154661027Y-39872419D02*
X154661027Y-38872419D01*
X154661027Y-38872419D02*
X154899122Y-38872419D01*
X154899122Y-38872419D02*
X155041979Y-38920038D01*
X155041979Y-38920038D02*
X155137217Y-39015276D01*
X155137217Y-39015276D02*
X155184836Y-39110514D01*
X155184836Y-39110514D02*
X155232455Y-39300990D01*
X155232455Y-39300990D02*
X155232455Y-39443847D01*
X155232455Y-39443847D02*
X155184836Y-39634323D01*
X155184836Y-39634323D02*
X155137217Y-39729561D01*
X155137217Y-39729561D02*
X155041979Y-39824800D01*
X155041979Y-39824800D02*
X154899122Y-39872419D01*
X154899122Y-39872419D02*
X154661027Y-39872419D01*
X155661027Y-39348609D02*
X155994360Y-39348609D01*
X156137217Y-39872419D02*
X155661027Y-39872419D01*
X155661027Y-39872419D02*
X155661027Y-38872419D01*
X155661027Y-38872419D02*
X156137217Y-38872419D01*
X156565789Y-39872419D02*
X156565789Y-38872419D01*
X156565789Y-38872419D02*
X156946741Y-38872419D01*
X156946741Y-38872419D02*
X157041979Y-38920038D01*
X157041979Y-38920038D02*
X157089598Y-38967657D01*
X157089598Y-38967657D02*
X157137217Y-39062895D01*
X157137217Y-39062895D02*
X157137217Y-39205752D01*
X157137217Y-39205752D02*
X157089598Y-39300990D01*
X157089598Y-39300990D02*
X157041979Y-39348609D01*
X157041979Y-39348609D02*
X156946741Y-39396228D01*
X156946741Y-39396228D02*
X156565789Y-39396228D01*
X157565789Y-38872419D02*
X157565789Y-39681942D01*
X157565789Y-39681942D02*
X157613408Y-39777180D01*
X157613408Y-39777180D02*
X157661027Y-39824800D01*
X157661027Y-39824800D02*
X157756265Y-39872419D01*
X157756265Y-39872419D02*
X157946741Y-39872419D01*
X157946741Y-39872419D02*
X158041979Y-39824800D01*
X158041979Y-39824800D02*
X158089598Y-39777180D01*
X158089598Y-39777180D02*
X158137217Y-39681942D01*
X158137217Y-39681942D02*
X158137217Y-38872419D01*
X159327694Y-39824800D02*
X159470551Y-39872419D01*
X159470551Y-39872419D02*
X159708646Y-39872419D01*
X159708646Y-39872419D02*
X159803884Y-39824800D01*
X159803884Y-39824800D02*
X159851503Y-39777180D01*
X159851503Y-39777180D02*
X159899122Y-39681942D01*
X159899122Y-39681942D02*
X159899122Y-39586704D01*
X159899122Y-39586704D02*
X159851503Y-39491466D01*
X159851503Y-39491466D02*
X159803884Y-39443847D01*
X159803884Y-39443847D02*
X159708646Y-39396228D01*
X159708646Y-39396228D02*
X159518170Y-39348609D01*
X159518170Y-39348609D02*
X159422932Y-39300990D01*
X159422932Y-39300990D02*
X159375313Y-39253371D01*
X159375313Y-39253371D02*
X159327694Y-39158133D01*
X159327694Y-39158133D02*
X159327694Y-39062895D01*
X159327694Y-39062895D02*
X159375313Y-38967657D01*
X159375313Y-38967657D02*
X159422932Y-38920038D01*
X159422932Y-38920038D02*
X159518170Y-38872419D01*
X159518170Y-38872419D02*
X159756265Y-38872419D01*
X159756265Y-38872419D02*
X159899122Y-38920038D01*
X160518170Y-38872419D02*
X160708646Y-38872419D01*
X160708646Y-38872419D02*
X160803884Y-38920038D01*
X160803884Y-38920038D02*
X160899122Y-39015276D01*
X160899122Y-39015276D02*
X160946741Y-39205752D01*
X160946741Y-39205752D02*
X160946741Y-39539085D01*
X160946741Y-39539085D02*
X160899122Y-39729561D01*
X160899122Y-39729561D02*
X160803884Y-39824800D01*
X160803884Y-39824800D02*
X160708646Y-39872419D01*
X160708646Y-39872419D02*
X160518170Y-39872419D01*
X160518170Y-39872419D02*
X160422932Y-39824800D01*
X160422932Y-39824800D02*
X160327694Y-39729561D01*
X160327694Y-39729561D02*
X160280075Y-39539085D01*
X160280075Y-39539085D02*
X160280075Y-39205752D01*
X160280075Y-39205752D02*
X160327694Y-39015276D01*
X160327694Y-39015276D02*
X160422932Y-38920038D01*
X160422932Y-38920038D02*
X160518170Y-38872419D01*
X161375313Y-39872419D02*
X161375313Y-38872419D01*
X161375313Y-39348609D02*
X161946741Y-39348609D01*
X161946741Y-39872419D02*
X161946741Y-38872419D01*
X162422932Y-39872419D02*
X162422932Y-38872419D01*
X162756265Y-38872419D02*
X163327693Y-38872419D01*
X163041979Y-39872419D02*
X163041979Y-38872419D01*
X163661027Y-39872419D02*
X163661027Y-38872419D01*
X163661027Y-39348609D02*
X164232455Y-39348609D01*
X164232455Y-39872419D02*
X164232455Y-38872419D01*
D11*
X141284819Y-84771904D02*
X142094342Y-84771904D01*
X142094342Y-84771904D02*
X142189580Y-84724285D01*
X142189580Y-84724285D02*
X142237200Y-84676666D01*
X142237200Y-84676666D02*
X142284819Y-84581428D01*
X142284819Y-84581428D02*
X142284819Y-84390952D01*
X142284819Y-84390952D02*
X142237200Y-84295714D01*
X142237200Y-84295714D02*
X142189580Y-84248095D01*
X142189580Y-84248095D02*
X142094342Y-84200476D01*
X142094342Y-84200476D02*
X141284819Y-84200476D01*
X141284819Y-83248095D02*
X141284819Y-83724285D01*
X141284819Y-83724285D02*
X141761009Y-83771904D01*
X141761009Y-83771904D02*
X141713390Y-83724285D01*
X141713390Y-83724285D02*
X141665771Y-83629047D01*
X141665771Y-83629047D02*
X141665771Y-83390952D01*
X141665771Y-83390952D02*
X141713390Y-83295714D01*
X141713390Y-83295714D02*
X141761009Y-83248095D01*
X141761009Y-83248095D02*
X141856247Y-83200476D01*
X141856247Y-83200476D02*
X142094342Y-83200476D01*
X142094342Y-83200476D02*
X142189580Y-83248095D01*
X142189580Y-83248095D02*
X142237200Y-83295714D01*
X142237200Y-83295714D02*
X142284819Y-83390952D01*
X142284819Y-83390952D02*
X142284819Y-83629047D01*
X142284819Y-83629047D02*
X142237200Y-83724285D01*
X142237200Y-83724285D02*
X142189580Y-83771904D01*
X149610057Y-66865238D02*
X149562438Y-66960476D01*
X149562438Y-66960476D02*
X149467200Y-67055714D01*
X149467200Y-67055714D02*
X149324342Y-67198571D01*
X149324342Y-67198571D02*
X149276723Y-67293809D01*
X149276723Y-67293809D02*
X149276723Y-67389047D01*
X149514819Y-67341428D02*
X149467200Y-67436666D01*
X149467200Y-67436666D02*
X149371961Y-67531904D01*
X149371961Y-67531904D02*
X149181485Y-67579523D01*
X149181485Y-67579523D02*
X148848152Y-67579523D01*
X148848152Y-67579523D02*
X148657676Y-67531904D01*
X148657676Y-67531904D02*
X148562438Y-67436666D01*
X148562438Y-67436666D02*
X148514819Y-67341428D01*
X148514819Y-67341428D02*
X148514819Y-67150952D01*
X148514819Y-67150952D02*
X148562438Y-67055714D01*
X148562438Y-67055714D02*
X148657676Y-66960476D01*
X148657676Y-66960476D02*
X148848152Y-66912857D01*
X148848152Y-66912857D02*
X149181485Y-66912857D01*
X149181485Y-66912857D02*
X149371961Y-66960476D01*
X149371961Y-66960476D02*
X149467200Y-67055714D01*
X149467200Y-67055714D02*
X149514819Y-67150952D01*
X149514819Y-67150952D02*
X149514819Y-67341428D01*
X149514819Y-65960476D02*
X149514819Y-66531904D01*
X149514819Y-66246190D02*
X148514819Y-66246190D01*
X148514819Y-66246190D02*
X148657676Y-66341428D01*
X148657676Y-66341428D02*
X148752914Y-66436666D01*
X148752914Y-66436666D02*
X148800533Y-66531904D01*
X148904761Y-77550057D02*
X148809523Y-77502438D01*
X148809523Y-77502438D02*
X148714285Y-77407200D01*
X148714285Y-77407200D02*
X148571428Y-77264342D01*
X148571428Y-77264342D02*
X148476190Y-77216723D01*
X148476190Y-77216723D02*
X148380952Y-77216723D01*
X148428571Y-77454819D02*
X148333333Y-77407200D01*
X148333333Y-77407200D02*
X148238095Y-77311961D01*
X148238095Y-77311961D02*
X148190476Y-77121485D01*
X148190476Y-77121485D02*
X148190476Y-76788152D01*
X148190476Y-76788152D02*
X148238095Y-76597676D01*
X148238095Y-76597676D02*
X148333333Y-76502438D01*
X148333333Y-76502438D02*
X148428571Y-76454819D01*
X148428571Y-76454819D02*
X148619047Y-76454819D01*
X148619047Y-76454819D02*
X148714285Y-76502438D01*
X148714285Y-76502438D02*
X148809523Y-76597676D01*
X148809523Y-76597676D02*
X148857142Y-76788152D01*
X148857142Y-76788152D02*
X148857142Y-77121485D01*
X148857142Y-77121485D02*
X148809523Y-77311961D01*
X148809523Y-77311961D02*
X148714285Y-77407200D01*
X148714285Y-77407200D02*
X148619047Y-77454819D01*
X148619047Y-77454819D02*
X148428571Y-77454819D01*
X149238095Y-76550057D02*
X149285714Y-76502438D01*
X149285714Y-76502438D02*
X149380952Y-76454819D01*
X149380952Y-76454819D02*
X149619047Y-76454819D01*
X149619047Y-76454819D02*
X149714285Y-76502438D01*
X149714285Y-76502438D02*
X149761904Y-76550057D01*
X149761904Y-76550057D02*
X149809523Y-76645295D01*
X149809523Y-76645295D02*
X149809523Y-76740533D01*
X149809523Y-76740533D02*
X149761904Y-76883390D01*
X149761904Y-76883390D02*
X149190476Y-77454819D01*
X149190476Y-77454819D02*
X149809523Y-77454819D01*
X141609580Y-74166666D02*
X141657200Y-74214285D01*
X141657200Y-74214285D02*
X141704819Y-74357142D01*
X141704819Y-74357142D02*
X141704819Y-74452380D01*
X141704819Y-74452380D02*
X141657200Y-74595237D01*
X141657200Y-74595237D02*
X141561961Y-74690475D01*
X141561961Y-74690475D02*
X141466723Y-74738094D01*
X141466723Y-74738094D02*
X141276247Y-74785713D01*
X141276247Y-74785713D02*
X141133390Y-74785713D01*
X141133390Y-74785713D02*
X140942914Y-74738094D01*
X140942914Y-74738094D02*
X140847676Y-74690475D01*
X140847676Y-74690475D02*
X140752438Y-74595237D01*
X140752438Y-74595237D02*
X140704819Y-74452380D01*
X140704819Y-74452380D02*
X140704819Y-74357142D01*
X140704819Y-74357142D02*
X140752438Y-74214285D01*
X140752438Y-74214285D02*
X140800057Y-74166666D01*
X140800057Y-73785713D02*
X140752438Y-73738094D01*
X140752438Y-73738094D02*
X140704819Y-73642856D01*
X140704819Y-73642856D02*
X140704819Y-73404761D01*
X140704819Y-73404761D02*
X140752438Y-73309523D01*
X140752438Y-73309523D02*
X140800057Y-73261904D01*
X140800057Y-73261904D02*
X140895295Y-73214285D01*
X140895295Y-73214285D02*
X140990533Y-73214285D01*
X140990533Y-73214285D02*
X141133390Y-73261904D01*
X141133390Y-73261904D02*
X141704819Y-73833332D01*
X141704819Y-73833332D02*
X141704819Y-73214285D01*
X129451904Y-53005180D02*
X129451904Y-52195657D01*
X129451904Y-52195657D02*
X129404285Y-52100419D01*
X129404285Y-52100419D02*
X129356666Y-52052800D01*
X129356666Y-52052800D02*
X129261428Y-52005180D01*
X129261428Y-52005180D02*
X129070952Y-52005180D01*
X129070952Y-52005180D02*
X128975714Y-52052800D01*
X128975714Y-52052800D02*
X128928095Y-52100419D01*
X128928095Y-52100419D02*
X128880476Y-52195657D01*
X128880476Y-52195657D02*
X128880476Y-53005180D01*
X127975714Y-52671847D02*
X127975714Y-52005180D01*
X128213809Y-53052800D02*
X128451904Y-52338514D01*
X128451904Y-52338514D02*
X127832857Y-52338514D01*
X132500000Y-60944519D02*
X132500000Y-61182614D01*
X132261905Y-61087376D02*
X132500000Y-61182614D01*
X132500000Y-61182614D02*
X132738095Y-61087376D01*
X132357143Y-61373090D02*
X132500000Y-61182614D01*
X132500000Y-61182614D02*
X132642857Y-61373090D01*
X132499999Y-62034880D02*
X132499999Y-61796785D01*
X132738094Y-61892023D02*
X132499999Y-61796785D01*
X132499999Y-61796785D02*
X132261904Y-61892023D01*
X132642856Y-61606309D02*
X132499999Y-61796785D01*
X132499999Y-61796785D02*
X132357142Y-61606309D01*
X140428095Y-51874819D02*
X140428095Y-52684342D01*
X140428095Y-52684342D02*
X140475714Y-52779580D01*
X140475714Y-52779580D02*
X140523333Y-52827200D01*
X140523333Y-52827200D02*
X140618571Y-52874819D01*
X140618571Y-52874819D02*
X140809047Y-52874819D01*
X140809047Y-52874819D02*
X140904285Y-52827200D01*
X140904285Y-52827200D02*
X140951904Y-52779580D01*
X140951904Y-52779580D02*
X140999523Y-52684342D01*
X140999523Y-52684342D02*
X140999523Y-51874819D01*
X141380476Y-51874819D02*
X141999523Y-51874819D01*
X141999523Y-51874819D02*
X141666190Y-52255771D01*
X141666190Y-52255771D02*
X141809047Y-52255771D01*
X141809047Y-52255771D02*
X141904285Y-52303390D01*
X141904285Y-52303390D02*
X141951904Y-52351009D01*
X141951904Y-52351009D02*
X141999523Y-52446247D01*
X141999523Y-52446247D02*
X141999523Y-52684342D01*
X141999523Y-52684342D02*
X141951904Y-52779580D01*
X141951904Y-52779580D02*
X141904285Y-52827200D01*
X141904285Y-52827200D02*
X141809047Y-52874819D01*
X141809047Y-52874819D02*
X141523333Y-52874819D01*
X141523333Y-52874819D02*
X141428095Y-52827200D01*
X141428095Y-52827200D02*
X141380476Y-52779580D01*
X137380000Y-42845119D02*
X137380000Y-43083214D01*
X137141905Y-42987976D02*
X137380000Y-43083214D01*
X137380000Y-43083214D02*
X137618095Y-42987976D01*
X137237143Y-43273690D02*
X137380000Y-43083214D01*
X137380000Y-43083214D02*
X137522857Y-43273690D01*
X137380000Y-42845119D02*
X137380000Y-43083214D01*
X137141905Y-42987976D02*
X137380000Y-43083214D01*
X137380000Y-43083214D02*
X137618095Y-42987976D01*
X137237143Y-43273690D02*
X137380000Y-43083214D01*
X137380000Y-43083214D02*
X137522857Y-43273690D01*
X164324819Y-49166666D02*
X163848628Y-49499999D01*
X164324819Y-49738094D02*
X163324819Y-49738094D01*
X163324819Y-49738094D02*
X163324819Y-49357142D01*
X163324819Y-49357142D02*
X163372438Y-49261904D01*
X163372438Y-49261904D02*
X163420057Y-49214285D01*
X163420057Y-49214285D02*
X163515295Y-49166666D01*
X163515295Y-49166666D02*
X163658152Y-49166666D01*
X163658152Y-49166666D02*
X163753390Y-49214285D01*
X163753390Y-49214285D02*
X163801009Y-49261904D01*
X163801009Y-49261904D02*
X163848628Y-49357142D01*
X163848628Y-49357142D02*
X163848628Y-49738094D01*
X164324819Y-48214285D02*
X164324819Y-48785713D01*
X164324819Y-48499999D02*
X163324819Y-48499999D01*
X163324819Y-48499999D02*
X163467676Y-48595237D01*
X163467676Y-48595237D02*
X163562914Y-48690475D01*
X163562914Y-48690475D02*
X163610533Y-48785713D01*
X154928095Y-74994819D02*
X154928095Y-75804342D01*
X154928095Y-75804342D02*
X154975714Y-75899580D01*
X154975714Y-75899580D02*
X155023333Y-75947200D01*
X155023333Y-75947200D02*
X155118571Y-75994819D01*
X155118571Y-75994819D02*
X155309047Y-75994819D01*
X155309047Y-75994819D02*
X155404285Y-75947200D01*
X155404285Y-75947200D02*
X155451904Y-75899580D01*
X155451904Y-75899580D02*
X155499523Y-75804342D01*
X155499523Y-75804342D02*
X155499523Y-74994819D01*
X155928095Y-75090057D02*
X155975714Y-75042438D01*
X155975714Y-75042438D02*
X156070952Y-74994819D01*
X156070952Y-74994819D02*
X156309047Y-74994819D01*
X156309047Y-74994819D02*
X156404285Y-75042438D01*
X156404285Y-75042438D02*
X156451904Y-75090057D01*
X156451904Y-75090057D02*
X156499523Y-75185295D01*
X156499523Y-75185295D02*
X156499523Y-75280533D01*
X156499523Y-75280533D02*
X156451904Y-75423390D01*
X156451904Y-75423390D02*
X155880476Y-75994819D01*
X155880476Y-75994819D02*
X156499523Y-75994819D01*
X151880000Y-65965119D02*
X151880000Y-66203214D01*
X151641905Y-66107976D02*
X151880000Y-66203214D01*
X151880000Y-66203214D02*
X152118095Y-66107976D01*
X151737143Y-66393690D02*
X151880000Y-66203214D01*
X151880000Y-66203214D02*
X152022857Y-66393690D01*
X151880000Y-65965119D02*
X151880000Y-66203214D01*
X151641905Y-66107976D02*
X151880000Y-66203214D01*
X151880000Y-66203214D02*
X152118095Y-66107976D01*
X151737143Y-66393690D02*
X151880000Y-66203214D01*
X151880000Y-66203214D02*
X152022857Y-66393690D01*
X145514819Y-40333333D02*
X146229104Y-40333333D01*
X146229104Y-40333333D02*
X146371961Y-40380952D01*
X146371961Y-40380952D02*
X146467200Y-40476190D01*
X146467200Y-40476190D02*
X146514819Y-40619047D01*
X146514819Y-40619047D02*
X146514819Y-40714285D01*
X145610057Y-39904761D02*
X145562438Y-39857142D01*
X145562438Y-39857142D02*
X145514819Y-39761904D01*
X145514819Y-39761904D02*
X145514819Y-39523809D01*
X145514819Y-39523809D02*
X145562438Y-39428571D01*
X145562438Y-39428571D02*
X145610057Y-39380952D01*
X145610057Y-39380952D02*
X145705295Y-39333333D01*
X145705295Y-39333333D02*
X145800533Y-39333333D01*
X145800533Y-39333333D02*
X145943390Y-39380952D01*
X145943390Y-39380952D02*
X146514819Y-39952380D01*
X146514819Y-39952380D02*
X146514819Y-39333333D01*
X152548095Y-51914819D02*
X152548095Y-52724342D01*
X152548095Y-52724342D02*
X152595714Y-52819580D01*
X152595714Y-52819580D02*
X152643333Y-52867200D01*
X152643333Y-52867200D02*
X152738571Y-52914819D01*
X152738571Y-52914819D02*
X152929047Y-52914819D01*
X152929047Y-52914819D02*
X153024285Y-52867200D01*
X153024285Y-52867200D02*
X153071904Y-52819580D01*
X153071904Y-52819580D02*
X153119523Y-52724342D01*
X153119523Y-52724342D02*
X153119523Y-51914819D01*
X154119523Y-52914819D02*
X153548095Y-52914819D01*
X153833809Y-52914819D02*
X153833809Y-51914819D01*
X153833809Y-51914819D02*
X153738571Y-52057676D01*
X153738571Y-52057676D02*
X153643333Y-52152914D01*
X153643333Y-52152914D02*
X153548095Y-52200533D01*
X149500000Y-42885119D02*
X149500000Y-43123214D01*
X149261905Y-43027976D02*
X149500000Y-43123214D01*
X149500000Y-43123214D02*
X149738095Y-43027976D01*
X149357143Y-43313690D02*
X149500000Y-43123214D01*
X149500000Y-43123214D02*
X149642857Y-43313690D01*
X149500000Y-42885119D02*
X149500000Y-43123214D01*
X149261905Y-43027976D02*
X149500000Y-43123214D01*
X149500000Y-43123214D02*
X149738095Y-43027976D01*
X149357143Y-43313690D02*
X149500000Y-43123214D01*
X149500000Y-43123214D02*
X149642857Y-43313690D01*
X162930682Y-56109580D02*
X162883063Y-56157200D01*
X162883063Y-56157200D02*
X162740206Y-56204819D01*
X162740206Y-56204819D02*
X162644968Y-56204819D01*
X162644968Y-56204819D02*
X162502111Y-56157200D01*
X162502111Y-56157200D02*
X162406873Y-56061961D01*
X162406873Y-56061961D02*
X162359254Y-55966723D01*
X162359254Y-55966723D02*
X162311635Y-55776247D01*
X162311635Y-55776247D02*
X162311635Y-55633390D01*
X162311635Y-55633390D02*
X162359254Y-55442914D01*
X162359254Y-55442914D02*
X162406873Y-55347676D01*
X162406873Y-55347676D02*
X162502111Y-55252438D01*
X162502111Y-55252438D02*
X162644968Y-55204819D01*
X162644968Y-55204819D02*
X162740206Y-55204819D01*
X162740206Y-55204819D02*
X162883063Y-55252438D01*
X162883063Y-55252438D02*
X162930682Y-55300057D01*
X163883063Y-56204819D02*
X163311635Y-56204819D01*
X163597349Y-56204819D02*
X163597349Y-55204819D01*
X163597349Y-55204819D02*
X163502111Y-55347676D01*
X163502111Y-55347676D02*
X163406873Y-55442914D01*
X163406873Y-55442914D02*
X163311635Y-55490533D01*
X146904761Y-78850057D02*
X146809523Y-78802438D01*
X146809523Y-78802438D02*
X146714285Y-78707200D01*
X146714285Y-78707200D02*
X146571428Y-78564342D01*
X146571428Y-78564342D02*
X146476190Y-78516723D01*
X146476190Y-78516723D02*
X146380952Y-78516723D01*
X146428571Y-78754819D02*
X146333333Y-78707200D01*
X146333333Y-78707200D02*
X146238095Y-78611961D01*
X146238095Y-78611961D02*
X146190476Y-78421485D01*
X146190476Y-78421485D02*
X146190476Y-78088152D01*
X146190476Y-78088152D02*
X146238095Y-77897676D01*
X146238095Y-77897676D02*
X146333333Y-77802438D01*
X146333333Y-77802438D02*
X146428571Y-77754819D01*
X146428571Y-77754819D02*
X146619047Y-77754819D01*
X146619047Y-77754819D02*
X146714285Y-77802438D01*
X146714285Y-77802438D02*
X146809523Y-77897676D01*
X146809523Y-77897676D02*
X146857142Y-78088152D01*
X146857142Y-78088152D02*
X146857142Y-78421485D01*
X146857142Y-78421485D02*
X146809523Y-78611961D01*
X146809523Y-78611961D02*
X146714285Y-78707200D01*
X146714285Y-78707200D02*
X146619047Y-78754819D01*
X146619047Y-78754819D02*
X146428571Y-78754819D01*
X147190476Y-77754819D02*
X147809523Y-77754819D01*
X147809523Y-77754819D02*
X147476190Y-78135771D01*
X147476190Y-78135771D02*
X147619047Y-78135771D01*
X147619047Y-78135771D02*
X147714285Y-78183390D01*
X147714285Y-78183390D02*
X147761904Y-78231009D01*
X147761904Y-78231009D02*
X147809523Y-78326247D01*
X147809523Y-78326247D02*
X147809523Y-78564342D01*
X147809523Y-78564342D02*
X147761904Y-78659580D01*
X147761904Y-78659580D02*
X147714285Y-78707200D01*
X147714285Y-78707200D02*
X147619047Y-78754819D01*
X147619047Y-78754819D02*
X147333333Y-78754819D01*
X147333333Y-78754819D02*
X147238095Y-78707200D01*
X147238095Y-78707200D02*
X147190476Y-78659580D01*
X132833333Y-69954819D02*
X132500000Y-69478628D01*
X132261905Y-69954819D02*
X132261905Y-68954819D01*
X132261905Y-68954819D02*
X132642857Y-68954819D01*
X132642857Y-68954819D02*
X132738095Y-69002438D01*
X132738095Y-69002438D02*
X132785714Y-69050057D01*
X132785714Y-69050057D02*
X132833333Y-69145295D01*
X132833333Y-69145295D02*
X132833333Y-69288152D01*
X132833333Y-69288152D02*
X132785714Y-69383390D01*
X132785714Y-69383390D02*
X132738095Y-69431009D01*
X132738095Y-69431009D02*
X132642857Y-69478628D01*
X132642857Y-69478628D02*
X132261905Y-69478628D01*
X133214286Y-69050057D02*
X133261905Y-69002438D01*
X133261905Y-69002438D02*
X133357143Y-68954819D01*
X133357143Y-68954819D02*
X133595238Y-68954819D01*
X133595238Y-68954819D02*
X133690476Y-69002438D01*
X133690476Y-69002438D02*
X133738095Y-69050057D01*
X133738095Y-69050057D02*
X133785714Y-69145295D01*
X133785714Y-69145295D02*
X133785714Y-69240533D01*
X133785714Y-69240533D02*
X133738095Y-69383390D01*
X133738095Y-69383390D02*
X133166667Y-69954819D01*
X133166667Y-69954819D02*
X133785714Y-69954819D01*
X124166666Y-84514819D02*
X124166666Y-85229104D01*
X124166666Y-85229104D02*
X124119047Y-85371961D01*
X124119047Y-85371961D02*
X124023809Y-85467200D01*
X124023809Y-85467200D02*
X123880952Y-85514819D01*
X123880952Y-85514819D02*
X123785714Y-85514819D01*
X125166666Y-85514819D02*
X124595238Y-85514819D01*
X124880952Y-85514819D02*
X124880952Y-84514819D01*
X124880952Y-84514819D02*
X124785714Y-84657676D01*
X124785714Y-84657676D02*
X124690476Y-84752914D01*
X124690476Y-84752914D02*
X124595238Y-84800533D01*
X125083333Y-75109580D02*
X125035714Y-75157200D01*
X125035714Y-75157200D02*
X124892857Y-75204819D01*
X124892857Y-75204819D02*
X124797619Y-75204819D01*
X124797619Y-75204819D02*
X124654762Y-75157200D01*
X124654762Y-75157200D02*
X124559524Y-75061961D01*
X124559524Y-75061961D02*
X124511905Y-74966723D01*
X124511905Y-74966723D02*
X124464286Y-74776247D01*
X124464286Y-74776247D02*
X124464286Y-74633390D01*
X124464286Y-74633390D02*
X124511905Y-74442914D01*
X124511905Y-74442914D02*
X124559524Y-74347676D01*
X124559524Y-74347676D02*
X124654762Y-74252438D01*
X124654762Y-74252438D02*
X124797619Y-74204819D01*
X124797619Y-74204819D02*
X124892857Y-74204819D01*
X124892857Y-74204819D02*
X125035714Y-74252438D01*
X125035714Y-74252438D02*
X125083333Y-74300057D01*
X125416667Y-74204819D02*
X126035714Y-74204819D01*
X126035714Y-74204819D02*
X125702381Y-74585771D01*
X125702381Y-74585771D02*
X125845238Y-74585771D01*
X125845238Y-74585771D02*
X125940476Y-74633390D01*
X125940476Y-74633390D02*
X125988095Y-74681009D01*
X125988095Y-74681009D02*
X126035714Y-74776247D01*
X126035714Y-74776247D02*
X126035714Y-75014342D01*
X126035714Y-75014342D02*
X125988095Y-75109580D01*
X125988095Y-75109580D02*
X125940476Y-75157200D01*
X125940476Y-75157200D02*
X125845238Y-75204819D01*
X125845238Y-75204819D02*
X125559524Y-75204819D01*
X125559524Y-75204819D02*
X125464286Y-75157200D01*
X125464286Y-75157200D02*
X125416667Y-75109580D01*
D12*
%TO.C,U5*%
X130550000Y-81360000D02*
X130550000Y-86660000D01*
X130550000Y-86660000D02*
X140830000Y-86660000D01*
X140830000Y-81360000D02*
X130550000Y-81360000D01*
X140830000Y-83010000D02*
X140830000Y-81360000D01*
X140830000Y-86660000D02*
X140830000Y-85010000D01*
X140830000Y-85010000D02*
G75*
G02*
X140830000Y-83010000I0J1000000D01*
G01*
%TO.C,Q1*%
X143650000Y-64970000D02*
X143650000Y-68570000D01*
X143661522Y-64931522D02*
G75*
G02*
X148100001Y-66770000I1838478J-1838478D01*
G01*
X148100000Y-66770000D02*
G75*
G02*
X143661522Y-68608478I-2600000J0D01*
G01*
%TO.C,Q2*%
X147300000Y-71790000D02*
X143700000Y-71790000D01*
X145500000Y-76240000D02*
G75*
G02*
X143661522Y-71801522I0J2600000D01*
G01*
X147338478Y-71801522D02*
G75*
G02*
X145500000Y-76240001I-1838478J-1838478D01*
G01*
%TO.C,C2*%
X134960000Y-75481000D02*
X132195000Y-75481000D01*
X134960000Y-75521000D02*
X132210000Y-75521000D01*
X134960000Y-75561000D02*
X132226000Y-75561000D01*
X134960000Y-75601000D02*
X132243000Y-75601000D01*
X134960000Y-75641000D02*
X132260000Y-75641000D01*
X134960000Y-75681000D02*
X132278000Y-75681000D01*
X134960000Y-75721000D02*
X132296000Y-75721000D01*
X134960000Y-75761000D02*
X132314000Y-75761000D01*
X134960000Y-75801000D02*
X132334000Y-75801000D01*
X134960000Y-75841000D02*
X132353000Y-75841000D01*
X134960000Y-75881000D02*
X132373000Y-75881000D01*
X134960000Y-75921000D02*
X132394000Y-75921000D01*
X134960000Y-75961000D02*
X132416000Y-75961000D01*
X134960000Y-76001000D02*
X132438000Y-76001000D01*
X134960000Y-76041000D02*
X132460000Y-76041000D01*
X134960000Y-76081000D02*
X132483000Y-76081000D01*
X134960000Y-76121000D02*
X132507000Y-76121000D01*
X134960000Y-76161000D02*
X132531000Y-76161000D01*
X134960000Y-76201000D02*
X132556000Y-76201000D01*
X134960000Y-76241000D02*
X132582000Y-76241000D01*
X134960000Y-76281000D02*
X132608000Y-76281000D01*
X134960000Y-76321000D02*
X132635000Y-76321000D01*
X134960000Y-76361000D02*
X132662000Y-76361000D01*
X134960000Y-76401000D02*
X132691000Y-76401000D01*
X134960000Y-76441000D02*
X132720000Y-76441000D01*
X134960000Y-76481000D02*
X132750000Y-76481000D01*
X134960000Y-76521000D02*
X132780000Y-76521000D01*
X134960000Y-76561000D02*
X132811000Y-76561000D01*
X134960000Y-76601000D02*
X132844000Y-76601000D01*
X134960000Y-76641000D02*
X132876000Y-76641000D01*
X134960000Y-76681000D02*
X132910000Y-76681000D01*
X134960000Y-76721000D02*
X132945000Y-76721000D01*
X134960000Y-76761000D02*
X132981000Y-76761000D01*
X134960000Y-76801000D02*
X133017000Y-76801000D01*
X134960000Y-76841000D02*
X133055000Y-76841000D01*
X134960000Y-76881000D02*
X133093000Y-76881000D01*
X134960000Y-76921000D02*
X133133000Y-76921000D01*
X134960000Y-76961000D02*
X133174000Y-76961000D01*
X134960000Y-77001000D02*
X133216000Y-77001000D01*
X134960000Y-77041000D02*
X133259000Y-77041000D01*
X134960000Y-77081000D02*
X133303000Y-77081000D01*
X134960000Y-77121000D02*
X133349000Y-77121000D01*
X134960000Y-77161000D02*
X133396000Y-77161000D01*
X134960000Y-77201000D02*
X133444000Y-77201000D01*
X134960000Y-77241000D02*
X133495000Y-77241000D01*
X134960000Y-77281000D02*
X133546000Y-77281000D01*
X134960000Y-77321000D02*
X133600000Y-77321000D01*
X134960000Y-77361000D02*
X133655000Y-77361000D01*
X134960000Y-77401000D02*
X133713000Y-77401000D01*
X134960000Y-77441000D02*
X133772000Y-77441000D01*
X134960000Y-77481000D02*
X133834000Y-77481000D01*
X134960000Y-77521000D02*
X133898000Y-77521000D01*
X136533000Y-78081000D02*
X135467000Y-78081000D01*
X136768000Y-78041000D02*
X135232000Y-78041000D01*
X136948000Y-78001000D02*
X135052000Y-78001000D01*
X137098000Y-77961000D02*
X134902000Y-77961000D01*
X137229000Y-77921000D02*
X134771000Y-77921000D01*
X137346000Y-77881000D02*
X134654000Y-77881000D01*
X137453000Y-77841000D02*
X134547000Y-77841000D01*
X137552000Y-77801000D02*
X134448000Y-77801000D01*
X137645000Y-77761000D02*
X134355000Y-77761000D01*
X137731000Y-77721000D02*
X134269000Y-77721000D01*
X137813000Y-77681000D02*
X134187000Y-77681000D01*
X137890000Y-77641000D02*
X134110000Y-77641000D01*
X137964000Y-77601000D02*
X134036000Y-77601000D01*
X138034000Y-77561000D02*
X133966000Y-77561000D01*
X138102000Y-77521000D02*
X137040000Y-77521000D01*
X138166000Y-77481000D02*
X137040000Y-77481000D01*
X138228000Y-77441000D02*
X137040000Y-77441000D01*
X138287000Y-77401000D02*
X137040000Y-77401000D01*
X138315000Y-69590302D02*
X138315000Y-70390302D01*
X138345000Y-77361000D02*
X137040000Y-77361000D01*
X138400000Y-77321000D02*
X137040000Y-77321000D01*
X138454000Y-77281000D02*
X137040000Y-77281000D01*
X138505000Y-77241000D02*
X137040000Y-77241000D01*
X138556000Y-77201000D02*
X137040000Y-77201000D01*
X138604000Y-77161000D02*
X137040000Y-77161000D01*
X138651000Y-77121000D02*
X137040000Y-77121000D01*
X138697000Y-77081000D02*
X137040000Y-77081000D01*
X138715000Y-69990302D02*
X137915000Y-69990302D01*
X138741000Y-77041000D02*
X137040000Y-77041000D01*
X138784000Y-77001000D02*
X137040000Y-77001000D01*
X138826000Y-76961000D02*
X137040000Y-76961000D01*
X138867000Y-76921000D02*
X137040000Y-76921000D01*
X138907000Y-76881000D02*
X137040000Y-76881000D01*
X138945000Y-76841000D02*
X137040000Y-76841000D01*
X138983000Y-76801000D02*
X137040000Y-76801000D01*
X139019000Y-76761000D02*
X137040000Y-76761000D01*
X139055000Y-76721000D02*
X137040000Y-76721000D01*
X139090000Y-76681000D02*
X137040000Y-76681000D01*
X139124000Y-76641000D02*
X137040000Y-76641000D01*
X139156000Y-76601000D02*
X137040000Y-76601000D01*
X139189000Y-76561000D02*
X137040000Y-76561000D01*
X139220000Y-76521000D02*
X137040000Y-76521000D01*
X139250000Y-76481000D02*
X137040000Y-76481000D01*
X139280000Y-76441000D02*
X137040000Y-76441000D01*
X139309000Y-76401000D02*
X137040000Y-76401000D01*
X139338000Y-76361000D02*
X137040000Y-76361000D01*
X139365000Y-76321000D02*
X137040000Y-76321000D01*
X139392000Y-76281000D02*
X137040000Y-76281000D01*
X139418000Y-76241000D02*
X137040000Y-76241000D01*
X139444000Y-76201000D02*
X137040000Y-76201000D01*
X139469000Y-76161000D02*
X137040000Y-76161000D01*
X139493000Y-76121000D02*
X137040000Y-76121000D01*
X139517000Y-76081000D02*
X137040000Y-76081000D01*
X139540000Y-76041000D02*
X137040000Y-76041000D01*
X139562000Y-76001000D02*
X137040000Y-76001000D01*
X139584000Y-75961000D02*
X137040000Y-75961000D01*
X139606000Y-75921000D02*
X137040000Y-75921000D01*
X139627000Y-75881000D02*
X137040000Y-75881000D01*
X139647000Y-75841000D02*
X137040000Y-75841000D01*
X139666000Y-75801000D02*
X137040000Y-75801000D01*
X139686000Y-75761000D02*
X137040000Y-75761000D01*
X139704000Y-75721000D02*
X137040000Y-75721000D01*
X139722000Y-75681000D02*
X137040000Y-75681000D01*
X139740000Y-75641000D02*
X137040000Y-75641000D01*
X139757000Y-75601000D02*
X137040000Y-75601000D01*
X139774000Y-75561000D02*
X137040000Y-75561000D01*
X139790000Y-75521000D02*
X137040000Y-75521000D01*
X139805000Y-75481000D02*
X137040000Y-75481000D01*
X139821000Y-75441000D02*
X132179000Y-75441000D01*
X139835000Y-75401000D02*
X132165000Y-75401000D01*
X139850000Y-75361000D02*
X132150000Y-75361000D01*
X139863000Y-75321000D02*
X132137000Y-75321000D01*
X139877000Y-75281000D02*
X132123000Y-75281000D01*
X139889000Y-75241000D02*
X132111000Y-75241000D01*
X139902000Y-75201000D02*
X132098000Y-75201000D01*
X139914000Y-75161000D02*
X132086000Y-75161000D01*
X139925000Y-75121000D02*
X132075000Y-75121000D01*
X139936000Y-75081000D02*
X132064000Y-75081000D01*
X139947000Y-75041000D02*
X132053000Y-75041000D01*
X139957000Y-75001000D02*
X132043000Y-75001000D01*
X139967000Y-74961000D02*
X132033000Y-74961000D01*
X139976000Y-74921000D02*
X132024000Y-74921000D01*
X139985000Y-74881000D02*
X132015000Y-74881000D01*
X139994000Y-74841000D02*
X132006000Y-74841000D01*
X140002000Y-74801000D02*
X131998000Y-74801000D01*
X140010000Y-74761000D02*
X131990000Y-74761000D01*
X140017000Y-74721000D02*
X131983000Y-74721000D01*
X140024000Y-74680000D02*
X131976000Y-74680000D01*
X140030000Y-74640000D02*
X131970000Y-74640000D01*
X140037000Y-74600000D02*
X131963000Y-74600000D01*
X140042000Y-74560000D02*
X131958000Y-74560000D01*
X140048000Y-74520000D02*
X131952000Y-74520000D01*
X140052000Y-74480000D02*
X131948000Y-74480000D01*
X140057000Y-74440000D02*
X131943000Y-74440000D01*
X140061000Y-74400000D02*
X131939000Y-74400000D01*
X140065000Y-74360000D02*
X131935000Y-74360000D01*
X140068000Y-74320000D02*
X131932000Y-74320000D01*
X140071000Y-74280000D02*
X131929000Y-74280000D01*
X140074000Y-74240000D02*
X131926000Y-74240000D01*
X140076000Y-74200000D02*
X131924000Y-74200000D01*
X140077000Y-74160000D02*
X131923000Y-74160000D01*
X140079000Y-74120000D02*
X131921000Y-74120000D01*
X140080000Y-74000000D02*
X131920000Y-74000000D01*
X140080000Y-74040000D02*
X131920000Y-74040000D01*
X140080000Y-74080000D02*
X131920000Y-74080000D01*
X140120000Y-74000000D02*
G75*
G02*
X131880000Y-74000000I-4120000J0D01*
G01*
X131880000Y-74000000D02*
G75*
G02*
X140120000Y-74000000I4120000J0D01*
G01*
D13*
%TO.C,U4*%
X125388000Y-42617500D02*
X125388000Y-44001431D01*
X125388000Y-45678569D02*
X125388000Y-46541431D01*
X125388000Y-48218569D02*
X125388000Y-49081431D01*
X125388000Y-50758569D02*
X125388000Y-51621431D01*
X125388000Y-53298569D02*
X125388000Y-54161431D01*
X125388000Y-55838569D02*
X125388000Y-56701431D01*
X125388000Y-58378569D02*
X125388000Y-59241431D01*
X125388000Y-60918569D02*
X125388000Y-62302500D01*
X125388000Y-62302500D02*
X131992000Y-62302500D01*
X131992000Y-42617500D02*
X125388000Y-42617500D01*
X131992000Y-44001431D02*
X131992000Y-42617500D01*
X131992000Y-46541431D02*
X131992000Y-45678569D01*
X131992000Y-49081431D02*
X131992000Y-48218569D01*
X131992000Y-51621431D02*
X131992000Y-50758569D01*
X131992000Y-54161431D02*
X131992000Y-53298569D01*
X131992000Y-56701431D02*
X131992000Y-55838569D01*
X131992000Y-59099560D02*
X131992000Y-58378569D01*
X131992000Y-62302500D02*
X131992000Y-61060440D01*
X128385200Y-62302500D02*
G75*
G02*
X128994800Y-62302500I304800J0D01*
G01*
%TO.C,U3*%
X137888000Y-42577500D02*
X137888000Y-43819560D01*
X137888000Y-45780440D02*
X137888000Y-46501431D01*
X137888000Y-48178569D02*
X137888000Y-49041431D01*
X137888000Y-50718569D02*
X137888000Y-51581431D01*
X137888000Y-53258569D02*
X137888000Y-54121431D01*
X137888000Y-55798569D02*
X137888000Y-56661431D01*
X137888000Y-58338569D02*
X137888000Y-59201431D01*
X137888000Y-60878569D02*
X137888000Y-62262500D01*
X137888000Y-62262500D02*
X144492000Y-62262500D01*
X144492000Y-42577500D02*
X137888000Y-42577500D01*
X144492000Y-43961431D02*
X144492000Y-42577500D01*
X144492000Y-46501431D02*
X144492000Y-45638569D01*
X144492000Y-49041431D02*
X144492000Y-48178569D01*
X144492000Y-51581431D02*
X144492000Y-50718569D01*
X144492000Y-54121431D02*
X144492000Y-53258569D01*
X144492000Y-56661431D02*
X144492000Y-55798569D01*
X144492000Y-59201431D02*
X144492000Y-58338569D01*
X144492000Y-62262500D02*
X144492000Y-60878569D01*
X141494800Y-42577500D02*
G75*
G02*
X140885200Y-42577500I-304800J0D01*
G01*
D12*
%TO.C,R1*%
X160130000Y-45730000D02*
X160130000Y-52270000D01*
X160130000Y-52270000D02*
X162870000Y-52270000D01*
X161500000Y-44960000D02*
X161500000Y-45730000D01*
X161500000Y-53040000D02*
X161500000Y-52270000D01*
X162870000Y-45730000D02*
X160130000Y-45730000D01*
X162870000Y-52270000D02*
X162870000Y-45730000D01*
D13*
%TO.C,U2*%
X152388000Y-65697500D02*
X152388000Y-66939560D01*
X152388000Y-68900440D02*
X152388000Y-69621431D01*
X152388000Y-71298569D02*
X152388000Y-72161431D01*
X152388000Y-73838569D02*
X152388000Y-74701431D01*
X152388000Y-76378569D02*
X152388000Y-77241431D01*
X152388000Y-78918569D02*
X152388000Y-79781431D01*
X152388000Y-81458569D02*
X152388000Y-82321431D01*
X152388000Y-83998569D02*
X152388000Y-85382500D01*
X152388000Y-85382500D02*
X158992000Y-85382500D01*
X158992000Y-65697500D02*
X152388000Y-65697500D01*
X158992000Y-67081431D02*
X158992000Y-65697500D01*
X158992000Y-69621431D02*
X158992000Y-68758569D01*
X158992000Y-72161431D02*
X158992000Y-71298569D01*
X158992000Y-74701431D02*
X158992000Y-73838569D01*
X158992000Y-77241431D02*
X158992000Y-76378569D01*
X158992000Y-79781431D02*
X158992000Y-78918569D01*
X158992000Y-82321431D02*
X158992000Y-81458569D01*
X158992000Y-85382500D02*
X158992000Y-83998569D01*
X155994800Y-65697500D02*
G75*
G02*
X155385200Y-65697500I-304800J0D01*
G01*
D12*
%TO.C,J2*%
X138940000Y-38940000D02*
X138940000Y-41060000D01*
X143000000Y-38940000D02*
X138940000Y-38940000D01*
X143000000Y-38940000D02*
X143000000Y-41060000D01*
X143000000Y-41060000D02*
X138940000Y-41060000D01*
X144000000Y-38940000D02*
X145060000Y-38940000D01*
X145060000Y-38940000D02*
X145060000Y-40000000D01*
D13*
%TO.C,U1*%
X150008000Y-42617500D02*
X150008000Y-43859560D01*
X150008000Y-45820440D02*
X150008000Y-46541431D01*
X150008000Y-48218569D02*
X150008000Y-49081431D01*
X150008000Y-50758569D02*
X150008000Y-51621431D01*
X150008000Y-53298569D02*
X150008000Y-54161431D01*
X150008000Y-55838569D02*
X150008000Y-56701431D01*
X150008000Y-58378569D02*
X150008000Y-59241431D01*
X150008000Y-60918569D02*
X150008000Y-62302500D01*
X150008000Y-62302500D02*
X156612000Y-62302500D01*
X156612000Y-42617500D02*
X150008000Y-42617500D01*
X156612000Y-44001431D02*
X156612000Y-42617500D01*
X156612000Y-46541431D02*
X156612000Y-45678569D01*
X156612000Y-49081431D02*
X156612000Y-48218569D01*
X156612000Y-51621431D02*
X156612000Y-50758569D01*
X156612000Y-54161431D02*
X156612000Y-53298569D01*
X156612000Y-56701431D02*
X156612000Y-55838569D01*
X156612000Y-59241431D02*
X156612000Y-58378569D01*
X156612000Y-62302500D02*
X156612000Y-60918569D01*
X153614800Y-42617500D02*
G75*
G02*
X153005200Y-42617500I-304800J0D01*
G01*
D12*
%TO.C,C1*%
X158687651Y-58685000D02*
X159487651Y-58685000D01*
X159087651Y-58285000D02*
X159087651Y-59085000D01*
X163097349Y-56920000D02*
X163097349Y-65080000D01*
X163137349Y-56920000D02*
X163137349Y-65080000D01*
X163177349Y-56920000D02*
X163177349Y-65080000D01*
X163217349Y-56921000D02*
X163217349Y-65079000D01*
X163257349Y-56923000D02*
X163257349Y-65077000D01*
X163297349Y-56924000D02*
X163297349Y-65076000D01*
X163337349Y-56926000D02*
X163337349Y-65074000D01*
X163377349Y-56929000D02*
X163377349Y-65071000D01*
X163417349Y-56932000D02*
X163417349Y-65068000D01*
X163457349Y-56935000D02*
X163457349Y-65065000D01*
X163497349Y-56939000D02*
X163497349Y-65061000D01*
X163537349Y-56943000D02*
X163537349Y-65057000D01*
X163577349Y-56948000D02*
X163577349Y-65052000D01*
X163617349Y-56952000D02*
X163617349Y-65048000D01*
X163657349Y-56958000D02*
X163657349Y-65042000D01*
X163697349Y-56963000D02*
X163697349Y-65037000D01*
X163737349Y-56970000D02*
X163737349Y-65030000D01*
X163777349Y-56976000D02*
X163777349Y-65024000D01*
X163818349Y-56983000D02*
X163818349Y-65017000D01*
X163858349Y-56990000D02*
X163858349Y-65010000D01*
X163898349Y-56998000D02*
X163898349Y-65002000D01*
X163938349Y-57006000D02*
X163938349Y-64994000D01*
X163978349Y-57015000D02*
X163978349Y-59960000D01*
X163978349Y-62040000D02*
X163978349Y-64985000D01*
X164018349Y-57024000D02*
X164018349Y-59960000D01*
X164018349Y-62040000D02*
X164018349Y-64976000D01*
X164058349Y-57033000D02*
X164058349Y-59960000D01*
X164058349Y-62040000D02*
X164058349Y-64967000D01*
X164098349Y-57043000D02*
X164098349Y-59960000D01*
X164098349Y-62040000D02*
X164098349Y-64957000D01*
X164138349Y-57053000D02*
X164138349Y-59960000D01*
X164138349Y-62040000D02*
X164138349Y-64947000D01*
X164178349Y-57064000D02*
X164178349Y-59960000D01*
X164178349Y-62040000D02*
X164178349Y-64936000D01*
X164218349Y-57075000D02*
X164218349Y-59960000D01*
X164218349Y-62040000D02*
X164218349Y-64925000D01*
X164258349Y-57086000D02*
X164258349Y-59960000D01*
X164258349Y-62040000D02*
X164258349Y-64914000D01*
X164298349Y-57098000D02*
X164298349Y-59960000D01*
X164298349Y-62040000D02*
X164298349Y-64902000D01*
X164338349Y-57111000D02*
X164338349Y-59960000D01*
X164338349Y-62040000D02*
X164338349Y-64889000D01*
X164378349Y-57123000D02*
X164378349Y-59960000D01*
X164378349Y-62040000D02*
X164378349Y-64877000D01*
X164418349Y-57137000D02*
X164418349Y-59960000D01*
X164418349Y-62040000D02*
X164418349Y-64863000D01*
X164458349Y-57150000D02*
X164458349Y-59960000D01*
X164458349Y-62040000D02*
X164458349Y-64850000D01*
X164498349Y-57165000D02*
X164498349Y-59960000D01*
X164498349Y-62040000D02*
X164498349Y-64835000D01*
X164538349Y-57179000D02*
X164538349Y-59960000D01*
X164538349Y-62040000D02*
X164538349Y-64821000D01*
X164578349Y-57195000D02*
X164578349Y-59960000D01*
X164578349Y-62040000D02*
X164578349Y-64805000D01*
X164618349Y-57210000D02*
X164618349Y-59960000D01*
X164618349Y-62040000D02*
X164618349Y-64790000D01*
X164658349Y-57226000D02*
X164658349Y-59960000D01*
X164658349Y-62040000D02*
X164658349Y-64774000D01*
X164698349Y-57243000D02*
X164698349Y-59960000D01*
X164698349Y-62040000D02*
X164698349Y-64757000D01*
X164738349Y-57260000D02*
X164738349Y-59960000D01*
X164738349Y-62040000D02*
X164738349Y-64740000D01*
X164778349Y-57278000D02*
X164778349Y-59960000D01*
X164778349Y-62040000D02*
X164778349Y-64722000D01*
X164818349Y-57296000D02*
X164818349Y-59960000D01*
X164818349Y-62040000D02*
X164818349Y-64704000D01*
X164858349Y-57314000D02*
X164858349Y-59960000D01*
X164858349Y-62040000D02*
X164858349Y-64686000D01*
X164898349Y-57334000D02*
X164898349Y-59960000D01*
X164898349Y-62040000D02*
X164898349Y-64666000D01*
X164938349Y-57353000D02*
X164938349Y-59960000D01*
X164938349Y-62040000D02*
X164938349Y-64647000D01*
X164978349Y-57373000D02*
X164978349Y-59960000D01*
X164978349Y-62040000D02*
X164978349Y-64627000D01*
X165018349Y-57394000D02*
X165018349Y-59960000D01*
X165018349Y-62040000D02*
X165018349Y-64606000D01*
X165058349Y-57416000D02*
X165058349Y-59960000D01*
X165058349Y-62040000D02*
X165058349Y-64584000D01*
X165098349Y-57438000D02*
X165098349Y-59960000D01*
X165098349Y-62040000D02*
X165098349Y-64562000D01*
X165138349Y-57460000D02*
X165138349Y-59960000D01*
X165138349Y-62040000D02*
X165138349Y-64540000D01*
X165178349Y-57483000D02*
X165178349Y-59960000D01*
X165178349Y-62040000D02*
X165178349Y-64517000D01*
X165218349Y-57507000D02*
X165218349Y-59960000D01*
X165218349Y-62040000D02*
X165218349Y-64493000D01*
X165258349Y-57531000D02*
X165258349Y-59960000D01*
X165258349Y-62040000D02*
X165258349Y-64469000D01*
X165298349Y-57556000D02*
X165298349Y-59960000D01*
X165298349Y-62040000D02*
X165298349Y-64444000D01*
X165338349Y-57582000D02*
X165338349Y-59960000D01*
X165338349Y-62040000D02*
X165338349Y-64418000D01*
X165378349Y-57608000D02*
X165378349Y-59960000D01*
X165378349Y-62040000D02*
X165378349Y-64392000D01*
X165418349Y-57635000D02*
X165418349Y-59960000D01*
X165418349Y-62040000D02*
X165418349Y-64365000D01*
X165458349Y-57662000D02*
X165458349Y-59960000D01*
X165458349Y-62040000D02*
X165458349Y-64338000D01*
X165498349Y-57691000D02*
X165498349Y-59960000D01*
X165498349Y-62040000D02*
X165498349Y-64309000D01*
X165538349Y-57720000D02*
X165538349Y-59960000D01*
X165538349Y-62040000D02*
X165538349Y-64280000D01*
X165578349Y-57750000D02*
X165578349Y-59960000D01*
X165578349Y-62040000D02*
X165578349Y-64250000D01*
X165618349Y-57780000D02*
X165618349Y-59960000D01*
X165618349Y-62040000D02*
X165618349Y-64220000D01*
X165658349Y-57811000D02*
X165658349Y-59960000D01*
X165658349Y-62040000D02*
X165658349Y-64189000D01*
X165698349Y-57844000D02*
X165698349Y-59960000D01*
X165698349Y-62040000D02*
X165698349Y-64156000D01*
X165738349Y-57876000D02*
X165738349Y-59960000D01*
X165738349Y-62040000D02*
X165738349Y-64124000D01*
X165778349Y-57910000D02*
X165778349Y-59960000D01*
X165778349Y-62040000D02*
X165778349Y-64090000D01*
X165818349Y-57945000D02*
X165818349Y-59960000D01*
X165818349Y-62040000D02*
X165818349Y-64055000D01*
X165858349Y-57981000D02*
X165858349Y-59960000D01*
X165858349Y-62040000D02*
X165858349Y-64019000D01*
X165898349Y-58017000D02*
X165898349Y-59960000D01*
X165898349Y-62040000D02*
X165898349Y-63983000D01*
X165938349Y-58055000D02*
X165938349Y-59960000D01*
X165938349Y-62040000D02*
X165938349Y-63945000D01*
X165978349Y-58093000D02*
X165978349Y-59960000D01*
X165978349Y-62040000D02*
X165978349Y-63907000D01*
X166018349Y-58133000D02*
X166018349Y-59960000D01*
X166018349Y-62040000D02*
X166018349Y-63867000D01*
X166058349Y-58174000D02*
X166058349Y-63826000D01*
X166098349Y-58216000D02*
X166098349Y-63784000D01*
X166138349Y-58259000D02*
X166138349Y-63741000D01*
X166178349Y-58303000D02*
X166178349Y-63697000D01*
X166218349Y-58349000D02*
X166218349Y-63651000D01*
X166258349Y-58396000D02*
X166258349Y-63604000D01*
X166298349Y-58444000D02*
X166298349Y-63556000D01*
X166338349Y-58495000D02*
X166338349Y-63505000D01*
X166378349Y-58546000D02*
X166378349Y-63454000D01*
X166418349Y-58600000D02*
X166418349Y-63400000D01*
X166458349Y-58655000D02*
X166458349Y-63345000D01*
X166498349Y-58713000D02*
X166498349Y-63287000D01*
X166538349Y-58772000D02*
X166538349Y-63228000D01*
X166578349Y-58834000D02*
X166578349Y-63166000D01*
X166618349Y-58898000D02*
X166618349Y-63102000D01*
X166658349Y-58966000D02*
X166658349Y-63034000D01*
X166698349Y-59036000D02*
X166698349Y-62964000D01*
X166738349Y-59110000D02*
X166738349Y-62890000D01*
X166778349Y-59187000D02*
X166778349Y-62813000D01*
X166818349Y-59269000D02*
X166818349Y-62731000D01*
X166858349Y-59355000D02*
X166858349Y-62645000D01*
X166898349Y-59448000D02*
X166898349Y-62552000D01*
X166938349Y-59547000D02*
X166938349Y-62453000D01*
X166978349Y-59654000D02*
X166978349Y-62346000D01*
X167018349Y-59771000D02*
X167018349Y-62229000D01*
X167058349Y-59902000D02*
X167058349Y-62098000D01*
X167098349Y-60052000D02*
X167098349Y-61948000D01*
X167138349Y-60232000D02*
X167138349Y-61768000D01*
X167178349Y-60467000D02*
X167178349Y-61533000D01*
X167217349Y-61000000D02*
G75*
G02*
X158977349Y-61000000I-4120000J0D01*
G01*
X158977349Y-61000000D02*
G75*
G02*
X167217349Y-61000000I4120000J0D01*
G01*
%TO.C,Q3*%
X145200000Y-83710000D02*
X148800000Y-83710000D01*
X145161522Y-83698478D02*
G75*
G02*
X147000000Y-79259999I1838478J1838478D01*
G01*
X147000000Y-79260000D02*
G75*
G02*
X148838478Y-83698478I0J-2600000D01*
G01*
%TO.C,R2*%
X131920000Y-65630000D02*
X131920000Y-65960000D01*
X131920000Y-68370000D02*
X131920000Y-68040000D01*
X138460000Y-65630000D02*
X131920000Y-65630000D01*
X138460000Y-65960000D02*
X138460000Y-65630000D01*
X138460000Y-68040000D02*
X138460000Y-68370000D01*
X138460000Y-68370000D02*
X131920000Y-68370000D01*
%TO.C,J1*%
X123440000Y-82000000D02*
X123440000Y-79940000D01*
X125560000Y-79940000D02*
X123440000Y-79940000D01*
X125560000Y-82000000D02*
X123440000Y-82000000D01*
X125560000Y-82000000D02*
X125560000Y-79940000D01*
X125560000Y-83000000D02*
X125560000Y-84060000D01*
X125560000Y-84060000D02*
X124500000Y-84060000D01*
%TO.C,C3*%
X121169000Y-70033000D02*
X121169000Y-68967000D01*
X121209000Y-70268000D02*
X121209000Y-68732000D01*
X121249000Y-70448000D02*
X121249000Y-68552000D01*
X121289000Y-70598000D02*
X121289000Y-68402000D01*
X121329000Y-70729000D02*
X121329000Y-68271000D01*
X121369000Y-70846000D02*
X121369000Y-68154000D01*
X121409000Y-70953000D02*
X121409000Y-68047000D01*
X121449000Y-71052000D02*
X121449000Y-67948000D01*
X121489000Y-71145000D02*
X121489000Y-67855000D01*
X121529000Y-71231000D02*
X121529000Y-67769000D01*
X121569000Y-71313000D02*
X121569000Y-67687000D01*
X121609000Y-71390000D02*
X121609000Y-67610000D01*
X121649000Y-71464000D02*
X121649000Y-67536000D01*
X121689000Y-71534000D02*
X121689000Y-67466000D01*
X121729000Y-71602000D02*
X121729000Y-67398000D01*
X121769000Y-71666000D02*
X121769000Y-67334000D01*
X121809000Y-71728000D02*
X121809000Y-67272000D01*
X121849000Y-71787000D02*
X121849000Y-67213000D01*
X121889000Y-71845000D02*
X121889000Y-67155000D01*
X121929000Y-71900000D02*
X121929000Y-67100000D01*
X121969000Y-71954000D02*
X121969000Y-67046000D01*
X122009000Y-72005000D02*
X122009000Y-66995000D01*
X122049000Y-72056000D02*
X122049000Y-66944000D01*
X122089000Y-72104000D02*
X122089000Y-66896000D01*
X122129000Y-72151000D02*
X122129000Y-66849000D01*
X122169000Y-72197000D02*
X122169000Y-66803000D01*
X122209000Y-72241000D02*
X122209000Y-66759000D01*
X122249000Y-72284000D02*
X122249000Y-66716000D01*
X122289000Y-72326000D02*
X122289000Y-66674000D01*
X122329000Y-72367000D02*
X122329000Y-66633000D01*
X122369000Y-72407000D02*
X122369000Y-66593000D01*
X122409000Y-72445000D02*
X122409000Y-66555000D01*
X122449000Y-72483000D02*
X122449000Y-66517000D01*
X122489000Y-68460000D02*
X122489000Y-66481000D01*
X122489000Y-72519000D02*
X122489000Y-70540000D01*
X122529000Y-68460000D02*
X122529000Y-66445000D01*
X122529000Y-72555000D02*
X122529000Y-70540000D01*
X122569000Y-68460000D02*
X122569000Y-66410000D01*
X122569000Y-72590000D02*
X122569000Y-70540000D01*
X122609000Y-68460000D02*
X122609000Y-66376000D01*
X122609000Y-72624000D02*
X122609000Y-70540000D01*
X122649000Y-68460000D02*
X122649000Y-66344000D01*
X122649000Y-72656000D02*
X122649000Y-70540000D01*
X122689000Y-68460000D02*
X122689000Y-66311000D01*
X122689000Y-72689000D02*
X122689000Y-70540000D01*
X122729000Y-68460000D02*
X122729000Y-66280000D01*
X122729000Y-72720000D02*
X122729000Y-70540000D01*
X122769000Y-68460000D02*
X122769000Y-66250000D01*
X122769000Y-72750000D02*
X122769000Y-70540000D01*
X122809000Y-68460000D02*
X122809000Y-66220000D01*
X122809000Y-72780000D02*
X122809000Y-70540000D01*
X122849000Y-68460000D02*
X122849000Y-66191000D01*
X122849000Y-72809000D02*
X122849000Y-70540000D01*
X122889000Y-68460000D02*
X122889000Y-66162000D01*
X122889000Y-72838000D02*
X122889000Y-70540000D01*
X122929000Y-68460000D02*
X122929000Y-66135000D01*
X122929000Y-72865000D02*
X122929000Y-70540000D01*
X122969000Y-68460000D02*
X122969000Y-66108000D01*
X122969000Y-72892000D02*
X122969000Y-70540000D01*
X123009000Y-68460000D02*
X123009000Y-66082000D01*
X123009000Y-72918000D02*
X123009000Y-70540000D01*
X123049000Y-68460000D02*
X123049000Y-66056000D01*
X123049000Y-72944000D02*
X123049000Y-70540000D01*
X123089000Y-68460000D02*
X123089000Y-66031000D01*
X123089000Y-72969000D02*
X123089000Y-70540000D01*
X123129000Y-68460000D02*
X123129000Y-66007000D01*
X123129000Y-72993000D02*
X123129000Y-70540000D01*
X123169000Y-68460000D02*
X123169000Y-65983000D01*
X123169000Y-73017000D02*
X123169000Y-70540000D01*
X123209000Y-68460000D02*
X123209000Y-65960000D01*
X123209000Y-73040000D02*
X123209000Y-70540000D01*
X123249000Y-68460000D02*
X123249000Y-65938000D01*
X123249000Y-73062000D02*
X123249000Y-70540000D01*
X123289000Y-68460000D02*
X123289000Y-65916000D01*
X123289000Y-73084000D02*
X123289000Y-70540000D01*
X123329000Y-68460000D02*
X123329000Y-65894000D01*
X123329000Y-73106000D02*
X123329000Y-70540000D01*
X123369000Y-68460000D02*
X123369000Y-65873000D01*
X123369000Y-73127000D02*
X123369000Y-70540000D01*
X123409000Y-68460000D02*
X123409000Y-65853000D01*
X123409000Y-73147000D02*
X123409000Y-70540000D01*
X123449000Y-68460000D02*
X123449000Y-65834000D01*
X123449000Y-73166000D02*
X123449000Y-70540000D01*
X123489000Y-68460000D02*
X123489000Y-65814000D01*
X123489000Y-73186000D02*
X123489000Y-70540000D01*
X123529000Y-68460000D02*
X123529000Y-65796000D01*
X123529000Y-73204000D02*
X123529000Y-70540000D01*
X123569000Y-68460000D02*
X123569000Y-65778000D01*
X123569000Y-73222000D02*
X123569000Y-70540000D01*
X123609000Y-68460000D02*
X123609000Y-65760000D01*
X123609000Y-73240000D02*
X123609000Y-70540000D01*
X123649000Y-68460000D02*
X123649000Y-65743000D01*
X123649000Y-73257000D02*
X123649000Y-70540000D01*
X123689000Y-68460000D02*
X123689000Y-65726000D01*
X123689000Y-73274000D02*
X123689000Y-70540000D01*
X123729000Y-68460000D02*
X123729000Y-65710000D01*
X123729000Y-73290000D02*
X123729000Y-70540000D01*
X123769000Y-68460000D02*
X123769000Y-65695000D01*
X123769000Y-73305000D02*
X123769000Y-70540000D01*
X123809000Y-68460000D02*
X123809000Y-65679000D01*
X123809000Y-73321000D02*
X123809000Y-70540000D01*
X123849000Y-68460000D02*
X123849000Y-65665000D01*
X123849000Y-73335000D02*
X123849000Y-70540000D01*
X123889000Y-68460000D02*
X123889000Y-65650000D01*
X123889000Y-73350000D02*
X123889000Y-70540000D01*
X123929000Y-68460000D02*
X123929000Y-65637000D01*
X123929000Y-73363000D02*
X123929000Y-70540000D01*
X123969000Y-68460000D02*
X123969000Y-65623000D01*
X123969000Y-73377000D02*
X123969000Y-70540000D01*
X124009000Y-68460000D02*
X124009000Y-65611000D01*
X124009000Y-73389000D02*
X124009000Y-70540000D01*
X124049000Y-68460000D02*
X124049000Y-65598000D01*
X124049000Y-73402000D02*
X124049000Y-70540000D01*
X124089000Y-68460000D02*
X124089000Y-65586000D01*
X124089000Y-73414000D02*
X124089000Y-70540000D01*
X124129000Y-68460000D02*
X124129000Y-65575000D01*
X124129000Y-73425000D02*
X124129000Y-70540000D01*
X124169000Y-68460000D02*
X124169000Y-65564000D01*
X124169000Y-73436000D02*
X124169000Y-70540000D01*
X124209000Y-68460000D02*
X124209000Y-65553000D01*
X124209000Y-73447000D02*
X124209000Y-70540000D01*
X124249000Y-68460000D02*
X124249000Y-65543000D01*
X124249000Y-73457000D02*
X124249000Y-70540000D01*
X124289000Y-68460000D02*
X124289000Y-65533000D01*
X124289000Y-73467000D02*
X124289000Y-70540000D01*
X124329000Y-68460000D02*
X124329000Y-65524000D01*
X124329000Y-73476000D02*
X124329000Y-70540000D01*
X124369000Y-68460000D02*
X124369000Y-65515000D01*
X124369000Y-73485000D02*
X124369000Y-70540000D01*
X124409000Y-68460000D02*
X124409000Y-65506000D01*
X124409000Y-73494000D02*
X124409000Y-70540000D01*
X124449000Y-68460000D02*
X124449000Y-65498000D01*
X124449000Y-73502000D02*
X124449000Y-70540000D01*
X124489000Y-68460000D02*
X124489000Y-65490000D01*
X124489000Y-73510000D02*
X124489000Y-70540000D01*
X124529000Y-68460000D02*
X124529000Y-65483000D01*
X124529000Y-73517000D02*
X124529000Y-70540000D01*
X124570000Y-73524000D02*
X124570000Y-65476000D01*
X124610000Y-73530000D02*
X124610000Y-65470000D01*
X124650000Y-73537000D02*
X124650000Y-65463000D01*
X124690000Y-73542000D02*
X124690000Y-65458000D01*
X124730000Y-73548000D02*
X124730000Y-65452000D01*
X124770000Y-73552000D02*
X124770000Y-65448000D01*
X124810000Y-73557000D02*
X124810000Y-65443000D01*
X124850000Y-73561000D02*
X124850000Y-65439000D01*
X124890000Y-73565000D02*
X124890000Y-65435000D01*
X124930000Y-73568000D02*
X124930000Y-65432000D01*
X124970000Y-73571000D02*
X124970000Y-65429000D01*
X125010000Y-73574000D02*
X125010000Y-65426000D01*
X125050000Y-73576000D02*
X125050000Y-65424000D01*
X125090000Y-73577000D02*
X125090000Y-65423000D01*
X125130000Y-73579000D02*
X125130000Y-65421000D01*
X125170000Y-73580000D02*
X125170000Y-65420000D01*
X125210000Y-73580000D02*
X125210000Y-65420000D01*
X125250000Y-73580000D02*
X125250000Y-65420000D01*
X129259698Y-72215000D02*
X129259698Y-71415000D01*
X129659698Y-71815000D02*
X128859698Y-71815000D01*
X129370000Y-69500000D02*
G75*
G02*
X121130000Y-69500000I-4120000J0D01*
G01*
X121130000Y-69500000D02*
G75*
G02*
X129370000Y-69500000I4120000J0D01*
G01*
%TD*%
M02*
