%TF.GenerationSoftware,KiCad,Pcbnew,8.0.6*%
%TF.CreationDate,2024-12-13T16:31:17+05:30*%
%TF.ProjectId,pll1,706c6c31-2e6b-4696-9361-645f70636258,rev?*%
%TF.SameCoordinates,Original*%
%TF.FileFunction,Copper,L1,Top*%
%TF.FilePolarity,Positive*%
%FSLAX46Y46*%
G04 Gerber Fmt 4.6, Leading zero omitted, Abs format (unit mm)*
G04 Created by KiCad (PCBNEW 8.0.6) date 2024-12-13 16:31:17*
%MOMM*%
%LPD*%
G01*
G04 APERTURE LIST*
%TA.AperFunction,ComponentPad*%
%ADD10R,1.600000X1.600000*%
%TD*%
%TA.AperFunction,ComponentPad*%
%ADD11O,1.600000X1.600000*%
%TD*%
%TA.AperFunction,ComponentPad*%
%ADD12R,1.500000X1.050000*%
%TD*%
%TA.AperFunction,ComponentPad*%
%ADD13O,1.500000X1.050000*%
%TD*%
%TA.AperFunction,ComponentPad*%
%ADD14R,1.050000X1.500000*%
%TD*%
%TA.AperFunction,ComponentPad*%
%ADD15O,1.050000X1.500000*%
%TD*%
%TA.AperFunction,ComponentPad*%
%ADD16C,1.600000*%
%TD*%
%TA.AperFunction,ComponentPad*%
%ADD17R,1.295400X1.295400*%
%TD*%
%TA.AperFunction,ComponentPad*%
%ADD18C,1.295400*%
%TD*%
%TA.AperFunction,ComponentPad*%
%ADD19R,1.350000X1.350000*%
%TD*%
%TA.AperFunction,ComponentPad*%
%ADD20O,1.350000X1.350000*%
%TD*%
%TA.AperFunction,Conductor*%
%ADD21C,0.200000*%
%TD*%
G04 APERTURE END LIST*
D10*
%TO.P,U5,1,GND*%
%TO.N,GND*%
X139500000Y-80200000D03*
D11*
%TO.P,U5,2,TR*%
%TO.N,Net-(Q3-C)*%
X136960000Y-80200000D03*
%TO.P,U5,3,Q*%
%TO.N,out*%
X134420000Y-80200000D03*
%TO.P,U5,4,R*%
%TO.N,VDD*%
X131880000Y-80200000D03*
%TO.P,U5,5,CV*%
%TO.N,Net-(U5-CV)*%
X131880000Y-87820000D03*
%TO.P,U5,6,THR*%
%TO.N,Net-(Q3-C)*%
X134420000Y-87820000D03*
%TO.P,U5,7,DIS*%
X136960000Y-87820000D03*
%TO.P,U5,8,VCC*%
%TO.N,VDD*%
X139500000Y-87820000D03*
%TD*%
D12*
%TO.P,Q1,1,C*%
%TO.N,Net-(Q1-C)*%
X145500000Y-65500000D03*
D13*
%TO.P,Q1,2,B*%
%TO.N,Net-(Q1-B)*%
X145500000Y-66770000D03*
%TO.P,Q1,3,E*%
%TO.N,Net-(Q1-E)*%
X145500000Y-68040000D03*
%TD*%
D14*
%TO.P,Q2,1,C*%
%TO.N,Net-(Q1-C)*%
X146770000Y-73640000D03*
D15*
%TO.P,Q2,2,B*%
%TO.N,Net-(Q2-B)*%
X145500000Y-73640000D03*
%TO.P,Q2,3,E*%
%TO.N,VDD*%
X144230000Y-73640000D03*
%TD*%
D10*
%TO.P,C2,1*%
%TO.N,Net-(Q3-C)*%
X136000000Y-71500000D03*
D16*
%TO.P,C2,2*%
%TO.N,GND*%
X136000000Y-76500000D03*
%TD*%
D17*
%TO.P,U4,1,\u002A1R*%
%TO.N,VDD*%
X132500000Y-60080000D03*
D18*
%TO.P,U4,2,1D*%
%TO.N,Net-(U4-\u002A1Q)*%
X132500000Y-57540000D03*
%TO.P,U4,3,1CP*%
%TO.N,Net-(U4-1CP)*%
X132500000Y-55000000D03*
%TO.P,U4,4,\u002A1S*%
%TO.N,VDD*%
X132500000Y-52460000D03*
%TO.P,U4,5,1Q*%
%TO.N,Net-(U3-2CP)*%
X132500000Y-49920000D03*
%TO.P,U4,6,\u002A1Q*%
%TO.N,Net-(U4-\u002A1Q)*%
X132500000Y-47380000D03*
%TO.P,U4,7,GND*%
%TO.N,GND*%
X132500000Y-44840000D03*
%TO.P,U4,8,\u002A2Q*%
%TO.N,Net-(U4-\u002A2Q)*%
X124880000Y-44840000D03*
%TO.P,U4,9,2Q*%
%TO.N,Net-(U4-1CP)*%
X124880000Y-47380000D03*
%TO.P,U4,10,\u002A2S*%
%TO.N,VDD*%
X124880000Y-49920000D03*
%TO.P,U4,11,2CP*%
%TO.N,out*%
X124880000Y-52460000D03*
%TO.P,U4,12,2D*%
%TO.N,Net-(U4-\u002A2Q)*%
X124880000Y-55000000D03*
%TO.P,U4,13,\u002A2R*%
%TO.N,VDD*%
X124880000Y-57540000D03*
%TO.P,U4,14,VCC*%
X124880000Y-60080000D03*
%TD*%
D17*
%TO.P,U3,1,\u002A1R*%
%TO.N,unconnected-(U3-\u002A1R-Pad1)*%
X137380000Y-44800000D03*
D18*
%TO.P,U3,2,1D*%
%TO.N,unconnected-(U3-1D-Pad2)*%
X137380000Y-47340000D03*
%TO.P,U3,3,1CP*%
%TO.N,unconnected-(U3-1CP-Pad3)*%
X137380000Y-49880000D03*
%TO.P,U3,4,\u002A1S*%
%TO.N,unconnected-(U3-\u002A1S-Pad4)*%
X137380000Y-52420000D03*
%TO.P,U3,5,1Q*%
%TO.N,unconnected-(U3-1Q-Pad5)*%
X137380000Y-54960000D03*
%TO.P,U3,6,\u002A1Q*%
%TO.N,unconnected-(U3-\u002A1Q-Pad6)*%
X137380000Y-57500000D03*
%TO.P,U3,7,GND*%
%TO.N,GND*%
X137380000Y-60040000D03*
%TO.P,U3,8,\u002A2Q*%
%TO.N,Net-(U3-\u002A2Q)*%
X145000000Y-60040000D03*
%TO.P,U3,9,2Q*%
%TO.N,Net-(U1-1B)*%
X145000000Y-57500000D03*
%TO.P,U3,10,\u002A2S*%
%TO.N,VDD*%
X145000000Y-54960000D03*
%TO.P,U3,11,2CP*%
%TO.N,Net-(U3-2CP)*%
X145000000Y-52420000D03*
%TO.P,U3,12,2D*%
%TO.N,Net-(U3-\u002A2Q)*%
X145000000Y-49880000D03*
%TO.P,U3,13,\u002A2R*%
%TO.N,VDD*%
X145000000Y-47340000D03*
%TO.P,U3,14,VCC*%
X145000000Y-44800000D03*
%TD*%
D16*
%TO.P,R1,1*%
%TO.N,Net-(U1-1Y)*%
X161500000Y-43920000D03*
D11*
%TO.P,R1,2*%
%TO.N,Net-(U2-1IN+)*%
X161500000Y-54080000D03*
%TD*%
D17*
%TO.P,U2,1,1OUT*%
%TO.N,Net-(Q1-B)*%
X151880000Y-67920000D03*
D18*
%TO.P,U2,2,1IN-*%
%TO.N,Net-(Q1-E)*%
X151880000Y-70460000D03*
%TO.P,U2,3,1IN+*%
%TO.N,Net-(U2-1IN+)*%
X151880000Y-73000000D03*
%TO.P,U2,4,VCC*%
%TO.N,VDD*%
X151880000Y-75540000D03*
%TO.P,U2,5,2IN+*%
%TO.N,unconnected-(U2-2IN+-Pad5)*%
X151880000Y-78080000D03*
%TO.P,U2,6,2IN-*%
%TO.N,unconnected-(U2-2IN--Pad6)*%
X151880000Y-80620000D03*
%TO.P,U2,7,2OUT*%
%TO.N,unconnected-(U2-2OUT-Pad7)*%
X151880000Y-83160000D03*
%TO.P,U2,8,3OUT*%
%TO.N,unconnected-(U2-3OUT-Pad8)*%
X159500000Y-83160000D03*
%TO.P,U2,9,3IN-*%
%TO.N,unconnected-(U2-3IN--Pad9)*%
X159500000Y-80620000D03*
%TO.P,U2,10,3IN+*%
%TO.N,unconnected-(U2-3IN+-Pad10)*%
X159500000Y-78080000D03*
%TO.P,U2,11,GND*%
%TO.N,GND*%
X159500000Y-75540000D03*
%TO.P,U2,12,4IN+*%
%TO.N,unconnected-(U2-4IN+-Pad12)*%
X159500000Y-73000000D03*
%TO.P,U2,13,4IN-*%
%TO.N,unconnected-(U2-4IN--Pad13)*%
X159500000Y-70460000D03*
%TO.P,U2,14,4OUT*%
%TO.N,unconnected-(U2-4OUT-Pad14)*%
X159500000Y-67920000D03*
%TD*%
D19*
%TO.P,J2,1,Pin_1*%
%TO.N,VDD*%
X144000000Y-40000000D03*
D20*
%TO.P,J2,2,Pin_2*%
%TO.N,in1*%
X142000000Y-40000000D03*
%TO.P,J2,3,Pin_3*%
%TO.N,GND*%
X140000000Y-40000000D03*
%TD*%
D17*
%TO.P,U1,1,1A*%
%TO.N,in1*%
X149500000Y-44840000D03*
D18*
%TO.P,U1,2,1B*%
%TO.N,Net-(U1-1B)*%
X149500000Y-47380000D03*
%TO.P,U1,3,1Y*%
%TO.N,Net-(U1-1Y)*%
X149500000Y-49920000D03*
%TO.P,U1,4,2A*%
%TO.N,unconnected-(U1-2A-Pad4)*%
X149500000Y-52460000D03*
%TO.P,U1,5,2B*%
%TO.N,unconnected-(U1-2B-Pad5)*%
X149500000Y-55000000D03*
%TO.P,U1,6,2Y*%
%TO.N,unconnected-(U1-2Y-Pad6)*%
X149500000Y-57540000D03*
%TO.P,U1,7,GND*%
%TO.N,GND*%
X149500000Y-60080000D03*
%TO.P,U1,8,3Y*%
%TO.N,unconnected-(U1-3Y-Pad8)*%
X157120000Y-60080000D03*
%TO.P,U1,9,3A*%
%TO.N,unconnected-(U1-3A-Pad9)*%
X157120000Y-57540000D03*
%TO.P,U1,10,3B*%
%TO.N,unconnected-(U1-3B-Pad10)*%
X157120000Y-55000000D03*
%TO.P,U1,11,4Y*%
%TO.N,unconnected-(U1-4Y-Pad11)*%
X157120000Y-52460000D03*
%TO.P,U1,12,4A*%
%TO.N,unconnected-(U1-4A-Pad12)*%
X157120000Y-49920000D03*
%TO.P,U1,13,4B*%
%TO.N,unconnected-(U1-4B-Pad13)*%
X157120000Y-47380000D03*
%TO.P,U1,14,VCC*%
%TO.N,VDD*%
X157120000Y-44840000D03*
%TD*%
D10*
%TO.P,C1,1*%
%TO.N,Net-(U2-1IN+)*%
X161197349Y-61000000D03*
D16*
%TO.P,C1,2*%
%TO.N,GND*%
X164997349Y-61000000D03*
%TD*%
D14*
%TO.P,Q3,1,C*%
%TO.N,Net-(Q3-C)*%
X145730000Y-81860000D03*
D15*
%TO.P,Q3,2,B*%
%TO.N,Net-(Q2-B)*%
X147000000Y-81860000D03*
%TO.P,Q3,3,E*%
%TO.N,VDD*%
X148270000Y-81860000D03*
%TD*%
D16*
%TO.P,R2,1*%
%TO.N,Net-(Q1-E)*%
X139000000Y-67000000D03*
D11*
%TO.P,R2,2*%
%TO.N,GND*%
X131380000Y-67000000D03*
%TD*%
D19*
%TO.P,J1,1,Pin_1*%
%TO.N,out*%
X124500000Y-83000000D03*
D20*
%TO.P,J1,2,Pin_2*%
%TO.N,GND*%
X124500000Y-81000000D03*
%TD*%
D10*
%TO.P,C3,1*%
%TO.N,Net-(U5-CV)*%
X127000000Y-69500000D03*
D16*
%TO.P,C3,2*%
%TO.N,GND*%
X123500000Y-69500000D03*
%TD*%
D21*
%TO.N,Net-(U2-1IN+)*%
X161197349Y-61000000D02*
X161197349Y-63682651D01*
X161197349Y-61000000D02*
X161197349Y-54382651D01*
X161197349Y-54382651D02*
X161500000Y-54080000D01*
X161197349Y-63682651D02*
X151880000Y-73000000D01*
%TO.N,GND*%
X126000000Y-67000000D02*
X123500000Y-69500000D01*
X137380000Y-60040000D02*
X136432300Y-59092300D01*
X148592300Y-60987700D02*
X138327700Y-60987700D01*
X139500000Y-80200000D02*
X139500000Y-80000000D01*
X149500000Y-60080000D02*
X148592300Y-60987700D01*
X132500000Y-44840000D02*
X135160000Y-44840000D01*
X137380000Y-61000000D02*
X131380000Y-67000000D01*
X131380000Y-67000000D02*
X126000000Y-67000000D01*
X136432300Y-48772300D02*
X132500000Y-44840000D01*
X123500000Y-69500000D02*
X123500000Y-80000000D01*
X137380000Y-60040000D02*
X137380000Y-61000000D01*
X139500000Y-80000000D02*
X136000000Y-76500000D01*
X136432300Y-59092300D02*
X136432300Y-48772300D01*
X131380000Y-71880000D02*
X131380000Y-67000000D01*
X138327700Y-60987700D02*
X137380000Y-60040000D01*
X136000000Y-76500000D02*
X131380000Y-71880000D01*
X123500000Y-80000000D02*
X124500000Y-81000000D01*
X135160000Y-44840000D02*
X140000000Y-40000000D01*
X164997349Y-70042651D02*
X159500000Y-75540000D01*
X164997349Y-61000000D02*
X164997349Y-70042651D01*
%TO.N,Net-(Q3-C)*%
X136960000Y-87820000D02*
X134420000Y-87820000D01*
%TO.N,Net-(U5-CV)*%
X131880000Y-87820000D02*
X127000000Y-82940000D01*
X127000000Y-82940000D02*
X127000000Y-69500000D01*
%TO.N,VDD*%
X131880000Y-80200000D02*
X139500000Y-87820000D01*
X132500000Y-60080000D02*
X131907700Y-60080000D01*
X144000000Y-43800000D02*
X145000000Y-44800000D01*
X145000000Y-47340000D02*
X145987700Y-46352300D01*
X151880000Y-76739749D02*
X151880000Y-75540000D01*
X145000000Y-44800000D02*
X145987700Y-45787700D01*
X124880000Y-57540000D02*
X124880000Y-60080000D01*
X148270000Y-81860000D02*
X148270000Y-81635000D01*
X125827700Y-56592300D02*
X124880000Y-57540000D01*
X156172300Y-45787700D02*
X157120000Y-44840000D01*
X125827700Y-50867700D02*
X125827700Y-54000000D01*
X145947700Y-48287700D02*
X145947700Y-54012300D01*
X148270000Y-81635000D02*
X144230000Y-77595000D01*
X145987700Y-45787700D02*
X156172300Y-45787700D01*
X148270000Y-80349749D02*
X151880000Y-76739749D01*
X142535000Y-87820000D02*
X148270000Y-82085000D01*
X145987700Y-46352300D02*
X145987700Y-45787700D01*
X139500000Y-87820000D02*
X142535000Y-87820000D01*
X131907700Y-60080000D02*
X125827700Y-54000000D01*
X144230000Y-77595000D02*
X144230000Y-73640000D01*
X148270000Y-81860000D02*
X148270000Y-80349749D01*
X144000000Y-40000000D02*
X144000000Y-43800000D01*
X145947700Y-54012300D02*
X145000000Y-54960000D01*
X124880000Y-49920000D02*
X125827700Y-50867700D01*
X125827700Y-54000000D02*
X125827700Y-56592300D01*
X148270000Y-82085000D02*
X148270000Y-81860000D01*
X145000000Y-47340000D02*
X145947700Y-48287700D01*
%TO.N,Net-(Q1-B)*%
X150730000Y-66770000D02*
X145500000Y-66770000D01*
X151880000Y-67920000D02*
X150730000Y-66770000D01*
%TO.N,Net-(Q1-E)*%
X147920000Y-70460000D02*
X145500000Y-68040000D01*
X151880000Y-70460000D02*
X147920000Y-70460000D01*
X140040000Y-68040000D02*
X139000000Y-67000000D01*
X145500000Y-68040000D02*
X140040000Y-68040000D01*
%TO.N,Net-(Q2-B)*%
X145500000Y-74245000D02*
X145500000Y-73640000D01*
%TO.N,Net-(U1-1Y)*%
X161500000Y-46880251D02*
X157512551Y-50867700D01*
X150447700Y-50867700D02*
X149500000Y-49920000D01*
X157512551Y-50867700D02*
X150447700Y-50867700D01*
X161500000Y-43920000D02*
X161500000Y-46880251D01*
%TO.N,Net-(U1-1B)*%
X147014315Y-49865685D02*
X147014315Y-55485685D01*
X147014315Y-55485685D02*
X145000000Y-57500000D01*
X149500000Y-47380000D02*
X147014315Y-49865685D01*
%TO.N,Net-(U3-\u002A2Q)*%
X144052300Y-50827700D02*
X144052300Y-59092300D01*
X144052300Y-59092300D02*
X145000000Y-60040000D01*
X145000000Y-49880000D02*
X144052300Y-50827700D01*
%TO.N,Net-(U4-1CP)*%
X132500000Y-55000000D02*
X124880000Y-47380000D01*
%TO.N,Net-(U4-\u002A2Q)*%
X123932300Y-45787700D02*
X123932300Y-54052300D01*
X124880000Y-44840000D02*
X123932300Y-45787700D01*
X123932300Y-54052300D02*
X124880000Y-55000000D01*
%TO.N,Net-(U4-\u002A1Q)*%
X132500000Y-47380000D02*
X133447700Y-48327700D01*
X133447700Y-56592300D02*
X132500000Y-57540000D01*
X133447700Y-48327700D02*
X133447700Y-56592300D01*
%TD*%
%TA.AperFunction,NonConductor*%
G36*
X168942539Y-37520185D02*
G01*
X168988294Y-37572989D01*
X168999500Y-37624500D01*
X168999500Y-90375500D01*
X168979815Y-90442539D01*
X168927011Y-90488294D01*
X168875500Y-90499500D01*
X119124500Y-90499500D01*
X119057461Y-90479815D01*
X119011706Y-90427011D01*
X119000500Y-90375500D01*
X119000500Y-69499998D01*
X122194532Y-69499998D01*
X122194532Y-69500001D01*
X122214364Y-69726686D01*
X122214366Y-69726697D01*
X122273258Y-69946488D01*
X122273261Y-69946497D01*
X122369431Y-70152732D01*
X122369432Y-70152734D01*
X122499954Y-70339141D01*
X122660858Y-70500045D01*
X122660861Y-70500047D01*
X122846624Y-70630118D01*
X122890248Y-70684693D01*
X122899500Y-70731692D01*
X122899500Y-79913330D01*
X122899499Y-79913348D01*
X122899499Y-80079054D01*
X122899498Y-80079054D01*
X122899499Y-80079057D01*
X122940423Y-80231785D01*
X122962886Y-80270692D01*
X123019477Y-80368712D01*
X123019481Y-80368717D01*
X123138349Y-80487585D01*
X123138355Y-80487590D01*
X123308920Y-80658155D01*
X123342405Y-80719478D01*
X123340581Y-80777439D01*
X123340618Y-80777446D01*
X123340574Y-80777679D01*
X123340509Y-80779757D01*
X123339566Y-80783072D01*
X123339564Y-80783078D01*
X123319464Y-80999999D01*
X123319464Y-81000000D01*
X123339564Y-81216918D01*
X123339564Y-81216920D01*
X123339565Y-81216923D01*
X123371900Y-81330568D01*
X123399184Y-81426462D01*
X123455823Y-81540208D01*
X123496288Y-81621472D01*
X123577562Y-81729097D01*
X123577747Y-81729341D01*
X123602439Y-81794702D01*
X123587874Y-81863037D01*
X123553105Y-81903334D01*
X123467452Y-81967455D01*
X123381206Y-82082664D01*
X123381202Y-82082671D01*
X123330908Y-82217517D01*
X123328514Y-82239789D01*
X123324501Y-82277123D01*
X123324500Y-82277135D01*
X123324500Y-83722870D01*
X123324501Y-83722876D01*
X123330908Y-83782483D01*
X123381202Y-83917328D01*
X123381206Y-83917335D01*
X123467452Y-84032544D01*
X123467455Y-84032547D01*
X123582664Y-84118793D01*
X123582671Y-84118797D01*
X123717517Y-84169091D01*
X123717516Y-84169091D01*
X123724444Y-84169835D01*
X123777127Y-84175500D01*
X125222872Y-84175499D01*
X125282483Y-84169091D01*
X125417331Y-84118796D01*
X125532546Y-84032546D01*
X125618796Y-83917331D01*
X125669091Y-83782483D01*
X125675500Y-83722873D01*
X125675499Y-82277128D01*
X125669091Y-82217517D01*
X125657337Y-82186004D01*
X125618797Y-82082671D01*
X125618793Y-82082664D01*
X125532547Y-81967455D01*
X125532544Y-81967452D01*
X125446895Y-81903335D01*
X125405024Y-81847402D01*
X125400040Y-81777710D01*
X125422251Y-81729344D01*
X125503712Y-81621472D01*
X125600817Y-81426459D01*
X125660435Y-81216923D01*
X125680536Y-81000000D01*
X125660435Y-80783077D01*
X125600817Y-80573541D01*
X125503712Y-80378528D01*
X125372427Y-80204678D01*
X125371074Y-80203445D01*
X125234624Y-80079054D01*
X125211432Y-80057912D01*
X125211428Y-80057909D01*
X125211423Y-80057906D01*
X125026213Y-79943229D01*
X125026207Y-79943226D01*
X124941113Y-79910260D01*
X124823069Y-79864530D01*
X124608926Y-79824500D01*
X124391074Y-79824500D01*
X124391073Y-79824500D01*
X124272210Y-79846718D01*
X124202695Y-79839686D01*
X124161746Y-79812510D01*
X124136819Y-79787583D01*
X124103334Y-79726260D01*
X124100500Y-79699902D01*
X124100500Y-70731692D01*
X124120185Y-70664653D01*
X124153374Y-70630119D01*
X124339139Y-70500047D01*
X124500047Y-70339139D01*
X124630568Y-70152734D01*
X124726739Y-69946496D01*
X124785635Y-69726692D01*
X124805468Y-69500000D01*
X124785635Y-69273308D01*
X124759847Y-69177066D01*
X124761510Y-69107217D01*
X124791939Y-69057294D01*
X125616004Y-68233230D01*
X125677326Y-68199746D01*
X125698626Y-68201269D01*
X125697228Y-68194839D01*
X125721645Y-68129374D01*
X125733226Y-68116007D01*
X126212416Y-67636819D01*
X126273739Y-67603334D01*
X126300097Y-67600500D01*
X130148308Y-67600500D01*
X130215347Y-67620185D01*
X130249880Y-67653374D01*
X130311147Y-67740873D01*
X130379954Y-67839141D01*
X130540858Y-68000045D01*
X130540861Y-68000047D01*
X130726624Y-68130118D01*
X130770248Y-68184693D01*
X130779500Y-68231692D01*
X130779500Y-71793330D01*
X130779499Y-71793348D01*
X130779499Y-71959054D01*
X130779498Y-71959054D01*
X130820423Y-72111786D01*
X130820424Y-72111787D01*
X130836807Y-72140163D01*
X130899481Y-72248717D01*
X131018349Y-72367585D01*
X131018355Y-72367590D01*
X134708058Y-76057293D01*
X134741543Y-76118616D01*
X134740152Y-76177067D01*
X134714366Y-76273302D01*
X134714364Y-76273313D01*
X134694532Y-76499998D01*
X134694532Y-76500001D01*
X134714364Y-76726686D01*
X134714366Y-76726697D01*
X134773258Y-76946488D01*
X134773261Y-76946497D01*
X134869431Y-77152732D01*
X134869432Y-77152734D01*
X134999954Y-77339141D01*
X135160858Y-77500045D01*
X135160861Y-77500047D01*
X135347266Y-77630568D01*
X135553504Y-77726739D01*
X135773308Y-77785635D01*
X135935230Y-77799801D01*
X135999998Y-77805468D01*
X136000000Y-77805468D01*
X136000002Y-77805468D01*
X136056673Y-77800509D01*
X136226692Y-77785635D01*
X136322932Y-77759847D01*
X136392781Y-77761510D01*
X136442706Y-77791941D01*
X137376417Y-78725652D01*
X137409902Y-78786975D01*
X137404918Y-78856667D01*
X137363046Y-78912600D01*
X137297582Y-78937017D01*
X137256643Y-78933108D01*
X137186697Y-78914366D01*
X137186693Y-78914365D01*
X137186692Y-78914365D01*
X137186691Y-78914364D01*
X137186686Y-78914364D01*
X136960002Y-78894532D01*
X136959998Y-78894532D01*
X136733313Y-78914364D01*
X136733302Y-78914366D01*
X136513511Y-78973258D01*
X136513502Y-78973261D01*
X136307267Y-79069431D01*
X136307265Y-79069432D01*
X136120858Y-79199954D01*
X135959954Y-79360858D01*
X135829432Y-79547265D01*
X135829431Y-79547267D01*
X135802382Y-79605275D01*
X135756209Y-79657714D01*
X135689016Y-79676866D01*
X135622135Y-79656650D01*
X135577618Y-79605275D01*
X135569455Y-79587770D01*
X135550568Y-79547266D01*
X135420047Y-79360861D01*
X135420045Y-79360858D01*
X135259141Y-79199954D01*
X135072734Y-79069432D01*
X135072732Y-79069431D01*
X134866497Y-78973261D01*
X134866488Y-78973258D01*
X134646697Y-78914366D01*
X134646693Y-78914365D01*
X134646692Y-78914365D01*
X134646691Y-78914364D01*
X134646686Y-78914364D01*
X134420002Y-78894532D01*
X134419998Y-78894532D01*
X134193313Y-78914364D01*
X134193302Y-78914366D01*
X133973511Y-78973258D01*
X133973502Y-78973261D01*
X133767267Y-79069431D01*
X133767265Y-79069432D01*
X133580858Y-79199954D01*
X133419954Y-79360858D01*
X133289432Y-79547265D01*
X133289431Y-79547267D01*
X133262382Y-79605275D01*
X133216209Y-79657714D01*
X133149016Y-79676866D01*
X133082135Y-79656650D01*
X133037618Y-79605275D01*
X133029455Y-79587770D01*
X133010568Y-79547266D01*
X132880047Y-79360861D01*
X132880045Y-79360858D01*
X132719141Y-79199954D01*
X132532734Y-79069432D01*
X132532732Y-79069431D01*
X132326497Y-78973261D01*
X132326488Y-78973258D01*
X132106697Y-78914366D01*
X132106693Y-78914365D01*
X132106692Y-78914365D01*
X132106691Y-78914364D01*
X132106686Y-78914364D01*
X131880002Y-78894532D01*
X131879998Y-78894532D01*
X131653313Y-78914364D01*
X131653302Y-78914366D01*
X131433511Y-78973258D01*
X131433502Y-78973261D01*
X131227267Y-79069431D01*
X131227265Y-79069432D01*
X131040858Y-79199954D01*
X130879954Y-79360858D01*
X130749432Y-79547265D01*
X130749431Y-79547267D01*
X130653261Y-79753502D01*
X130653258Y-79753511D01*
X130594366Y-79973302D01*
X130594364Y-79973313D01*
X130574532Y-80199998D01*
X130574532Y-80200001D01*
X130594364Y-80426686D01*
X130594366Y-80426697D01*
X130653258Y-80646488D01*
X130653261Y-80646497D01*
X130749431Y-80852732D01*
X130749432Y-80852734D01*
X130879954Y-81039141D01*
X131040858Y-81200045D01*
X131064963Y-81216923D01*
X131227266Y-81330568D01*
X131433504Y-81426739D01*
X131653308Y-81485635D01*
X131795361Y-81498063D01*
X131879998Y-81505468D01*
X131880000Y-81505468D01*
X131880002Y-81505468D01*
X131936807Y-81500498D01*
X132106692Y-81485635D01*
X132202932Y-81459847D01*
X132272781Y-81461510D01*
X132322706Y-81491941D01*
X137141336Y-86310571D01*
X137174821Y-86371894D01*
X137169837Y-86441586D01*
X137127965Y-86497519D01*
X137062501Y-86521936D01*
X137042848Y-86521780D01*
X136960002Y-86514532D01*
X136959998Y-86514532D01*
X136733313Y-86534364D01*
X136733302Y-86534366D01*
X136513511Y-86593258D01*
X136513502Y-86593261D01*
X136307267Y-86689431D01*
X136307265Y-86689432D01*
X136120858Y-86819954D01*
X135959954Y-86980858D01*
X135883450Y-87090118D01*
X135829881Y-87166624D01*
X135775307Y-87210248D01*
X135728308Y-87219500D01*
X135651692Y-87219500D01*
X135584653Y-87199815D01*
X135550119Y-87166625D01*
X135420047Y-86980861D01*
X135420045Y-86980858D01*
X135259141Y-86819954D01*
X135072734Y-86689432D01*
X135072732Y-86689431D01*
X134866497Y-86593261D01*
X134866488Y-86593258D01*
X134646697Y-86534366D01*
X134646693Y-86534365D01*
X134646692Y-86534365D01*
X134646691Y-86534364D01*
X134646686Y-86534364D01*
X134420002Y-86514532D01*
X134419998Y-86514532D01*
X134193313Y-86534364D01*
X134193302Y-86534366D01*
X133973511Y-86593258D01*
X133973502Y-86593261D01*
X133767267Y-86689431D01*
X133767265Y-86689432D01*
X133580858Y-86819954D01*
X133419954Y-86980858D01*
X133289432Y-87167265D01*
X133289431Y-87167267D01*
X133262382Y-87225275D01*
X133216209Y-87277714D01*
X133149016Y-87296866D01*
X133082135Y-87276650D01*
X133037618Y-87225275D01*
X133034925Y-87219500D01*
X133010568Y-87167266D01*
X132880047Y-86980861D01*
X132880045Y-86980858D01*
X132719141Y-86819954D01*
X132532734Y-86689432D01*
X132532732Y-86689431D01*
X132326497Y-86593261D01*
X132326488Y-86593258D01*
X132106697Y-86534366D01*
X132106693Y-86534365D01*
X132106692Y-86534365D01*
X132106691Y-86534364D01*
X132106686Y-86534364D01*
X131880002Y-86514532D01*
X131879998Y-86514532D01*
X131653313Y-86534364D01*
X131653302Y-86534366D01*
X131557067Y-86560152D01*
X131487217Y-86558489D01*
X131437293Y-86528058D01*
X127636819Y-82727584D01*
X127603334Y-82666261D01*
X127600500Y-82639903D01*
X127600500Y-70924499D01*
X127620185Y-70857460D01*
X127672989Y-70811705D01*
X127724500Y-70800499D01*
X127847871Y-70800499D01*
X127847872Y-70800499D01*
X127907483Y-70794091D01*
X128042331Y-70743796D01*
X128157546Y-70657546D01*
X128243796Y-70542331D01*
X128294091Y-70407483D01*
X128300500Y-70347873D01*
X128300499Y-68652128D01*
X128294091Y-68592517D01*
X128269669Y-68527039D01*
X128243797Y-68457671D01*
X128243793Y-68457664D01*
X128157547Y-68342455D01*
X128157544Y-68342452D01*
X128042335Y-68256206D01*
X128042328Y-68256202D01*
X127907482Y-68205908D01*
X127907483Y-68205908D01*
X127847883Y-68199501D01*
X127847881Y-68199500D01*
X127847873Y-68199500D01*
X127847864Y-68199500D01*
X126152129Y-68199500D01*
X126152123Y-68199501D01*
X126092516Y-68205908D01*
X125957671Y-68256202D01*
X125957669Y-68256204D01*
X125895223Y-68302951D01*
X125829759Y-68327368D01*
X125824297Y-68326179D01*
X125812516Y-68380339D01*
X125802951Y-68395223D01*
X125756204Y-68457669D01*
X125756202Y-68457671D01*
X125705908Y-68592517D01*
X125700750Y-68640499D01*
X125699501Y-68652123D01*
X125699500Y-68652135D01*
X125699500Y-70347870D01*
X125699501Y-70347876D01*
X125705908Y-70407483D01*
X125756202Y-70542328D01*
X125756206Y-70542335D01*
X125842452Y-70657544D01*
X125842455Y-70657547D01*
X125957664Y-70743793D01*
X125957671Y-70743797D01*
X126002618Y-70760561D01*
X126092517Y-70794091D01*
X126152127Y-70800500D01*
X126275500Y-70800499D01*
X126342539Y-70820183D01*
X126388294Y-70872987D01*
X126399500Y-70924499D01*
X126399500Y-82853330D01*
X126399499Y-82853348D01*
X126399499Y-83019054D01*
X126399498Y-83019054D01*
X126440423Y-83171785D01*
X126469358Y-83221900D01*
X126469359Y-83221904D01*
X126469360Y-83221904D01*
X126519479Y-83308714D01*
X126519481Y-83308717D01*
X126638349Y-83427585D01*
X126638355Y-83427590D01*
X130588058Y-87377293D01*
X130621543Y-87438616D01*
X130620152Y-87497067D01*
X130594366Y-87593302D01*
X130594364Y-87593313D01*
X130574532Y-87819998D01*
X130574532Y-87820001D01*
X130594364Y-88046686D01*
X130594366Y-88046697D01*
X130653258Y-88266488D01*
X130653261Y-88266497D01*
X130749431Y-88472732D01*
X130749432Y-88472734D01*
X130879954Y-88659141D01*
X131040858Y-88820045D01*
X131040861Y-88820047D01*
X131227266Y-88950568D01*
X131433504Y-89046739D01*
X131653308Y-89105635D01*
X131815230Y-89119801D01*
X131879998Y-89125468D01*
X131880000Y-89125468D01*
X131880002Y-89125468D01*
X131936673Y-89120509D01*
X132106692Y-89105635D01*
X132326496Y-89046739D01*
X132532734Y-88950568D01*
X132719139Y-88820047D01*
X132880047Y-88659139D01*
X133010568Y-88472734D01*
X133037618Y-88414724D01*
X133083790Y-88362285D01*
X133150983Y-88343133D01*
X133217865Y-88363348D01*
X133262382Y-88414725D01*
X133289429Y-88472728D01*
X133289432Y-88472734D01*
X133419954Y-88659141D01*
X133580858Y-88820045D01*
X133580861Y-88820047D01*
X133767266Y-88950568D01*
X133973504Y-89046739D01*
X134193308Y-89105635D01*
X134355230Y-89119801D01*
X134419998Y-89125468D01*
X134420000Y-89125468D01*
X134420002Y-89125468D01*
X134476673Y-89120509D01*
X134646692Y-89105635D01*
X134866496Y-89046739D01*
X135072734Y-88950568D01*
X135259139Y-88820047D01*
X135420047Y-88659139D01*
X135550118Y-88473375D01*
X135604693Y-88429752D01*
X135651692Y-88420500D01*
X135728308Y-88420500D01*
X135795347Y-88440185D01*
X135829880Y-88473374D01*
X135915480Y-88595624D01*
X135959954Y-88659141D01*
X136120858Y-88820045D01*
X136120861Y-88820047D01*
X136307266Y-88950568D01*
X136513504Y-89046739D01*
X136733308Y-89105635D01*
X136895230Y-89119801D01*
X136959998Y-89125468D01*
X136960000Y-89125468D01*
X136960002Y-89125468D01*
X137016673Y-89120509D01*
X137186692Y-89105635D01*
X137406496Y-89046739D01*
X137612734Y-88950568D01*
X137799139Y-88820047D01*
X137960047Y-88659139D01*
X138090568Y-88472734D01*
X138117618Y-88414724D01*
X138163790Y-88362285D01*
X138230983Y-88343133D01*
X138297865Y-88363348D01*
X138342382Y-88414725D01*
X138369429Y-88472728D01*
X138369432Y-88472734D01*
X138499954Y-88659141D01*
X138660858Y-88820045D01*
X138660861Y-88820047D01*
X138847266Y-88950568D01*
X139053504Y-89046739D01*
X139273308Y-89105635D01*
X139435230Y-89119801D01*
X139499998Y-89125468D01*
X139500000Y-89125468D01*
X139500002Y-89125468D01*
X139556673Y-89120509D01*
X139726692Y-89105635D01*
X139946496Y-89046739D01*
X140152734Y-88950568D01*
X140339139Y-88820047D01*
X140500047Y-88659139D01*
X140630118Y-88473375D01*
X140684693Y-88429752D01*
X140731692Y-88420500D01*
X142448331Y-88420500D01*
X142448347Y-88420501D01*
X142455943Y-88420501D01*
X142614054Y-88420501D01*
X142614057Y-88420501D01*
X142766785Y-88379577D01*
X142816904Y-88350639D01*
X142903716Y-88300520D01*
X143015520Y-88188716D01*
X143015520Y-88188714D01*
X143025728Y-88178507D01*
X143025729Y-88178504D01*
X148059356Y-83144878D01*
X148120677Y-83111395D01*
X148162822Y-83111018D01*
X148162932Y-83109903D01*
X148168995Y-83110500D01*
X148168997Y-83110500D01*
X148371004Y-83110500D01*
X148371005Y-83110499D01*
X148569127Y-83071091D01*
X148755756Y-82993786D01*
X148923718Y-82881558D01*
X149066558Y-82738718D01*
X149178786Y-82570756D01*
X149256091Y-82384127D01*
X149295500Y-82186003D01*
X149295500Y-81533997D01*
X149256091Y-81335873D01*
X149178786Y-81149244D01*
X149178784Y-81149241D01*
X149178782Y-81149237D01*
X149066558Y-80981281D01*
X148923721Y-80838444D01*
X148919010Y-80834578D01*
X148920156Y-80833181D01*
X148880802Y-80786088D01*
X148870500Y-80736603D01*
X148870500Y-80649845D01*
X148890185Y-80582806D01*
X148906814Y-80562169D01*
X150748217Y-78720765D01*
X150809538Y-78687282D01*
X150879230Y-78692266D01*
X150934850Y-78733720D01*
X151027838Y-78856855D01*
X151185090Y-79000208D01*
X151185092Y-79000210D01*
X151366007Y-79112228D01*
X151366013Y-79112231D01*
X151408048Y-79128515D01*
X151564434Y-79189099D01*
X151773129Y-79228111D01*
X151835410Y-79259779D01*
X151870683Y-79320092D01*
X151867749Y-79389900D01*
X151827540Y-79447040D01*
X151773129Y-79471888D01*
X151564434Y-79510901D01*
X151564431Y-79510901D01*
X151564431Y-79510902D01*
X151366013Y-79587768D01*
X151366007Y-79587771D01*
X151185092Y-79699789D01*
X151185090Y-79699791D01*
X151027836Y-79843147D01*
X150899596Y-80012962D01*
X150804750Y-80203439D01*
X150804750Y-80203440D01*
X150746514Y-80408115D01*
X150726881Y-80619999D01*
X150726881Y-80620000D01*
X150746514Y-80831884D01*
X150804750Y-81036559D01*
X150804750Y-81036560D01*
X150899596Y-81227037D01*
X151027836Y-81396852D01*
X151185090Y-81540208D01*
X151185092Y-81540210D01*
X151366007Y-81652228D01*
X151366013Y-81652231D01*
X151408048Y-81668515D01*
X151564434Y-81729099D01*
X151773129Y-81768111D01*
X151835410Y-81799779D01*
X151870683Y-81860092D01*
X151867749Y-81929900D01*
X151827540Y-81987040D01*
X151773129Y-82011888D01*
X151564434Y-82050901D01*
X151564431Y-82050901D01*
X151564431Y-82050902D01*
X151366013Y-82127768D01*
X151366007Y-82127771D01*
X151185092Y-82239789D01*
X151185090Y-82239791D01*
X151027836Y-82383147D01*
X150899596Y-82552962D01*
X150804750Y-82743439D01*
X150804750Y-82743440D01*
X150746514Y-82948115D01*
X150726881Y-83159999D01*
X150726881Y-83160000D01*
X150746514Y-83371884D01*
X150804750Y-83576559D01*
X150804750Y-83576560D01*
X150899596Y-83767037D01*
X151027836Y-83936852D01*
X151185090Y-84080208D01*
X151185092Y-84080210D01*
X151366007Y-84192228D01*
X151366013Y-84192231D01*
X151408048Y-84208515D01*
X151564434Y-84269099D01*
X151773604Y-84308200D01*
X151773606Y-84308200D01*
X151986394Y-84308200D01*
X151986396Y-84308200D01*
X152195566Y-84269099D01*
X152393989Y-84192230D01*
X152574909Y-84080209D01*
X152732165Y-83936851D01*
X152860402Y-83767039D01*
X152882389Y-83722883D01*
X152955249Y-83576560D01*
X152955249Y-83576559D01*
X152955248Y-83576559D01*
X152955251Y-83576555D01*
X153013485Y-83371885D01*
X153033119Y-83160000D01*
X153024880Y-83071092D01*
X153013485Y-82948115D01*
X152986231Y-82852328D01*
X152955251Y-82743445D01*
X152955249Y-82743440D01*
X152955249Y-82743439D01*
X152860403Y-82552962D01*
X152817656Y-82496357D01*
X152732165Y-82383149D01*
X152574909Y-82239791D01*
X152574907Y-82239789D01*
X152393992Y-82127771D01*
X152393986Y-82127768D01*
X152237603Y-82067186D01*
X152195566Y-82050901D01*
X151986868Y-82011888D01*
X151924589Y-81980221D01*
X151889316Y-81919908D01*
X151892250Y-81850100D01*
X151932459Y-81792960D01*
X151986868Y-81768111D01*
X152195566Y-81729099D01*
X152393989Y-81652230D01*
X152574909Y-81540209D01*
X152732165Y-81396851D01*
X152860402Y-81227039D01*
X152899139Y-81149244D01*
X152955249Y-81036560D01*
X152955249Y-81036559D01*
X152955248Y-81036559D01*
X152955251Y-81036555D01*
X153013485Y-80831885D01*
X153033119Y-80620000D01*
X153029672Y-80582806D01*
X153013485Y-80408115D01*
X152955251Y-80203445D01*
X152955249Y-80203440D01*
X152955249Y-80203439D01*
X152860403Y-80012962D01*
X152785177Y-79913348D01*
X152732165Y-79843149D01*
X152574909Y-79699791D01*
X152574907Y-79699789D01*
X152393992Y-79587771D01*
X152393986Y-79587768D01*
X152237603Y-79527186D01*
X152195566Y-79510901D01*
X151986868Y-79471888D01*
X151924589Y-79440221D01*
X151889316Y-79379908D01*
X151892250Y-79310100D01*
X151932459Y-79252960D01*
X151986868Y-79228111D01*
X152195566Y-79189099D01*
X152393989Y-79112230D01*
X152574909Y-79000209D01*
X152732165Y-78856851D01*
X152860402Y-78687039D01*
X152955251Y-78496555D01*
X153013485Y-78291885D01*
X153033119Y-78080000D01*
X153013485Y-77868115D01*
X152955251Y-77663445D01*
X152955249Y-77663440D01*
X152955249Y-77663439D01*
X152860403Y-77472962D01*
X152759345Y-77339141D01*
X152732165Y-77303149D01*
X152723118Y-77294902D01*
X152574910Y-77159792D01*
X152574909Y-77159791D01*
X152493916Y-77109642D01*
X152447281Y-77057614D01*
X152436177Y-76988632D01*
X152439419Y-76972121D01*
X152439575Y-76971536D01*
X152439577Y-76971534D01*
X152480501Y-76818806D01*
X152480501Y-76660692D01*
X152480501Y-76653097D01*
X152480500Y-76653079D01*
X152480500Y-76587731D01*
X152500185Y-76520692D01*
X152539221Y-76482305D01*
X152574909Y-76460209D01*
X152732165Y-76316851D01*
X152860402Y-76147039D01*
X152955251Y-75956555D01*
X153013485Y-75751885D01*
X153033119Y-75540000D01*
X153017313Y-75369431D01*
X153013485Y-75328115D01*
X153011806Y-75322213D01*
X152955251Y-75123445D01*
X152955249Y-75123440D01*
X152955249Y-75123439D01*
X152860403Y-74932962D01*
X152785516Y-74833797D01*
X152732165Y-74763149D01*
X152715050Y-74747547D01*
X152574909Y-74619791D01*
X152574907Y-74619789D01*
X152393992Y-74507771D01*
X152393986Y-74507768D01*
X152237603Y-74447186D01*
X152195566Y-74430901D01*
X151986868Y-74391888D01*
X151924589Y-74360221D01*
X151889316Y-74299908D01*
X151892250Y-74230100D01*
X151932459Y-74172960D01*
X151986868Y-74148111D01*
X152195566Y-74109099D01*
X152393989Y-74032230D01*
X152574909Y-73920209D01*
X152732165Y-73776851D01*
X152860402Y-73607039D01*
X152955251Y-73416555D01*
X153013485Y-73211885D01*
X153033119Y-73000000D01*
X153013485Y-72788115D01*
X153012956Y-72782406D01*
X153015032Y-72782213D01*
X153021117Y-72721907D01*
X153048303Y-72680930D01*
X158166264Y-67562969D01*
X158227585Y-67529486D01*
X158297277Y-67534470D01*
X158353210Y-67576342D01*
X158377627Y-67641806D01*
X158373210Y-67684585D01*
X158366514Y-67708117D01*
X158346881Y-67919999D01*
X158346881Y-67920000D01*
X158366514Y-68131884D01*
X158424750Y-68336559D01*
X158424750Y-68336560D01*
X158519596Y-68527037D01*
X158586464Y-68615583D01*
X158645471Y-68693721D01*
X158647836Y-68696852D01*
X158805090Y-68840208D01*
X158805092Y-68840210D01*
X158986007Y-68952228D01*
X158986013Y-68952231D01*
X159028048Y-68968515D01*
X159184434Y-69029099D01*
X159393129Y-69068111D01*
X159455410Y-69099779D01*
X159490683Y-69160092D01*
X159487749Y-69229900D01*
X159447540Y-69287040D01*
X159393129Y-69311888D01*
X159184434Y-69350901D01*
X159184431Y-69350901D01*
X159184431Y-69350902D01*
X158986013Y-69427768D01*
X158986007Y-69427771D01*
X158805092Y-69539789D01*
X158805090Y-69539791D01*
X158647836Y-69683147D01*
X158519596Y-69852962D01*
X158424750Y-70043439D01*
X158424750Y-70043440D01*
X158366514Y-70248115D01*
X158346881Y-70459999D01*
X158346881Y-70460000D01*
X158366514Y-70671884D01*
X158424750Y-70876559D01*
X158424750Y-70876560D01*
X158519596Y-71067037D01*
X158647836Y-71236852D01*
X158805090Y-71380208D01*
X158805092Y-71380210D01*
X158986007Y-71492228D01*
X158986013Y-71492231D01*
X159028048Y-71508515D01*
X159184434Y-71569099D01*
X159393129Y-71608111D01*
X159455410Y-71639779D01*
X159490683Y-71700092D01*
X159487749Y-71769900D01*
X159447540Y-71827040D01*
X159393129Y-71851888D01*
X159184434Y-71890901D01*
X159184431Y-71890901D01*
X159184431Y-71890902D01*
X158986013Y-71967768D01*
X158986007Y-71967771D01*
X158805092Y-72079789D01*
X158805090Y-72079791D01*
X158647836Y-72223147D01*
X158519596Y-72392962D01*
X158424750Y-72583439D01*
X158424750Y-72583440D01*
X158366514Y-72788115D01*
X158346881Y-72999999D01*
X158346881Y-73000000D01*
X158366514Y-73211884D01*
X158424750Y-73416559D01*
X158424750Y-73416560D01*
X158519596Y-73607037D01*
X158647836Y-73776852D01*
X158805090Y-73920208D01*
X158805092Y-73920210D01*
X158986007Y-74032228D01*
X158986013Y-74032231D01*
X159028048Y-74048515D01*
X159184434Y-74109099D01*
X159393129Y-74148111D01*
X159455410Y-74179779D01*
X159490683Y-74240092D01*
X159487749Y-74309900D01*
X159447540Y-74367040D01*
X159393129Y-74391888D01*
X159184434Y-74430901D01*
X159184431Y-74430901D01*
X159184431Y-74430902D01*
X158986013Y-74507768D01*
X158986007Y-74507771D01*
X158805092Y-74619789D01*
X158805090Y-74619791D01*
X158647836Y-74763147D01*
X158519596Y-74932962D01*
X158424750Y-75123439D01*
X158424750Y-75123440D01*
X158366514Y-75328115D01*
X158346881Y-75539999D01*
X158346881Y-75540000D01*
X158366514Y-75751884D01*
X158424750Y-75956559D01*
X158424750Y-75956560D01*
X158519596Y-76147037D01*
X158647836Y-76316852D01*
X158805090Y-76460208D01*
X158805092Y-76460210D01*
X158986007Y-76572228D01*
X158986013Y-76572231D01*
X159026024Y-76587731D01*
X159184434Y-76649099D01*
X159393129Y-76688111D01*
X159455410Y-76719779D01*
X159490683Y-76780092D01*
X159487749Y-76849900D01*
X159447540Y-76907040D01*
X159393129Y-76931888D01*
X159184434Y-76970901D01*
X159184431Y-76970901D01*
X159184431Y-76970902D01*
X158986013Y-77047768D01*
X158986007Y-77047771D01*
X158805092Y-77159789D01*
X158805090Y-77159791D01*
X158647836Y-77303147D01*
X158519596Y-77472962D01*
X158424750Y-77663439D01*
X158424750Y-77663440D01*
X158366515Y-77868114D01*
X158346881Y-78079999D01*
X158346881Y-78080000D01*
X158366514Y-78291884D01*
X158424750Y-78496559D01*
X158424750Y-78496560D01*
X158519596Y-78687037D01*
X158523545Y-78692266D01*
X158647835Y-78856851D01*
X158775530Y-78973261D01*
X158805090Y-79000208D01*
X158805092Y-79000210D01*
X158986007Y-79112228D01*
X158986013Y-79112231D01*
X159028048Y-79128515D01*
X159184434Y-79189099D01*
X159393129Y-79228111D01*
X159455410Y-79259779D01*
X159490683Y-79320092D01*
X159487749Y-79389900D01*
X159447540Y-79447040D01*
X159393129Y-79471888D01*
X159184434Y-79510901D01*
X159184431Y-79510901D01*
X159184431Y-79510902D01*
X158986013Y-79587768D01*
X158986007Y-79587771D01*
X158805092Y-79699789D01*
X158805090Y-79699791D01*
X158647836Y-79843147D01*
X158519596Y-80012962D01*
X158424750Y-80203439D01*
X158424750Y-80203440D01*
X158366514Y-80408115D01*
X158346881Y-80619999D01*
X158346881Y-80620000D01*
X158366514Y-80831884D01*
X158424750Y-81036559D01*
X158424750Y-81036560D01*
X158519596Y-81227037D01*
X158647836Y-81396852D01*
X158805090Y-81540208D01*
X158805092Y-81540210D01*
X158986007Y-81652228D01*
X158986013Y-81652231D01*
X159028048Y-81668515D01*
X159184434Y-81729099D01*
X159393129Y-81768111D01*
X159455410Y-81799779D01*
X159490683Y-81860092D01*
X159487749Y-81929900D01*
X159447540Y-81987040D01*
X159393129Y-82011888D01*
X159184434Y-82050901D01*
X159184431Y-82050901D01*
X159184431Y-82050902D01*
X158986013Y-82127768D01*
X158986007Y-82127771D01*
X158805092Y-82239789D01*
X158805090Y-82239791D01*
X158647836Y-82383147D01*
X158519596Y-82552962D01*
X158424750Y-82743439D01*
X158424750Y-82743440D01*
X158366514Y-82948115D01*
X158346881Y-83159999D01*
X158346881Y-83160000D01*
X158366514Y-83371884D01*
X158424750Y-83576559D01*
X158424750Y-83576560D01*
X158519596Y-83767037D01*
X158647836Y-83936852D01*
X158805090Y-84080208D01*
X158805092Y-84080210D01*
X158986007Y-84192228D01*
X158986013Y-84192231D01*
X159028048Y-84208515D01*
X159184434Y-84269099D01*
X159393604Y-84308200D01*
X159393606Y-84308200D01*
X159606394Y-84308200D01*
X159606396Y-84308200D01*
X159815566Y-84269099D01*
X160013989Y-84192230D01*
X160194909Y-84080209D01*
X160352165Y-83936851D01*
X160480402Y-83767039D01*
X160502389Y-83722883D01*
X160575249Y-83576560D01*
X160575249Y-83576559D01*
X160575248Y-83576559D01*
X160575251Y-83576555D01*
X160633485Y-83371885D01*
X160653119Y-83160000D01*
X160644880Y-83071092D01*
X160633485Y-82948115D01*
X160606231Y-82852328D01*
X160575251Y-82743445D01*
X160575249Y-82743440D01*
X160575249Y-82743439D01*
X160480403Y-82552962D01*
X160437656Y-82496357D01*
X160352165Y-82383149D01*
X160194909Y-82239791D01*
X160194907Y-82239789D01*
X160013992Y-82127771D01*
X160013986Y-82127768D01*
X159857603Y-82067186D01*
X159815566Y-82050901D01*
X159606868Y-82011888D01*
X159544589Y-81980221D01*
X159509316Y-81919908D01*
X159512250Y-81850100D01*
X159552459Y-81792960D01*
X159606868Y-81768111D01*
X159815566Y-81729099D01*
X160013989Y-81652230D01*
X160194909Y-81540209D01*
X160352165Y-81396851D01*
X160480402Y-81227039D01*
X160519139Y-81149244D01*
X160575249Y-81036560D01*
X160575249Y-81036559D01*
X160575248Y-81036559D01*
X160575251Y-81036555D01*
X160633485Y-80831885D01*
X160653119Y-80620000D01*
X160649672Y-80582806D01*
X160633485Y-80408115D01*
X160575251Y-80203445D01*
X160575249Y-80203440D01*
X160575249Y-80203439D01*
X160480403Y-80012962D01*
X160405177Y-79913348D01*
X160352165Y-79843149D01*
X160194909Y-79699791D01*
X160194907Y-79699789D01*
X160013992Y-79587771D01*
X160013986Y-79587768D01*
X159857603Y-79527186D01*
X159815566Y-79510901D01*
X159606868Y-79471888D01*
X159544589Y-79440221D01*
X159509316Y-79379908D01*
X159512250Y-79310100D01*
X159552459Y-79252960D01*
X159606868Y-79228111D01*
X159815566Y-79189099D01*
X160013989Y-79112230D01*
X160194909Y-79000209D01*
X160352165Y-78856851D01*
X160480402Y-78687039D01*
X160575251Y-78496555D01*
X160633485Y-78291885D01*
X160653119Y-78080000D01*
X160633485Y-77868115D01*
X160575251Y-77663445D01*
X160575249Y-77663440D01*
X160575249Y-77663439D01*
X160480403Y-77472962D01*
X160379345Y-77339141D01*
X160352165Y-77303149D01*
X160343118Y-77294902D01*
X160194909Y-77159791D01*
X160194907Y-77159789D01*
X160013992Y-77047771D01*
X160013986Y-77047768D01*
X159818715Y-76972121D01*
X159815566Y-76970901D01*
X159606868Y-76931888D01*
X159544589Y-76900221D01*
X159509316Y-76839908D01*
X159512250Y-76770100D01*
X159552459Y-76712960D01*
X159606868Y-76688111D01*
X159815566Y-76649099D01*
X160013989Y-76572230D01*
X160194909Y-76460209D01*
X160352165Y-76316851D01*
X160480402Y-76147039D01*
X160575251Y-75956555D01*
X160633485Y-75751885D01*
X160653119Y-75540000D01*
X160637313Y-75369431D01*
X160632956Y-75322406D01*
X160635032Y-75322213D01*
X160641117Y-75261907D01*
X160668302Y-75220931D01*
X165477869Y-70411367D01*
X165556926Y-70274435D01*
X165597850Y-70121708D01*
X165597850Y-69963593D01*
X165597850Y-69955998D01*
X165597849Y-69955980D01*
X165597849Y-62231692D01*
X165617534Y-62164653D01*
X165650723Y-62130119D01*
X165836488Y-62000047D01*
X165997396Y-61839139D01*
X166127917Y-61652734D01*
X166224088Y-61446496D01*
X166282984Y-61226692D01*
X166302817Y-61000000D01*
X166282984Y-60773308D01*
X166224088Y-60553504D01*
X166127917Y-60347266D01*
X165997396Y-60160861D01*
X165997394Y-60160858D01*
X165836490Y-59999954D01*
X165650083Y-59869432D01*
X165650081Y-59869431D01*
X165443846Y-59773261D01*
X165443837Y-59773258D01*
X165224046Y-59714366D01*
X165224042Y-59714365D01*
X165224041Y-59714365D01*
X165224040Y-59714364D01*
X165224035Y-59714364D01*
X164997351Y-59694532D01*
X164997347Y-59694532D01*
X164770662Y-59714364D01*
X164770651Y-59714366D01*
X164550860Y-59773258D01*
X164550851Y-59773261D01*
X164344616Y-59869431D01*
X164344614Y-59869432D01*
X164158207Y-59999954D01*
X163997303Y-60160858D01*
X163866781Y-60347265D01*
X163866780Y-60347267D01*
X163770610Y-60553502D01*
X163770607Y-60553511D01*
X163711715Y-60773302D01*
X163711713Y-60773313D01*
X163691881Y-60999998D01*
X163691881Y-61000001D01*
X163711713Y-61226686D01*
X163711715Y-61226697D01*
X163770607Y-61446488D01*
X163770610Y-61446497D01*
X163866780Y-61652732D01*
X163866781Y-61652734D01*
X163997303Y-61839141D01*
X164158207Y-62000045D01*
X164158210Y-62000047D01*
X164343973Y-62130118D01*
X164387597Y-62184693D01*
X164396849Y-62231692D01*
X164396849Y-69742553D01*
X164377164Y-69809592D01*
X164360530Y-69830234D01*
X160833738Y-73357025D01*
X160772415Y-73390510D01*
X160702723Y-73385526D01*
X160646790Y-73343654D01*
X160622373Y-73278190D01*
X160626790Y-73235414D01*
X160633485Y-73211885D01*
X160653119Y-73000000D01*
X160633485Y-72788115D01*
X160575251Y-72583445D01*
X160575249Y-72583440D01*
X160575249Y-72583439D01*
X160480403Y-72392962D01*
X160352163Y-72223147D01*
X160194909Y-72079791D01*
X160194907Y-72079789D01*
X160013992Y-71967771D01*
X160013986Y-71967768D01*
X159857603Y-71907186D01*
X159815566Y-71890901D01*
X159606868Y-71851888D01*
X159544589Y-71820221D01*
X159509316Y-71759908D01*
X159512250Y-71690100D01*
X159552459Y-71632960D01*
X159606868Y-71608111D01*
X159815566Y-71569099D01*
X160013989Y-71492230D01*
X160194909Y-71380209D01*
X160352165Y-71236851D01*
X160480402Y-71067039D01*
X160504036Y-71019575D01*
X160575249Y-70876560D01*
X160575249Y-70876559D01*
X160575248Y-70876559D01*
X160575251Y-70876555D01*
X160633485Y-70671885D01*
X160653119Y-70460000D01*
X160648612Y-70411367D01*
X160633485Y-70248115D01*
X160619653Y-70199500D01*
X160575251Y-70043445D01*
X160575249Y-70043440D01*
X160575249Y-70043439D01*
X160480403Y-69852962D01*
X160352163Y-69683147D01*
X160194909Y-69539791D01*
X160194907Y-69539789D01*
X160013992Y-69427771D01*
X160013986Y-69427768D01*
X159857603Y-69367186D01*
X159815566Y-69350901D01*
X159606868Y-69311888D01*
X159544589Y-69280221D01*
X159509316Y-69219908D01*
X159512250Y-69150100D01*
X159552459Y-69092960D01*
X159606868Y-69068111D01*
X159815566Y-69029099D01*
X160013989Y-68952230D01*
X160194909Y-68840209D01*
X160352165Y-68696851D01*
X160480402Y-68527039D01*
X160514944Y-68457669D01*
X160575249Y-68336560D01*
X160575249Y-68336559D01*
X160575248Y-68336559D01*
X160575251Y-68336555D01*
X160633485Y-68131885D01*
X160653119Y-67920000D01*
X160633485Y-67708115D01*
X160575251Y-67503445D01*
X160575249Y-67503440D01*
X160575249Y-67503439D01*
X160480403Y-67312962D01*
X160352163Y-67143147D01*
X160194909Y-66999791D01*
X160194907Y-66999789D01*
X160013992Y-66887771D01*
X160013986Y-66887768D01*
X159857603Y-66827186D01*
X159815566Y-66810901D01*
X159606396Y-66771800D01*
X159393604Y-66771800D01*
X159250768Y-66798501D01*
X159181253Y-66791470D01*
X159126574Y-66747972D01*
X159104092Y-66681818D01*
X159120945Y-66614012D01*
X159140298Y-66588935D01*
X161566062Y-64163172D01*
X161566065Y-64163171D01*
X161677869Y-64051367D01*
X161727988Y-63964555D01*
X161756926Y-63914436D01*
X161797849Y-63761709D01*
X161797849Y-63603594D01*
X161797849Y-62424499D01*
X161817534Y-62357460D01*
X161870338Y-62311705D01*
X161921849Y-62300499D01*
X162045220Y-62300499D01*
X162045221Y-62300499D01*
X162104832Y-62294091D01*
X162239680Y-62243796D01*
X162354895Y-62157546D01*
X162441145Y-62042331D01*
X162491440Y-61907483D01*
X162497849Y-61847873D01*
X162497848Y-60152128D01*
X162491440Y-60092517D01*
X162486771Y-60080000D01*
X162441146Y-59957671D01*
X162441142Y-59957664D01*
X162354896Y-59842455D01*
X162354893Y-59842452D01*
X162239684Y-59756206D01*
X162239677Y-59756202D01*
X162104831Y-59705908D01*
X162104832Y-59705908D01*
X162045232Y-59699501D01*
X162045230Y-59699500D01*
X162045222Y-59699500D01*
X162045214Y-59699500D01*
X161921849Y-59699500D01*
X161854810Y-59679815D01*
X161809055Y-59627011D01*
X161797849Y-59575500D01*
X161797849Y-55441717D01*
X161817534Y-55374678D01*
X161870338Y-55328923D01*
X161889757Y-55321942D01*
X161946486Y-55306742D01*
X161946489Y-55306740D01*
X161946496Y-55306739D01*
X162152734Y-55210568D01*
X162339139Y-55080047D01*
X162500047Y-54919139D01*
X162630568Y-54732734D01*
X162726739Y-54526496D01*
X162785635Y-54306692D01*
X162805468Y-54080000D01*
X162785635Y-53853308D01*
X162726739Y-53633504D01*
X162630568Y-53427266D01*
X162500047Y-53240861D01*
X162500045Y-53240858D01*
X162339141Y-53079954D01*
X162152734Y-52949432D01*
X162152732Y-52949431D01*
X161946497Y-52853261D01*
X161946488Y-52853258D01*
X161726697Y-52794366D01*
X161726693Y-52794365D01*
X161726692Y-52794365D01*
X161726691Y-52794364D01*
X161726686Y-52794364D01*
X161500002Y-52774532D01*
X161499998Y-52774532D01*
X161273313Y-52794364D01*
X161273302Y-52794366D01*
X161053511Y-52853258D01*
X161053502Y-52853261D01*
X160847267Y-52949431D01*
X160847265Y-52949432D01*
X160660858Y-53079954D01*
X160499954Y-53240858D01*
X160369432Y-53427265D01*
X160369431Y-53427267D01*
X160273261Y-53633502D01*
X160273258Y-53633511D01*
X160214366Y-53853302D01*
X160214364Y-53853313D01*
X160194532Y-54079998D01*
X160194532Y-54080001D01*
X160214364Y-54306686D01*
X160214366Y-54306697D01*
X160273258Y-54526488D01*
X160273261Y-54526497D01*
X160369431Y-54732732D01*
X160369432Y-54732734D01*
X160499951Y-54919137D01*
X160499952Y-54919138D01*
X160499953Y-54919139D01*
X160560531Y-54979717D01*
X160594015Y-55041038D01*
X160596849Y-55067397D01*
X160596849Y-59575500D01*
X160577164Y-59642539D01*
X160524360Y-59688294D01*
X160472850Y-59699500D01*
X160349479Y-59699500D01*
X160349472Y-59699501D01*
X160289865Y-59705908D01*
X160155020Y-59756202D01*
X160155013Y-59756206D01*
X160039804Y-59842452D01*
X160039801Y-59842455D01*
X159953555Y-59957664D01*
X159953551Y-59957671D01*
X159903257Y-60092517D01*
X159896850Y-60152116D01*
X159896850Y-60152123D01*
X159896849Y-60152135D01*
X159896849Y-61847870D01*
X159896850Y-61847876D01*
X159903257Y-61907483D01*
X159953551Y-62042328D01*
X159953555Y-62042335D01*
X160039801Y-62157544D01*
X160039804Y-62157547D01*
X160155013Y-62243793D01*
X160155020Y-62243797D01*
X160199967Y-62260561D01*
X160289866Y-62294091D01*
X160349476Y-62300500D01*
X160472849Y-62300499D01*
X160539888Y-62320183D01*
X160585643Y-62372987D01*
X160596849Y-62424499D01*
X160596849Y-63382553D01*
X160577164Y-63449592D01*
X160560530Y-63470234D01*
X153213738Y-70817025D01*
X153152415Y-70850510D01*
X153082723Y-70845526D01*
X153026790Y-70803654D01*
X153002373Y-70738190D01*
X153006790Y-70695414D01*
X153013485Y-70671885D01*
X153033119Y-70460000D01*
X153028612Y-70411367D01*
X153013485Y-70248115D01*
X152999653Y-70199500D01*
X152955251Y-70043445D01*
X152955249Y-70043440D01*
X152955249Y-70043439D01*
X152860403Y-69852962D01*
X152732163Y-69683147D01*
X152574909Y-69539791D01*
X152574907Y-69539789D01*
X152393992Y-69427771D01*
X152393986Y-69427768D01*
X152237603Y-69367186D01*
X152195566Y-69350901D01*
X151998634Y-69314087D01*
X151936354Y-69282419D01*
X151901081Y-69222107D01*
X151904015Y-69152299D01*
X151944224Y-69095159D01*
X152008942Y-69068828D01*
X152021412Y-69068199D01*
X152575572Y-69068199D01*
X152635183Y-69061791D01*
X152770031Y-69011496D01*
X152885246Y-68925246D01*
X152971496Y-68810031D01*
X153021791Y-68675183D01*
X153028200Y-68615573D01*
X153028199Y-67224428D01*
X153021791Y-67164817D01*
X153013709Y-67143149D01*
X152971497Y-67029971D01*
X152971493Y-67029964D01*
X152885247Y-66914755D01*
X152885244Y-66914752D01*
X152770035Y-66828506D01*
X152770028Y-66828502D01*
X152635182Y-66778208D01*
X152635183Y-66778208D01*
X152575583Y-66771801D01*
X152575581Y-66771800D01*
X152575573Y-66771800D01*
X152575565Y-66771800D01*
X151632398Y-66771800D01*
X151565359Y-66752115D01*
X151544717Y-66735481D01*
X151217590Y-66408355D01*
X151217588Y-66408352D01*
X151098717Y-66289481D01*
X151098716Y-66289480D01*
X151011904Y-66239360D01*
X151011904Y-66239359D01*
X151011900Y-66239358D01*
X150961785Y-66210423D01*
X150809057Y-66169499D01*
X150650943Y-66169499D01*
X150643347Y-66169499D01*
X150643331Y-66169500D01*
X146874500Y-66169500D01*
X146807461Y-66149815D01*
X146761706Y-66097011D01*
X146750500Y-66045500D01*
X146750499Y-64927129D01*
X146750498Y-64927123D01*
X146750497Y-64927116D01*
X146744091Y-64867517D01*
X146693796Y-64732669D01*
X146693795Y-64732668D01*
X146693793Y-64732664D01*
X146607547Y-64617455D01*
X146607544Y-64617452D01*
X146492335Y-64531206D01*
X146492328Y-64531202D01*
X146357482Y-64480908D01*
X146357483Y-64480908D01*
X146297883Y-64474501D01*
X146297881Y-64474500D01*
X146297873Y-64474500D01*
X146297864Y-64474500D01*
X144702129Y-64474500D01*
X144702123Y-64474501D01*
X144642516Y-64480908D01*
X144507671Y-64531202D01*
X144507664Y-64531206D01*
X144392455Y-64617452D01*
X144392452Y-64617455D01*
X144306206Y-64732664D01*
X144306202Y-64732671D01*
X144255908Y-64867517D01*
X144249501Y-64927116D01*
X144249501Y-64927123D01*
X144249500Y-64927135D01*
X144249500Y-66072870D01*
X144249501Y-66072876D01*
X144255908Y-66132483D01*
X144306202Y-66267328D01*
X144306203Y-66267330D01*
X144306204Y-66267331D01*
X144307028Y-66268432D01*
X144307509Y-66269721D01*
X144310454Y-66275114D01*
X144309678Y-66275537D01*
X144331448Y-66333895D01*
X144322325Y-66390198D01*
X144288910Y-66470868D01*
X144288907Y-66470880D01*
X144249500Y-66668992D01*
X144249500Y-66871007D01*
X144288907Y-67069119D01*
X144288909Y-67069127D01*
X144366214Y-67255757D01*
X144366900Y-67257040D01*
X144367056Y-67257789D01*
X144368545Y-67261384D01*
X144367863Y-67261666D01*
X144381147Y-67325442D01*
X144356151Y-67390687D01*
X144299848Y-67432061D01*
X144257546Y-67439500D01*
X140390213Y-67439500D01*
X140323174Y-67419815D01*
X140277419Y-67367011D01*
X140267475Y-67297853D01*
X140270438Y-67283406D01*
X140285635Y-67226692D01*
X140305468Y-67000000D01*
X140285635Y-66773308D01*
X140226739Y-66553504D01*
X140130568Y-66347266D01*
X140000047Y-66160861D01*
X140000045Y-66160858D01*
X139839141Y-65999954D01*
X139652734Y-65869432D01*
X139652732Y-65869431D01*
X139446497Y-65773261D01*
X139446488Y-65773258D01*
X139226697Y-65714366D01*
X139226693Y-65714365D01*
X139226692Y-65714365D01*
X139226691Y-65714364D01*
X139226686Y-65714364D01*
X139000002Y-65694532D01*
X138999998Y-65694532D01*
X138773313Y-65714364D01*
X138773302Y-65714366D01*
X138553511Y-65773258D01*
X138553502Y-65773261D01*
X138347267Y-65869431D01*
X138347265Y-65869432D01*
X138160858Y-65999954D01*
X137999954Y-66160858D01*
X137869432Y-66347265D01*
X137869431Y-66347267D01*
X137773261Y-66553502D01*
X137773258Y-66553511D01*
X137714366Y-66773302D01*
X137714364Y-66773313D01*
X137694532Y-66999998D01*
X137694532Y-67000001D01*
X137714364Y-67226686D01*
X137714366Y-67226697D01*
X137773258Y-67446488D01*
X137773261Y-67446497D01*
X137869431Y-67652732D01*
X137869432Y-67652734D01*
X137999954Y-67839141D01*
X138160858Y-68000045D01*
X138160861Y-68000047D01*
X138347266Y-68130568D01*
X138553504Y-68226739D01*
X138553509Y-68226740D01*
X138553511Y-68226741D01*
X138603562Y-68240152D01*
X138773308Y-68285635D01*
X138935230Y-68299801D01*
X138999998Y-68305468D01*
X139000000Y-68305468D01*
X139000002Y-68305468D01*
X139056673Y-68300509D01*
X139226692Y-68285635D01*
X139322932Y-68259847D01*
X139392781Y-68261510D01*
X139442706Y-68291941D01*
X139555139Y-68404374D01*
X139555149Y-68404385D01*
X139559479Y-68408715D01*
X139559480Y-68408716D01*
X139671284Y-68520520D01*
X139682576Y-68527039D01*
X139758095Y-68570639D01*
X139758097Y-68570641D01*
X139795985Y-68592516D01*
X139808215Y-68599577D01*
X139960943Y-68640500D01*
X144376603Y-68640500D01*
X144443642Y-68660185D01*
X144473711Y-68689720D01*
X144474578Y-68689010D01*
X144478444Y-68693721D01*
X144621281Y-68836558D01*
X144789237Y-68948782D01*
X144789241Y-68948784D01*
X144789244Y-68948786D01*
X144975873Y-69026091D01*
X145173992Y-69065499D01*
X145173996Y-69065500D01*
X145173997Y-69065500D01*
X145624903Y-69065500D01*
X145691942Y-69085185D01*
X145712584Y-69101819D01*
X147435139Y-70824374D01*
X147435149Y-70824385D01*
X147439479Y-70828715D01*
X147439480Y-70828716D01*
X147551284Y-70940520D01*
X147638095Y-70990639D01*
X147638097Y-70990641D01*
X147676151Y-71012611D01*
X147688215Y-71019577D01*
X147840943Y-71060501D01*
X147840946Y-71060501D01*
X148006653Y-71060501D01*
X148006669Y-71060500D01*
X150832915Y-71060500D01*
X150899954Y-71080185D01*
X150931869Y-71109773D01*
X151027836Y-71236852D01*
X151185090Y-71380208D01*
X151185092Y-71380210D01*
X151366007Y-71492228D01*
X151366013Y-71492231D01*
X151408048Y-71508515D01*
X151564434Y-71569099D01*
X151773129Y-71608111D01*
X151835410Y-71639779D01*
X151870683Y-71700092D01*
X151867749Y-71769900D01*
X151827540Y-71827040D01*
X151773129Y-71851888D01*
X151564434Y-71890901D01*
X151564431Y-71890901D01*
X151564431Y-71890902D01*
X151366013Y-71967768D01*
X151366007Y-71967771D01*
X151185092Y-72079789D01*
X151185090Y-72079791D01*
X151027836Y-72223147D01*
X150899596Y-72392962D01*
X150804750Y-72583439D01*
X150804750Y-72583440D01*
X150746514Y-72788115D01*
X150726881Y-72999999D01*
X150726881Y-73000000D01*
X150746514Y-73211884D01*
X150804750Y-73416559D01*
X150804750Y-73416560D01*
X150899596Y-73607037D01*
X151027836Y-73776852D01*
X151185090Y-73920208D01*
X151185092Y-73920210D01*
X151366007Y-74032228D01*
X151366013Y-74032231D01*
X151408048Y-74048515D01*
X151564434Y-74109099D01*
X151773129Y-74148111D01*
X151835410Y-74179779D01*
X151870683Y-74240092D01*
X151867749Y-74309900D01*
X151827540Y-74367040D01*
X151773129Y-74391888D01*
X151564434Y-74430901D01*
X151564431Y-74430901D01*
X151564431Y-74430902D01*
X151366013Y-74507768D01*
X151366007Y-74507771D01*
X151185092Y-74619789D01*
X151185090Y-74619791D01*
X151027836Y-74763147D01*
X150899596Y-74932962D01*
X150804750Y-75123439D01*
X150804750Y-75123440D01*
X150746514Y-75328115D01*
X150726881Y-75539999D01*
X150726881Y-75540000D01*
X150746514Y-75751884D01*
X150804750Y-75956559D01*
X150804750Y-75956560D01*
X150899596Y-76147037D01*
X151027836Y-76316852D01*
X151154620Y-76432431D01*
X151190902Y-76492142D01*
X151189141Y-76561989D01*
X151158763Y-76611749D01*
X149478629Y-78291884D01*
X147901286Y-79869227D01*
X147901284Y-79869229D01*
X147857183Y-79913330D01*
X147789481Y-79981031D01*
X147789480Y-79981033D01*
X147771047Y-80012961D01*
X147755638Y-80039648D01*
X147751609Y-80046628D01*
X147701040Y-80094842D01*
X147632433Y-80108063D01*
X147567569Y-80082094D01*
X147556542Y-80072306D01*
X144866819Y-77382583D01*
X144833334Y-77321260D01*
X144830500Y-77294902D01*
X144830500Y-74882454D01*
X144850185Y-74815415D01*
X144902989Y-74769660D01*
X144972147Y-74759716D01*
X145008535Y-74771649D01*
X145008616Y-74771455D01*
X145011171Y-74772513D01*
X145012960Y-74773100D01*
X145014242Y-74773785D01*
X145014243Y-74773785D01*
X145014244Y-74773786D01*
X145200873Y-74851091D01*
X145358547Y-74882454D01*
X145398992Y-74890499D01*
X145398996Y-74890500D01*
X145398997Y-74890500D01*
X145601004Y-74890500D01*
X145601005Y-74890499D01*
X145799127Y-74851091D01*
X145879798Y-74817674D01*
X145949267Y-74810205D01*
X145994658Y-74829962D01*
X145994886Y-74829546D01*
X145999540Y-74832087D01*
X146001562Y-74832967D01*
X146002669Y-74833796D01*
X146002670Y-74833796D01*
X146002671Y-74833797D01*
X146137517Y-74884091D01*
X146137516Y-74884091D01*
X146144444Y-74884835D01*
X146197127Y-74890500D01*
X147342872Y-74890499D01*
X147402483Y-74884091D01*
X147537331Y-74833796D01*
X147652546Y-74747546D01*
X147738796Y-74632331D01*
X147789091Y-74497483D01*
X147795500Y-74437873D01*
X147795499Y-72842128D01*
X147789091Y-72782517D01*
X147781170Y-72761281D01*
X147738797Y-72647671D01*
X147738793Y-72647664D01*
X147652547Y-72532455D01*
X147652544Y-72532452D01*
X147537335Y-72446206D01*
X147537328Y-72446202D01*
X147402482Y-72395908D01*
X147402483Y-72395908D01*
X147342883Y-72389501D01*
X147342881Y-72389500D01*
X147342873Y-72389500D01*
X147342864Y-72389500D01*
X146197129Y-72389500D01*
X146197123Y-72389501D01*
X146137516Y-72395908D01*
X146002672Y-72446202D01*
X146002665Y-72446206D01*
X146001556Y-72447037D01*
X146000258Y-72447520D01*
X145994887Y-72450454D01*
X145994465Y-72449681D01*
X145936090Y-72471449D01*
X145879800Y-72462325D01*
X145799127Y-72428909D01*
X145799119Y-72428907D01*
X145601007Y-72389500D01*
X145601003Y-72389500D01*
X145398997Y-72389500D01*
X145398992Y-72389500D01*
X145200880Y-72428907D01*
X145200872Y-72428909D01*
X145014244Y-72506213D01*
X144933891Y-72559904D01*
X144867213Y-72580782D01*
X144799833Y-72562297D01*
X144796109Y-72559904D01*
X144715755Y-72506213D01*
X144529127Y-72428909D01*
X144529119Y-72428907D01*
X144331007Y-72389500D01*
X144331003Y-72389500D01*
X144128997Y-72389500D01*
X144128992Y-72389500D01*
X143930880Y-72428907D01*
X143930872Y-72428909D01*
X143744247Y-72506212D01*
X143744237Y-72506217D01*
X143576281Y-72618441D01*
X143433441Y-72761281D01*
X143321217Y-72929237D01*
X143321212Y-72929247D01*
X143243909Y-73115872D01*
X143243907Y-73115880D01*
X143204500Y-73313992D01*
X143204500Y-73966007D01*
X143243907Y-74164119D01*
X143243909Y-74164127D01*
X143321212Y-74350752D01*
X143321217Y-74350762D01*
X143433440Y-74518716D01*
X143433441Y-74518717D01*
X143433442Y-74518718D01*
X143576282Y-74661558D01*
X143576285Y-74661560D01*
X143576287Y-74661562D01*
X143580997Y-74665428D01*
X143579848Y-74666826D01*
X143619194Y-74713904D01*
X143629500Y-74763397D01*
X143629500Y-77508330D01*
X143629499Y-77508348D01*
X143629499Y-77674054D01*
X143629498Y-77674054D01*
X143670424Y-77826789D01*
X143670425Y-77826790D01*
X143694284Y-77868114D01*
X143694285Y-77868116D01*
X143749475Y-77963709D01*
X143749481Y-77963717D01*
X143868349Y-78082585D01*
X143868355Y-78082590D01*
X146183584Y-80397819D01*
X146217069Y-80459142D01*
X146212085Y-80528834D01*
X146170213Y-80584767D01*
X146104749Y-80609184D01*
X146095903Y-80609500D01*
X145157129Y-80609500D01*
X145157123Y-80609501D01*
X145097516Y-80615908D01*
X144962671Y-80666202D01*
X144962664Y-80666206D01*
X144847455Y-80752452D01*
X144847452Y-80752455D01*
X144761206Y-80867664D01*
X144761202Y-80867671D01*
X144710908Y-81002517D01*
X144704501Y-81062116D01*
X144704500Y-81062135D01*
X144704500Y-82657870D01*
X144704501Y-82657876D01*
X144710908Y-82717483D01*
X144761202Y-82852328D01*
X144761206Y-82852335D01*
X144847452Y-82967544D01*
X144847455Y-82967547D01*
X144962664Y-83053793D01*
X144962671Y-83053797D01*
X145097517Y-83104091D01*
X145097516Y-83104091D01*
X145104444Y-83104835D01*
X145157127Y-83110500D01*
X146095901Y-83110499D01*
X146162940Y-83130183D01*
X146208695Y-83182987D01*
X146218639Y-83252146D01*
X146189614Y-83315702D01*
X146183582Y-83322180D01*
X142322584Y-87183181D01*
X142261261Y-87216666D01*
X142234903Y-87219500D01*
X140731692Y-87219500D01*
X140664653Y-87199815D01*
X140630119Y-87166625D01*
X140500047Y-86980861D01*
X140500045Y-86980858D01*
X140339141Y-86819954D01*
X140152734Y-86689432D01*
X140152732Y-86689431D01*
X139946497Y-86593261D01*
X139946488Y-86593258D01*
X139726697Y-86534366D01*
X139726693Y-86534365D01*
X139726692Y-86534365D01*
X139726691Y-86534364D01*
X139726686Y-86534364D01*
X139500002Y-86514532D01*
X139499998Y-86514532D01*
X139273313Y-86534364D01*
X139273302Y-86534366D01*
X139177067Y-86560152D01*
X139107217Y-86558489D01*
X139057293Y-86528058D01*
X134238663Y-81709428D01*
X134205178Y-81648105D01*
X134210162Y-81578413D01*
X134252034Y-81522480D01*
X134317498Y-81498063D01*
X134337142Y-81498218D01*
X134420000Y-81505468D01*
X134420002Y-81505468D01*
X134476807Y-81500498D01*
X134646692Y-81485635D01*
X134866496Y-81426739D01*
X135072734Y-81330568D01*
X135259139Y-81200047D01*
X135420047Y-81039139D01*
X135550568Y-80852734D01*
X135577618Y-80794724D01*
X135623790Y-80742285D01*
X135690983Y-80723133D01*
X135757865Y-80743348D01*
X135802382Y-80794725D01*
X135829429Y-80852728D01*
X135829432Y-80852734D01*
X135959954Y-81039141D01*
X136120858Y-81200045D01*
X136144963Y-81216923D01*
X136307266Y-81330568D01*
X136513504Y-81426739D01*
X136733308Y-81485635D01*
X136875361Y-81498063D01*
X136959998Y-81505468D01*
X136960000Y-81505468D01*
X136960002Y-81505468D01*
X137016807Y-81500498D01*
X137186692Y-81485635D01*
X137406496Y-81426739D01*
X137612734Y-81330568D01*
X137799139Y-81200047D01*
X137960047Y-81039139D01*
X137977272Y-81014539D01*
X138031848Y-80970913D01*
X138101346Y-80963718D01*
X138163701Y-80995239D01*
X138199116Y-81055468D01*
X138202138Y-81072406D01*
X138205908Y-81107483D01*
X138256202Y-81242328D01*
X138256206Y-81242335D01*
X138342452Y-81357544D01*
X138342455Y-81357547D01*
X138457664Y-81443793D01*
X138457671Y-81443797D01*
X138592517Y-81494091D01*
X138592516Y-81494091D01*
X138599444Y-81494835D01*
X138652127Y-81500500D01*
X140347872Y-81500499D01*
X140407483Y-81494091D01*
X140542331Y-81443796D01*
X140657546Y-81357546D01*
X140743796Y-81242331D01*
X140794091Y-81107483D01*
X140800500Y-81047873D01*
X140800499Y-79352128D01*
X140794091Y-79292517D01*
X140779337Y-79252960D01*
X140743797Y-79157671D01*
X140743793Y-79157664D01*
X140657547Y-79042455D01*
X140657544Y-79042452D01*
X140542335Y-78956206D01*
X140542328Y-78956202D01*
X140407482Y-78905908D01*
X140407483Y-78905908D01*
X140347883Y-78899501D01*
X140347881Y-78899500D01*
X140347873Y-78899500D01*
X140347865Y-78899500D01*
X139300097Y-78899500D01*
X139233058Y-78879815D01*
X139212416Y-78863181D01*
X137291941Y-76942706D01*
X137258456Y-76881383D01*
X137259847Y-76822931D01*
X137285635Y-76726692D01*
X137305468Y-76500000D01*
X137285635Y-76273308D01*
X137226739Y-76053504D01*
X137130568Y-75847266D01*
X137000047Y-75660861D01*
X137000045Y-75660858D01*
X136839141Y-75499954D01*
X136652734Y-75369432D01*
X136652732Y-75369431D01*
X136446497Y-75273261D01*
X136446488Y-75273258D01*
X136226697Y-75214366D01*
X136226693Y-75214365D01*
X136226692Y-75214365D01*
X136226691Y-75214364D01*
X136226686Y-75214364D01*
X136000002Y-75194532D01*
X135999998Y-75194532D01*
X135773313Y-75214364D01*
X135773302Y-75214366D01*
X135677067Y-75240152D01*
X135607217Y-75238489D01*
X135557293Y-75208058D01*
X132016819Y-71667583D01*
X131983334Y-71606260D01*
X131980500Y-71579902D01*
X131980500Y-70652135D01*
X134699500Y-70652135D01*
X134699500Y-72347870D01*
X134699501Y-72347876D01*
X134705908Y-72407483D01*
X134756202Y-72542328D01*
X134756206Y-72542335D01*
X134842452Y-72657544D01*
X134842455Y-72657547D01*
X134957664Y-72743793D01*
X134957671Y-72743797D01*
X135092517Y-72794091D01*
X135092516Y-72794091D01*
X135099444Y-72794835D01*
X135152127Y-72800500D01*
X136847872Y-72800499D01*
X136907483Y-72794091D01*
X137042331Y-72743796D01*
X137157546Y-72657546D01*
X137243796Y-72542331D01*
X137294091Y-72407483D01*
X137300500Y-72347873D01*
X137300499Y-70652128D01*
X137294091Y-70592517D01*
X137275374Y-70542335D01*
X137243797Y-70457671D01*
X137243793Y-70457664D01*
X137157547Y-70342455D01*
X137157544Y-70342452D01*
X137042335Y-70256206D01*
X137042328Y-70256202D01*
X136907482Y-70205908D01*
X136907483Y-70205908D01*
X136847883Y-70199501D01*
X136847881Y-70199500D01*
X136847873Y-70199500D01*
X136847864Y-70199500D01*
X135152129Y-70199500D01*
X135152123Y-70199501D01*
X135092516Y-70205908D01*
X134957671Y-70256202D01*
X134957664Y-70256206D01*
X134842455Y-70342452D01*
X134842452Y-70342455D01*
X134756206Y-70457664D01*
X134756202Y-70457671D01*
X134705908Y-70592517D01*
X134699501Y-70652116D01*
X134699501Y-70652123D01*
X134699500Y-70652135D01*
X131980500Y-70652135D01*
X131980500Y-68231692D01*
X132000185Y-68164653D01*
X132033374Y-68130119D01*
X132219139Y-68000047D01*
X132380047Y-67839139D01*
X132510568Y-67652734D01*
X132606739Y-67446496D01*
X132665635Y-67226692D01*
X132685468Y-67000000D01*
X132665635Y-66773308D01*
X132639847Y-66677066D01*
X132641510Y-66607217D01*
X132671939Y-66557294D01*
X137738506Y-61490728D01*
X137738511Y-61490724D01*
X137748714Y-61480520D01*
X137748716Y-61480520D01*
X137772319Y-61456917D01*
X137833642Y-61423432D01*
X137903334Y-61428416D01*
X137947681Y-61456917D01*
X137958984Y-61468220D01*
X138045795Y-61518339D01*
X138045797Y-61518341D01*
X138095913Y-61547276D01*
X138095915Y-61547277D01*
X138248642Y-61588200D01*
X138248643Y-61588200D01*
X148505631Y-61588200D01*
X148505647Y-61588201D01*
X148513243Y-61588201D01*
X148671354Y-61588201D01*
X148671357Y-61588201D01*
X148824085Y-61547277D01*
X148874204Y-61518339D01*
X148961016Y-61468220D01*
X149072820Y-61356416D01*
X149072820Y-61356414D01*
X149083028Y-61346207D01*
X149083030Y-61346204D01*
X149185146Y-61244087D01*
X149246467Y-61210604D01*
X149295608Y-61209881D01*
X149393604Y-61228200D01*
X149393606Y-61228200D01*
X149606394Y-61228200D01*
X149606396Y-61228200D01*
X149815566Y-61189099D01*
X150013989Y-61112230D01*
X150194909Y-61000209D01*
X150352165Y-60856851D01*
X150480402Y-60687039D01*
X150480403Y-60687037D01*
X150575249Y-60496560D01*
X150575249Y-60496559D01*
X150575248Y-60496559D01*
X150575251Y-60496555D01*
X150633485Y-60291885D01*
X150653119Y-60080000D01*
X150649412Y-60040000D01*
X150633485Y-59868115D01*
X150622104Y-59828115D01*
X150575251Y-59663445D01*
X150575249Y-59663440D01*
X150575249Y-59663439D01*
X150480403Y-59472962D01*
X150413541Y-59384423D01*
X150352165Y-59303149D01*
X150194909Y-59159791D01*
X150194907Y-59159789D01*
X150013992Y-59047771D01*
X150013986Y-59047768D01*
X149822107Y-58973435D01*
X149815566Y-58970901D01*
X149606868Y-58931888D01*
X149544589Y-58900221D01*
X149509316Y-58839908D01*
X149512250Y-58770100D01*
X149552459Y-58712960D01*
X149606868Y-58688111D01*
X149815566Y-58649099D01*
X150013989Y-58572230D01*
X150194909Y-58460209D01*
X150352165Y-58316851D01*
X150480402Y-58147039D01*
X150480403Y-58147037D01*
X150575249Y-57956560D01*
X150575249Y-57956559D01*
X150575248Y-57956559D01*
X150575251Y-57956555D01*
X150633485Y-57751885D01*
X150653119Y-57540000D01*
X150649412Y-57500000D01*
X150633485Y-57328115D01*
X150622104Y-57288115D01*
X150575251Y-57123445D01*
X150575249Y-57123440D01*
X150575249Y-57123439D01*
X150480403Y-56932962D01*
X150414299Y-56845427D01*
X150352165Y-56763149D01*
X150194909Y-56619791D01*
X150194907Y-56619789D01*
X150013992Y-56507771D01*
X150013986Y-56507768D01*
X149857603Y-56447186D01*
X149815566Y-56430901D01*
X149606868Y-56391888D01*
X149544589Y-56360221D01*
X149509316Y-56299908D01*
X149512250Y-56230100D01*
X149552459Y-56172960D01*
X149606868Y-56148111D01*
X149815566Y-56109099D01*
X150013989Y-56032230D01*
X150194909Y-55920209D01*
X150352165Y-55776851D01*
X150480402Y-55607039D01*
X150480403Y-55607037D01*
X150575249Y-55416560D01*
X150575249Y-55416559D01*
X150575248Y-55416559D01*
X150575251Y-55416555D01*
X150633485Y-55211885D01*
X150653119Y-55000000D01*
X150649412Y-54960000D01*
X150633485Y-54788115D01*
X150622104Y-54748115D01*
X150575251Y-54583445D01*
X150575249Y-54583440D01*
X150575249Y-54583439D01*
X150480403Y-54392962D01*
X150352163Y-54223147D01*
X150194909Y-54079791D01*
X150194907Y-54079789D01*
X150013992Y-53967771D01*
X150013986Y-53967768D01*
X149847200Y-53903156D01*
X149815566Y-53890901D01*
X149606868Y-53851888D01*
X149544589Y-53820221D01*
X149509316Y-53759908D01*
X149512250Y-53690100D01*
X149552459Y-53632960D01*
X149606868Y-53608111D01*
X149815566Y-53569099D01*
X150013989Y-53492230D01*
X150194909Y-53380209D01*
X150352165Y-53236851D01*
X150480402Y-53067039D01*
X150480403Y-53067037D01*
X150575249Y-52876560D01*
X150575249Y-52876559D01*
X150575248Y-52876559D01*
X150575251Y-52876555D01*
X150633485Y-52671885D01*
X150653119Y-52460000D01*
X150649412Y-52420000D01*
X150633485Y-52248115D01*
X150622104Y-52208115D01*
X150575251Y-52043445D01*
X150575249Y-52043440D01*
X150575249Y-52043439D01*
X150480403Y-51852962D01*
X150448342Y-51810508D01*
X150352165Y-51683149D01*
X150352162Y-51683146D01*
X150348302Y-51678911D01*
X150349348Y-51677957D01*
X150316640Y-51624131D01*
X150318397Y-51554283D01*
X150357638Y-51496474D01*
X150421904Y-51469057D01*
X150436458Y-51468200D01*
X156183542Y-51468200D01*
X156250581Y-51487885D01*
X156296336Y-51540689D01*
X156306280Y-51609847D01*
X156277255Y-51673403D01*
X156269036Y-51681831D01*
X156267837Y-51683146D01*
X156139596Y-51852962D01*
X156044750Y-52043439D01*
X156044750Y-52043440D01*
X155986514Y-52248115D01*
X155966881Y-52459999D01*
X155966881Y-52460000D01*
X155986514Y-52671884D01*
X156044750Y-52876559D01*
X156044750Y-52876560D01*
X156139596Y-53067037D01*
X156267836Y-53236852D01*
X156425090Y-53380208D01*
X156425092Y-53380210D01*
X156606007Y-53492228D01*
X156606013Y-53492231D01*
X156648048Y-53508515D01*
X156804434Y-53569099D01*
X157013129Y-53608111D01*
X157075410Y-53639779D01*
X157110683Y-53700092D01*
X157107749Y-53769900D01*
X157067540Y-53827040D01*
X157013129Y-53851888D01*
X156804434Y-53890901D01*
X156804431Y-53890901D01*
X156804431Y-53890902D01*
X156606013Y-53967768D01*
X156606007Y-53967771D01*
X156425092Y-54079789D01*
X156425090Y-54079791D01*
X156267836Y-54223147D01*
X156139596Y-54392962D01*
X156044750Y-54583439D01*
X156044750Y-54583440D01*
X155986514Y-54788115D01*
X155966881Y-54999999D01*
X155966881Y-55000000D01*
X155986514Y-55211884D01*
X156044750Y-55416559D01*
X156044750Y-55416560D01*
X156139596Y-55607037D01*
X156267836Y-55776852D01*
X156425090Y-55920208D01*
X156425092Y-55920210D01*
X156606007Y-56032228D01*
X156606013Y-56032231D01*
X156648048Y-56048515D01*
X156804434Y-56109099D01*
X157013129Y-56148111D01*
X157075410Y-56179779D01*
X157110683Y-56240092D01*
X157107749Y-56309900D01*
X157067540Y-56367040D01*
X157013129Y-56391888D01*
X156804434Y-56430901D01*
X156804431Y-56430901D01*
X156804431Y-56430902D01*
X156606013Y-56507768D01*
X156606007Y-56507771D01*
X156425092Y-56619789D01*
X156425090Y-56619791D01*
X156267836Y-56763147D01*
X156139596Y-56932962D01*
X156044750Y-57123439D01*
X156044750Y-57123440D01*
X155986514Y-57328115D01*
X155966881Y-57539999D01*
X155966881Y-57540000D01*
X155986514Y-57751884D01*
X156044750Y-57956559D01*
X156044750Y-57956560D01*
X156139596Y-58147037D01*
X156267836Y-58316852D01*
X156425090Y-58460208D01*
X156425092Y-58460210D01*
X156606007Y-58572228D01*
X156606013Y-58572231D01*
X156646024Y-58587731D01*
X156804434Y-58649099D01*
X157013129Y-58688111D01*
X157075410Y-58719779D01*
X157110683Y-58780092D01*
X157107749Y-58849900D01*
X157067540Y-58907040D01*
X157013129Y-58931888D01*
X156804434Y-58970901D01*
X156804431Y-58970901D01*
X156804431Y-58970902D01*
X156606013Y-59047768D01*
X156606007Y-59047771D01*
X156425092Y-59159789D01*
X156425090Y-59159791D01*
X156267836Y-59303147D01*
X156139596Y-59472962D01*
X156044750Y-59663439D01*
X156044750Y-59663440D01*
X155986514Y-59868115D01*
X155966881Y-60079999D01*
X155966881Y-60080000D01*
X155986514Y-60291884D01*
X156044750Y-60496559D01*
X156044750Y-60496560D01*
X156139596Y-60687037D01*
X156267836Y-60856852D01*
X156425090Y-61000208D01*
X156425092Y-61000210D01*
X156606007Y-61112228D01*
X156606013Y-61112231D01*
X156648048Y-61128515D01*
X156804434Y-61189099D01*
X157013604Y-61228200D01*
X157013606Y-61228200D01*
X157226394Y-61228200D01*
X157226396Y-61228200D01*
X157435566Y-61189099D01*
X157633989Y-61112230D01*
X157814909Y-61000209D01*
X157972165Y-60856851D01*
X158100402Y-60687039D01*
X158100403Y-60687037D01*
X158195249Y-60496560D01*
X158195249Y-60496559D01*
X158195248Y-60496559D01*
X158195251Y-60496555D01*
X158253485Y-60291885D01*
X158273119Y-60080000D01*
X158269412Y-60040000D01*
X158253485Y-59868115D01*
X158242104Y-59828115D01*
X158195251Y-59663445D01*
X158195249Y-59663440D01*
X158195249Y-59663439D01*
X158100403Y-59472962D01*
X158033541Y-59384423D01*
X157972165Y-59303149D01*
X157814909Y-59159791D01*
X157814907Y-59159789D01*
X157633992Y-59047771D01*
X157633986Y-59047768D01*
X157442107Y-58973435D01*
X157435566Y-58970901D01*
X157226868Y-58931888D01*
X157164589Y-58900221D01*
X157129316Y-58839908D01*
X157132250Y-58770100D01*
X157172459Y-58712960D01*
X157226868Y-58688111D01*
X157435566Y-58649099D01*
X157633989Y-58572230D01*
X157814909Y-58460209D01*
X157972165Y-58316851D01*
X158100402Y-58147039D01*
X158100403Y-58147037D01*
X158195249Y-57956560D01*
X158195249Y-57956559D01*
X158195248Y-57956559D01*
X158195251Y-57956555D01*
X158253485Y-57751885D01*
X158273119Y-57540000D01*
X158269412Y-57500000D01*
X158253485Y-57328115D01*
X158242104Y-57288115D01*
X158195251Y-57123445D01*
X158195249Y-57123440D01*
X158195249Y-57123439D01*
X158100403Y-56932962D01*
X158034299Y-56845427D01*
X157972165Y-56763149D01*
X157814909Y-56619791D01*
X157814907Y-56619789D01*
X157633992Y-56507771D01*
X157633986Y-56507768D01*
X157477603Y-56447186D01*
X157435566Y-56430901D01*
X157226868Y-56391888D01*
X157164589Y-56360221D01*
X157129316Y-56299908D01*
X157132250Y-56230100D01*
X157172459Y-56172960D01*
X157226868Y-56148111D01*
X157435566Y-56109099D01*
X157633989Y-56032230D01*
X157814909Y-55920209D01*
X157972165Y-55776851D01*
X158100402Y-55607039D01*
X158100403Y-55607037D01*
X158195249Y-55416560D01*
X158195249Y-55416559D01*
X158195248Y-55416559D01*
X158195251Y-55416555D01*
X158253485Y-55211885D01*
X158273119Y-55000000D01*
X158269412Y-54960000D01*
X158253485Y-54788115D01*
X158242104Y-54748115D01*
X158195251Y-54583445D01*
X158195249Y-54583440D01*
X158195249Y-54583439D01*
X158100403Y-54392962D01*
X157972163Y-54223147D01*
X157814909Y-54079791D01*
X157814907Y-54079789D01*
X157633992Y-53967771D01*
X157633986Y-53967768D01*
X157467200Y-53903156D01*
X157435566Y-53890901D01*
X157226868Y-53851888D01*
X157164589Y-53820221D01*
X157129316Y-53759908D01*
X157132250Y-53690100D01*
X157172459Y-53632960D01*
X157226868Y-53608111D01*
X157435566Y-53569099D01*
X157633989Y-53492230D01*
X157814909Y-53380209D01*
X157972165Y-53236851D01*
X158100402Y-53067039D01*
X158100403Y-53067037D01*
X158195249Y-52876560D01*
X158195249Y-52876559D01*
X158195248Y-52876559D01*
X158195251Y-52876555D01*
X158253485Y-52671885D01*
X158273119Y-52460000D01*
X158269412Y-52420000D01*
X158253485Y-52248115D01*
X158242104Y-52208115D01*
X158195251Y-52043445D01*
X158195249Y-52043440D01*
X158195249Y-52043439D01*
X158100403Y-51852962D01*
X157972163Y-51683146D01*
X157837293Y-51560196D01*
X157801011Y-51500485D01*
X157802772Y-51430637D01*
X157842016Y-51372830D01*
X157858823Y-51361177D01*
X157881267Y-51348220D01*
X157993071Y-51236416D01*
X157993071Y-51236414D01*
X158003279Y-51226207D01*
X158003281Y-51226204D01*
X161858506Y-47370979D01*
X161858511Y-47370975D01*
X161868714Y-47360771D01*
X161868716Y-47360771D01*
X161980520Y-47248967D01*
X162059577Y-47112035D01*
X162097291Y-46971284D01*
X162097291Y-46971283D01*
X162097292Y-46971283D01*
X162097292Y-46971278D01*
X162100500Y-46959309D01*
X162100500Y-46801194D01*
X162100500Y-45151692D01*
X162120185Y-45084653D01*
X162153374Y-45050119D01*
X162339139Y-44920047D01*
X162500047Y-44759139D01*
X162630568Y-44572734D01*
X162726739Y-44366496D01*
X162785635Y-44146692D01*
X162805468Y-43920000D01*
X162804590Y-43909969D01*
X162794510Y-43794752D01*
X162785635Y-43693308D01*
X162726739Y-43473504D01*
X162630568Y-43267266D01*
X162500047Y-43080861D01*
X162500045Y-43080858D01*
X162339141Y-42919954D01*
X162152734Y-42789432D01*
X162152732Y-42789431D01*
X161946497Y-42693261D01*
X161946488Y-42693258D01*
X161726697Y-42634366D01*
X161726693Y-42634365D01*
X161726692Y-42634365D01*
X161726691Y-42634364D01*
X161726686Y-42634364D01*
X161500002Y-42614532D01*
X161499998Y-42614532D01*
X161273313Y-42634364D01*
X161273302Y-42634366D01*
X161053511Y-42693258D01*
X161053502Y-42693261D01*
X160847267Y-42789431D01*
X160847265Y-42789432D01*
X160660858Y-42919954D01*
X160499954Y-43080858D01*
X160369432Y-43267265D01*
X160369431Y-43267267D01*
X160273261Y-43473502D01*
X160273258Y-43473511D01*
X160214366Y-43693302D01*
X160214364Y-43693313D01*
X160194532Y-43919998D01*
X160194532Y-43920001D01*
X160214364Y-44146686D01*
X160214366Y-44146697D01*
X160273258Y-44366488D01*
X160273261Y-44366497D01*
X160369431Y-44572732D01*
X160369432Y-44572734D01*
X160499954Y-44759141D01*
X160660858Y-44920045D01*
X160660861Y-44920047D01*
X160846624Y-45050118D01*
X160890248Y-45104693D01*
X160899500Y-45151692D01*
X160899500Y-46580153D01*
X160879815Y-46647192D01*
X160863181Y-46667834D01*
X158251783Y-49279231D01*
X158190460Y-49312716D01*
X158120768Y-49307732D01*
X158065148Y-49266277D01*
X157972163Y-49143147D01*
X157814909Y-48999791D01*
X157814907Y-48999789D01*
X157633992Y-48887771D01*
X157633986Y-48887768D01*
X157467200Y-48823156D01*
X157435566Y-48810901D01*
X157226868Y-48771888D01*
X157164589Y-48740221D01*
X157129316Y-48679908D01*
X157132250Y-48610100D01*
X157172459Y-48552960D01*
X157226868Y-48528111D01*
X157435566Y-48489099D01*
X157633989Y-48412230D01*
X157814909Y-48300209D01*
X157972165Y-48156851D01*
X158100402Y-47987039D01*
X158114374Y-47958980D01*
X158195249Y-47796560D01*
X158195249Y-47796559D01*
X158195248Y-47796559D01*
X158195251Y-47796555D01*
X158253485Y-47591885D01*
X158273119Y-47380000D01*
X158272283Y-47370983D01*
X158253485Y-47168115D01*
X158242104Y-47128115D01*
X158195251Y-46963445D01*
X158195249Y-46963440D01*
X158195249Y-46963439D01*
X158100403Y-46772962D01*
X157972163Y-46603147D01*
X157814909Y-46459791D01*
X157814907Y-46459789D01*
X157633992Y-46347771D01*
X157633986Y-46347768D01*
X157467200Y-46283156D01*
X157435566Y-46270901D01*
X157226868Y-46231888D01*
X157164589Y-46200221D01*
X157129316Y-46139908D01*
X157132250Y-46070100D01*
X157172459Y-46012960D01*
X157226868Y-45988111D01*
X157435566Y-45949099D01*
X157633989Y-45872230D01*
X157814909Y-45760209D01*
X157972165Y-45616851D01*
X158100402Y-45447039D01*
X158114373Y-45418982D01*
X158195249Y-45256560D01*
X158195249Y-45256559D01*
X158195248Y-45256559D01*
X158195251Y-45256555D01*
X158253485Y-45051885D01*
X158273119Y-44840000D01*
X158269412Y-44800000D01*
X158253485Y-44628115D01*
X158240446Y-44582289D01*
X158195251Y-44423445D01*
X158195249Y-44423440D01*
X158195249Y-44423439D01*
X158100403Y-44232962D01*
X158003338Y-44104429D01*
X157972165Y-44063149D01*
X157937760Y-44031785D01*
X157814909Y-43919791D01*
X157814907Y-43919789D01*
X157633992Y-43807771D01*
X157633986Y-43807768D01*
X157477603Y-43747186D01*
X157435566Y-43730901D01*
X157226396Y-43691800D01*
X157013604Y-43691800D01*
X156804434Y-43730901D01*
X156804431Y-43730901D01*
X156804431Y-43730902D01*
X156606013Y-43807768D01*
X156606007Y-43807771D01*
X156425092Y-43919789D01*
X156425090Y-43919791D01*
X156267836Y-44063147D01*
X156139596Y-44232962D01*
X156044750Y-44423439D01*
X156044750Y-44423440D01*
X155986514Y-44628115D01*
X155966881Y-44839999D01*
X155966881Y-44840000D01*
X155986503Y-45051759D01*
X155973088Y-45120329D01*
X155924731Y-45170760D01*
X155863032Y-45187200D01*
X150772200Y-45187200D01*
X150705161Y-45167515D01*
X150659406Y-45114711D01*
X150648200Y-45063200D01*
X150648199Y-44144429D01*
X150648198Y-44144423D01*
X150648197Y-44144416D01*
X150641791Y-44084817D01*
X150633709Y-44063149D01*
X150591497Y-43949971D01*
X150591493Y-43949964D01*
X150505247Y-43834755D01*
X150505244Y-43834752D01*
X150390035Y-43748506D01*
X150390028Y-43748502D01*
X150255182Y-43698208D01*
X150255183Y-43698208D01*
X150195583Y-43691801D01*
X150195581Y-43691800D01*
X150195573Y-43691800D01*
X150195564Y-43691800D01*
X148804429Y-43691800D01*
X148804423Y-43691801D01*
X148744816Y-43698208D01*
X148609971Y-43748502D01*
X148609964Y-43748506D01*
X148494755Y-43834752D01*
X148494752Y-43834755D01*
X148408506Y-43949964D01*
X148408502Y-43949971D01*
X148358208Y-44084817D01*
X148356100Y-44104429D01*
X148351800Y-44144427D01*
X148351800Y-44628115D01*
X148351801Y-45063200D01*
X148332117Y-45130239D01*
X148279313Y-45175994D01*
X148227801Y-45187200D01*
X146287798Y-45187200D01*
X146220759Y-45167515D01*
X146200117Y-45150881D01*
X146168305Y-45119069D01*
X146134820Y-45057746D01*
X146134240Y-45017713D01*
X146132956Y-45017594D01*
X146153119Y-44800000D01*
X146153119Y-44799999D01*
X146133485Y-44588115D01*
X146117456Y-44531779D01*
X146075251Y-44383445D01*
X146075249Y-44383440D01*
X146075249Y-44383439D01*
X145980403Y-44192962D01*
X145870609Y-44047573D01*
X145852165Y-44023149D01*
X145771890Y-43949969D01*
X145694909Y-43879791D01*
X145694907Y-43879789D01*
X145513992Y-43767771D01*
X145513986Y-43767768D01*
X145334430Y-43698209D01*
X145315566Y-43690901D01*
X145106396Y-43651800D01*
X144893604Y-43651800D01*
X144878256Y-43654668D01*
X144795611Y-43670117D01*
X144726096Y-43663085D01*
X144685146Y-43635909D01*
X144636819Y-43587582D01*
X144603334Y-43526259D01*
X144600500Y-43499901D01*
X144600500Y-41299499D01*
X144620185Y-41232460D01*
X144672989Y-41186705D01*
X144719611Y-41176562D01*
X144719576Y-41175900D01*
X144719571Y-41175854D01*
X144719573Y-41175853D01*
X144719564Y-41175676D01*
X144722857Y-41175499D01*
X144722872Y-41175499D01*
X144782483Y-41169091D01*
X144917331Y-41118796D01*
X145032546Y-41032546D01*
X145118796Y-40917331D01*
X145169091Y-40782483D01*
X145175500Y-40722873D01*
X145175499Y-39277128D01*
X145169091Y-39217517D01*
X145164302Y-39204678D01*
X145118797Y-39082671D01*
X145118793Y-39082664D01*
X145032547Y-38967455D01*
X145032544Y-38967452D01*
X144917335Y-38881206D01*
X144917328Y-38881202D01*
X144782482Y-38830908D01*
X144782483Y-38830908D01*
X144722883Y-38824501D01*
X144722881Y-38824500D01*
X144722873Y-38824500D01*
X144722864Y-38824500D01*
X143277129Y-38824500D01*
X143277123Y-38824501D01*
X143217516Y-38830908D01*
X143082671Y-38881202D01*
X143082664Y-38881206D01*
X142967455Y-38967452D01*
X142905214Y-39050594D01*
X142849279Y-39092465D01*
X142779588Y-39097448D01*
X142722411Y-39067920D01*
X142711434Y-39057913D01*
X142711429Y-39057910D01*
X142526213Y-38943229D01*
X142526207Y-38943226D01*
X142441113Y-38910260D01*
X142323069Y-38864530D01*
X142108926Y-38824500D01*
X141891074Y-38824500D01*
X141676931Y-38864530D01*
X141633896Y-38881202D01*
X141473792Y-38943226D01*
X141473786Y-38943229D01*
X141288576Y-39057906D01*
X141288566Y-39057913D01*
X141127573Y-39204676D01*
X141098953Y-39242576D01*
X141042844Y-39284211D01*
X140973132Y-39288902D01*
X140911950Y-39255159D01*
X140901047Y-39242576D01*
X140872426Y-39204676D01*
X140711433Y-39057913D01*
X140711423Y-39057906D01*
X140526213Y-38943229D01*
X140526207Y-38943226D01*
X140441113Y-38910260D01*
X140323069Y-38864530D01*
X140108926Y-38824500D01*
X139891074Y-38824500D01*
X139676931Y-38864530D01*
X139633896Y-38881202D01*
X139473792Y-38943226D01*
X139473786Y-38943229D01*
X139288576Y-39057906D01*
X139288566Y-39057913D01*
X139127574Y-39204676D01*
X138996288Y-39378527D01*
X138899184Y-39573537D01*
X138839564Y-39783081D01*
X138819464Y-39999999D01*
X138819464Y-40000000D01*
X138839564Y-40216921D01*
X138840505Y-40220226D01*
X138840491Y-40221876D01*
X138840618Y-40222555D01*
X138840485Y-40222579D01*
X138839919Y-40290093D01*
X138808920Y-40341842D01*
X134947584Y-44203181D01*
X134886261Y-44236666D01*
X134859903Y-44239500D01*
X133547085Y-44239500D01*
X133480046Y-44219815D01*
X133448131Y-44190227D01*
X133383338Y-44104429D01*
X133352165Y-44063149D01*
X133317760Y-44031785D01*
X133194909Y-43919791D01*
X133194907Y-43919789D01*
X133013992Y-43807771D01*
X133013986Y-43807768D01*
X132857603Y-43747186D01*
X132815566Y-43730901D01*
X132606396Y-43691800D01*
X132393604Y-43691800D01*
X132184434Y-43730901D01*
X132184431Y-43730901D01*
X132184431Y-43730902D01*
X131986013Y-43807768D01*
X131986007Y-43807771D01*
X131805092Y-43919789D01*
X131805090Y-43919791D01*
X131647836Y-44063147D01*
X131519596Y-44232962D01*
X131424750Y-44423439D01*
X131424750Y-44423440D01*
X131366514Y-44628115D01*
X131346881Y-44839999D01*
X131346881Y-44840000D01*
X131366514Y-45051884D01*
X131424750Y-45256559D01*
X131424750Y-45256560D01*
X131519596Y-45447037D01*
X131647836Y-45616852D01*
X131805090Y-45760208D01*
X131805092Y-45760210D01*
X131986007Y-45872228D01*
X131986013Y-45872231D01*
X132028048Y-45888515D01*
X132184434Y-45949099D01*
X132393129Y-45988111D01*
X132455410Y-46019779D01*
X132490683Y-46080092D01*
X132487749Y-46149900D01*
X132447540Y-46207040D01*
X132393129Y-46231888D01*
X132184434Y-46270901D01*
X132184431Y-46270901D01*
X132184431Y-46270902D01*
X131986013Y-46347768D01*
X131986007Y-46347771D01*
X131805092Y-46459789D01*
X131805090Y-46459791D01*
X131647836Y-46603147D01*
X131519596Y-46772962D01*
X131424750Y-46963439D01*
X131424750Y-46963440D01*
X131366514Y-47168115D01*
X131346881Y-47379999D01*
X131346881Y-47380000D01*
X131366514Y-47591884D01*
X131424750Y-47796559D01*
X131424750Y-47796560D01*
X131519596Y-47987037D01*
X131647836Y-48156852D01*
X131805090Y-48300208D01*
X131805092Y-48300210D01*
X131986007Y-48412228D01*
X131986013Y-48412231D01*
X132028048Y-48428515D01*
X132184434Y-48489099D01*
X132393129Y-48528111D01*
X132455410Y-48559779D01*
X132490683Y-48620092D01*
X132487749Y-48689900D01*
X132447540Y-48747040D01*
X132393129Y-48771888D01*
X132184434Y-48810901D01*
X132184431Y-48810901D01*
X132184431Y-48810902D01*
X131986013Y-48887768D01*
X131986007Y-48887771D01*
X131805092Y-48999789D01*
X131805090Y-48999791D01*
X131647836Y-49143147D01*
X131519596Y-49312962D01*
X131424750Y-49503439D01*
X131424750Y-49503440D01*
X131366514Y-49708115D01*
X131346881Y-49919999D01*
X131346881Y-49920000D01*
X131366514Y-50131884D01*
X131424750Y-50336559D01*
X131424750Y-50336560D01*
X131519596Y-50527037D01*
X131647836Y-50696852D01*
X131805090Y-50840208D01*
X131805092Y-50840210D01*
X131986007Y-50952228D01*
X131986013Y-50952231D01*
X132028048Y-50968515D01*
X132184434Y-51029099D01*
X132393129Y-51068111D01*
X132455410Y-51099779D01*
X132490683Y-51160092D01*
X132487749Y-51229900D01*
X132447540Y-51287040D01*
X132393129Y-51311888D01*
X132184434Y-51350901D01*
X132184431Y-51350901D01*
X132184431Y-51350902D01*
X131986013Y-51427768D01*
X131986007Y-51427771D01*
X131805092Y-51539789D01*
X131805090Y-51539791D01*
X131647836Y-51683147D01*
X131519596Y-51852962D01*
X131424750Y-52043439D01*
X131424750Y-52043440D01*
X131366514Y-52248115D01*
X131346881Y-52459999D01*
X131346881Y-52460000D01*
X131366514Y-52671883D01*
X131373209Y-52695413D01*
X131372621Y-52765280D01*
X131334353Y-52823738D01*
X131270555Y-52852227D01*
X131201483Y-52841702D01*
X131166261Y-52817026D01*
X126048305Y-47699070D01*
X126014820Y-47637747D01*
X126014238Y-47597712D01*
X126012956Y-47597594D01*
X126033119Y-47380000D01*
X126033119Y-47379999D01*
X126013485Y-47168115D01*
X126002104Y-47128115D01*
X125955251Y-46963445D01*
X125955249Y-46963440D01*
X125955249Y-46963439D01*
X125860403Y-46772962D01*
X125732163Y-46603147D01*
X125574909Y-46459791D01*
X125574907Y-46459789D01*
X125393992Y-46347771D01*
X125393986Y-46347768D01*
X125227200Y-46283156D01*
X125195566Y-46270901D01*
X124986868Y-46231888D01*
X124924589Y-46200221D01*
X124889316Y-46139908D01*
X124892250Y-46070100D01*
X124932459Y-46012960D01*
X124986868Y-45988111D01*
X125195566Y-45949099D01*
X125393989Y-45872230D01*
X125574909Y-45760209D01*
X125732165Y-45616851D01*
X125860402Y-45447039D01*
X125874373Y-45418982D01*
X125955249Y-45256560D01*
X125955249Y-45256559D01*
X125955248Y-45256559D01*
X125955251Y-45256555D01*
X126013485Y-45051885D01*
X126033119Y-44840000D01*
X126029412Y-44800000D01*
X126013485Y-44628115D01*
X126000446Y-44582289D01*
X125955251Y-44423445D01*
X125955249Y-44423440D01*
X125955249Y-44423439D01*
X125860403Y-44232962D01*
X125763338Y-44104429D01*
X125732165Y-44063149D01*
X125697760Y-44031785D01*
X125574909Y-43919791D01*
X125574907Y-43919789D01*
X125393992Y-43807771D01*
X125393986Y-43807768D01*
X125237603Y-43747186D01*
X125195566Y-43730901D01*
X124986396Y-43691800D01*
X124773604Y-43691800D01*
X124564434Y-43730901D01*
X124564431Y-43730901D01*
X124564431Y-43730902D01*
X124366013Y-43807768D01*
X124366007Y-43807771D01*
X124185092Y-43919789D01*
X124185090Y-43919791D01*
X124027836Y-44063147D01*
X123899596Y-44232962D01*
X123804750Y-44423439D01*
X123804750Y-44423440D01*
X123746514Y-44628115D01*
X123726881Y-44839999D01*
X123726881Y-44840000D01*
X123747044Y-45057594D01*
X123744971Y-45057786D01*
X123738874Y-45118111D01*
X123711695Y-45159069D01*
X123563586Y-45307178D01*
X123563584Y-45307180D01*
X123507682Y-45363081D01*
X123451781Y-45418982D01*
X123451780Y-45418984D01*
X123435583Y-45447039D01*
X123386008Y-45532904D01*
X123373146Y-45555183D01*
X123372723Y-45555915D01*
X123331799Y-45708643D01*
X123331799Y-45708645D01*
X123331799Y-45876746D01*
X123331800Y-45876759D01*
X123331800Y-53965630D01*
X123331799Y-53965648D01*
X123331799Y-54131354D01*
X123331798Y-54131354D01*
X123331799Y-54131357D01*
X123372723Y-54284085D01*
X123388715Y-54311783D01*
X123388715Y-54311786D01*
X123388717Y-54311786D01*
X123435583Y-54392961D01*
X123451779Y-54421014D01*
X123451781Y-54421017D01*
X123570649Y-54539885D01*
X123570655Y-54539890D01*
X123711694Y-54680929D01*
X123745179Y-54742252D01*
X123745769Y-54782287D01*
X123747044Y-54782406D01*
X123726881Y-54999999D01*
X123726881Y-55000000D01*
X123746514Y-55211884D01*
X123804750Y-55416559D01*
X123804750Y-55416560D01*
X123899596Y-55607037D01*
X124027836Y-55776852D01*
X124185090Y-55920208D01*
X124185092Y-55920210D01*
X124366007Y-56032228D01*
X124366013Y-56032231D01*
X124408048Y-56048515D01*
X124564434Y-56109099D01*
X124773129Y-56148111D01*
X124835410Y-56179779D01*
X124870683Y-56240092D01*
X124867749Y-56309900D01*
X124827540Y-56367040D01*
X124773129Y-56391888D01*
X124564434Y-56430901D01*
X124564431Y-56430901D01*
X124564431Y-56430902D01*
X124366013Y-56507768D01*
X124366007Y-56507771D01*
X124185092Y-56619789D01*
X124185090Y-56619791D01*
X124027836Y-56763147D01*
X123899596Y-56932962D01*
X123804750Y-57123439D01*
X123804750Y-57123440D01*
X123746514Y-57328115D01*
X123726881Y-57539999D01*
X123726881Y-57540000D01*
X123746514Y-57751884D01*
X123804750Y-57956559D01*
X123804750Y-57956560D01*
X123899596Y-58147037D01*
X124027836Y-58316852D01*
X124185086Y-58460205D01*
X124185088Y-58460206D01*
X124185091Y-58460209D01*
X124220778Y-58482305D01*
X124267412Y-58534331D01*
X124279500Y-58587731D01*
X124279500Y-59032267D01*
X124259815Y-59099306D01*
X124220779Y-59137693D01*
X124185091Y-59159790D01*
X124185090Y-59159791D01*
X124027836Y-59303147D01*
X123899596Y-59472962D01*
X123804750Y-59663439D01*
X123804750Y-59663440D01*
X123746514Y-59868115D01*
X123726881Y-60079999D01*
X123726881Y-60080000D01*
X123746514Y-60291884D01*
X123804750Y-60496559D01*
X123804750Y-60496560D01*
X123899596Y-60687037D01*
X124027836Y-60856852D01*
X124185090Y-61000208D01*
X124185092Y-61000210D01*
X124366007Y-61112228D01*
X124366013Y-61112231D01*
X124408048Y-61128515D01*
X124564434Y-61189099D01*
X124773604Y-61228200D01*
X124773606Y-61228200D01*
X124986394Y-61228200D01*
X124986396Y-61228200D01*
X125195566Y-61189099D01*
X125393989Y-61112230D01*
X125574909Y-61000209D01*
X125732165Y-60856851D01*
X125860402Y-60687039D01*
X125860403Y-60687037D01*
X125955249Y-60496560D01*
X125955249Y-60496559D01*
X125955248Y-60496559D01*
X125955251Y-60496555D01*
X126013485Y-60291885D01*
X126033119Y-60080000D01*
X126029412Y-60040000D01*
X126013485Y-59868115D01*
X126002104Y-59828115D01*
X125955251Y-59663445D01*
X125955249Y-59663440D01*
X125955249Y-59663439D01*
X125860403Y-59472962D01*
X125793541Y-59384423D01*
X125732165Y-59303149D01*
X125574909Y-59159791D01*
X125574908Y-59159790D01*
X125539221Y-59137693D01*
X125492586Y-59085665D01*
X125480500Y-59032267D01*
X125480500Y-58587731D01*
X125500185Y-58520692D01*
X125539221Y-58482305D01*
X125574909Y-58460209D01*
X125732165Y-58316851D01*
X125860402Y-58147039D01*
X125860403Y-58147037D01*
X125955249Y-57956560D01*
X125955249Y-57956559D01*
X125955248Y-57956559D01*
X125955251Y-57956555D01*
X126013485Y-57751885D01*
X126033119Y-57540000D01*
X126029412Y-57500000D01*
X126012956Y-57322406D01*
X126015032Y-57322213D01*
X126021117Y-57261907D01*
X126048303Y-57220930D01*
X126186206Y-57083028D01*
X126186211Y-57083024D01*
X126196414Y-57072820D01*
X126196416Y-57072820D01*
X126308220Y-56961016D01*
X126374954Y-56845429D01*
X126387277Y-56824085D01*
X126428200Y-56671358D01*
X126428200Y-56513243D01*
X126428200Y-55749097D01*
X126447885Y-55682058D01*
X126500689Y-55636303D01*
X126569847Y-55626359D01*
X126633403Y-55655384D01*
X126639881Y-55661416D01*
X131315481Y-60337016D01*
X131348966Y-60398339D01*
X131351800Y-60424697D01*
X131351800Y-60775569D01*
X131351801Y-60775576D01*
X131358208Y-60835183D01*
X131408502Y-60970028D01*
X131408506Y-60970035D01*
X131494752Y-61085244D01*
X131494755Y-61085247D01*
X131609964Y-61171493D01*
X131609971Y-61171497D01*
X131744817Y-61221791D01*
X131744816Y-61221791D01*
X131751744Y-61222535D01*
X131804427Y-61228200D01*
X133195572Y-61228199D01*
X133255183Y-61221791D01*
X133390031Y-61171496D01*
X133505246Y-61085246D01*
X133591496Y-60970031D01*
X133641791Y-60835183D01*
X133648200Y-60775573D01*
X133648199Y-59384428D01*
X133641791Y-59324817D01*
X133641518Y-59324086D01*
X133591497Y-59189971D01*
X133591493Y-59189964D01*
X133505247Y-59074755D01*
X133505244Y-59074752D01*
X133390035Y-58988506D01*
X133390028Y-58988502D01*
X133255182Y-58938208D01*
X133255183Y-58938208D01*
X133195583Y-58931801D01*
X133195581Y-58931800D01*
X133195573Y-58931800D01*
X133195565Y-58931800D01*
X132641421Y-58931800D01*
X132574382Y-58912115D01*
X132528627Y-58859311D01*
X132518683Y-58790153D01*
X132547708Y-58726597D01*
X132606486Y-58688823D01*
X132618618Y-58685915D01*
X132815566Y-58649099D01*
X133013989Y-58572230D01*
X133194909Y-58460209D01*
X133352165Y-58316851D01*
X133480402Y-58147039D01*
X133480403Y-58147037D01*
X133575249Y-57956560D01*
X133575249Y-57956559D01*
X133575248Y-57956559D01*
X133575251Y-57956555D01*
X133633485Y-57751885D01*
X133653119Y-57540000D01*
X133649412Y-57500000D01*
X133632956Y-57322406D01*
X133635032Y-57322213D01*
X133641117Y-57261907D01*
X133668303Y-57220930D01*
X133806206Y-57083028D01*
X133806211Y-57083024D01*
X133816414Y-57072820D01*
X133816416Y-57072820D01*
X133928220Y-56961016D01*
X133994954Y-56845429D01*
X134007277Y-56824085D01*
X134048200Y-56671358D01*
X134048200Y-56513243D01*
X134048200Y-48248643D01*
X134048200Y-48248641D01*
X134045842Y-48239840D01*
X134045842Y-48239841D01*
X134045841Y-48239837D01*
X134007277Y-48095915D01*
X133944417Y-47987039D01*
X133928220Y-47958984D01*
X133928218Y-47958982D01*
X133928217Y-47958980D01*
X133812097Y-47842860D01*
X133812074Y-47842839D01*
X133668305Y-47699070D01*
X133634820Y-47637747D01*
X133634238Y-47597712D01*
X133632956Y-47597594D01*
X133653119Y-47380000D01*
X133653119Y-47379999D01*
X133633485Y-47168116D01*
X133626791Y-47144589D01*
X133627377Y-47074721D01*
X133665644Y-47016263D01*
X133729441Y-46987772D01*
X133798514Y-46998296D01*
X133833738Y-47022973D01*
X135795481Y-48984716D01*
X135828966Y-49046039D01*
X135831800Y-49072397D01*
X135831800Y-59005630D01*
X135831799Y-59005648D01*
X135831799Y-59171354D01*
X135831798Y-59171354D01*
X135872723Y-59324086D01*
X135873151Y-59324826D01*
X135873170Y-59324859D01*
X135951777Y-59461012D01*
X135951781Y-59461017D01*
X136070649Y-59579885D01*
X136070655Y-59579890D01*
X136211694Y-59720929D01*
X136245179Y-59782252D01*
X136245769Y-59822287D01*
X136247044Y-59822406D01*
X136226881Y-60039999D01*
X136226881Y-60040000D01*
X136246514Y-60251884D01*
X136304750Y-60456559D01*
X136304750Y-60456560D01*
X136399596Y-60647037D01*
X136527835Y-60816851D01*
X136529207Y-60818102D01*
X136529670Y-60818864D01*
X136531698Y-60821089D01*
X136531262Y-60821485D01*
X136565486Y-60877814D01*
X136563723Y-60947662D01*
X136533346Y-60997417D01*
X131822705Y-65708058D01*
X131761382Y-65741543D01*
X131702931Y-65740152D01*
X131606697Y-65714366D01*
X131606693Y-65714365D01*
X131606692Y-65714365D01*
X131606691Y-65714364D01*
X131606686Y-65714364D01*
X131380002Y-65694532D01*
X131379998Y-65694532D01*
X131153313Y-65714364D01*
X131153302Y-65714366D01*
X130933511Y-65773258D01*
X130933502Y-65773261D01*
X130727267Y-65869431D01*
X130727265Y-65869432D01*
X130540858Y-65999954D01*
X130379954Y-66160858D01*
X130324988Y-66239360D01*
X130249881Y-66346624D01*
X130195307Y-66390248D01*
X130148308Y-66399500D01*
X126086669Y-66399500D01*
X126086653Y-66399499D01*
X126079057Y-66399499D01*
X125920943Y-66399499D01*
X125813587Y-66428265D01*
X125768210Y-66440424D01*
X125768209Y-66440425D01*
X125719073Y-66468795D01*
X125719072Y-66468796D01*
X125675178Y-66494138D01*
X125631285Y-66519479D01*
X125631282Y-66519481D01*
X125519478Y-66631286D01*
X123942705Y-68208058D01*
X123881382Y-68241543D01*
X123822931Y-68240152D01*
X123726697Y-68214366D01*
X123726693Y-68214365D01*
X123726692Y-68214365D01*
X123726691Y-68214364D01*
X123726686Y-68214364D01*
X123500002Y-68194532D01*
X123499998Y-68194532D01*
X123273313Y-68214364D01*
X123273302Y-68214366D01*
X123053511Y-68273258D01*
X123053502Y-68273261D01*
X122847267Y-68369431D01*
X122847265Y-68369432D01*
X122660858Y-68499954D01*
X122499954Y-68660858D01*
X122369432Y-68847265D01*
X122369431Y-68847267D01*
X122273261Y-69053502D01*
X122273258Y-69053511D01*
X122214366Y-69273302D01*
X122214364Y-69273313D01*
X122194532Y-69499998D01*
X119000500Y-69499998D01*
X119000500Y-37624500D01*
X119020185Y-37557461D01*
X119072989Y-37511706D01*
X119124500Y-37500500D01*
X168875500Y-37500500D01*
X168942539Y-37520185D01*
G37*
%TD.AperFunction*%
%TA.AperFunction,NonConductor*%
G36*
X136151134Y-44800613D02*
G01*
X136207067Y-44842485D01*
X136231484Y-44907949D01*
X136231800Y-44916795D01*
X136231800Y-45495570D01*
X136231801Y-45495576D01*
X136238208Y-45555183D01*
X136288502Y-45690028D01*
X136288506Y-45690035D01*
X136374752Y-45805244D01*
X136374755Y-45805247D01*
X136489964Y-45891493D01*
X136489971Y-45891497D01*
X136624817Y-45941791D01*
X136624816Y-45941791D01*
X136631744Y-45942535D01*
X136684427Y-45948200D01*
X137238580Y-45948199D01*
X137305617Y-45967883D01*
X137351372Y-46020687D01*
X137361316Y-46089846D01*
X137332291Y-46153402D01*
X137273513Y-46191176D01*
X137261362Y-46194088D01*
X137064434Y-46230901D01*
X137064432Y-46230901D01*
X137064430Y-46230902D01*
X136866013Y-46307768D01*
X136866007Y-46307771D01*
X136685092Y-46419789D01*
X136685090Y-46419791D01*
X136527836Y-46563147D01*
X136399596Y-46732962D01*
X136304750Y-46923439D01*
X136304750Y-46923440D01*
X136246514Y-47128115D01*
X136226881Y-47339999D01*
X136226881Y-47340001D01*
X136233761Y-47414252D01*
X136220346Y-47482822D01*
X136171989Y-47533254D01*
X136104042Y-47549536D01*
X136038080Y-47526498D01*
X136022609Y-47513374D01*
X134161416Y-45652181D01*
X134127931Y-45590858D01*
X134132915Y-45521166D01*
X134174787Y-45465233D01*
X134240251Y-45440816D01*
X134249097Y-45440500D01*
X135073331Y-45440500D01*
X135073347Y-45440501D01*
X135080943Y-45440501D01*
X135239054Y-45440501D01*
X135239057Y-45440501D01*
X135391785Y-45399577D01*
X135405654Y-45391569D01*
X135442957Y-45370033D01*
X135442968Y-45370025D01*
X135442980Y-45370019D01*
X135528716Y-45320520D01*
X135640520Y-45208716D01*
X135640520Y-45208714D01*
X135650724Y-45198511D01*
X135650728Y-45198506D01*
X136020121Y-44829112D01*
X136081442Y-44795629D01*
X136151134Y-44800613D01*
G37*
%TD.AperFunction*%
%TA.AperFunction,NonConductor*%
G36*
X148630581Y-46407885D02*
G01*
X148676336Y-46460689D01*
X148686280Y-46529847D01*
X148657255Y-46593403D01*
X148649036Y-46601831D01*
X148647837Y-46603146D01*
X148519596Y-46772962D01*
X148424750Y-46963439D01*
X148424750Y-46963440D01*
X148366514Y-47168115D01*
X148346881Y-47379999D01*
X148346881Y-47380000D01*
X148367044Y-47597594D01*
X148364971Y-47597786D01*
X148358874Y-47658111D01*
X148331694Y-47699069D01*
X146759881Y-49270883D01*
X146698558Y-49304368D01*
X146628866Y-49299384D01*
X146572933Y-49257512D01*
X146548516Y-49192048D01*
X146548200Y-49183202D01*
X146548200Y-48208641D01*
X146545842Y-48199840D01*
X146545842Y-48199841D01*
X146545841Y-48199837D01*
X146507277Y-48055915D01*
X146467511Y-47987039D01*
X146428220Y-47918984D01*
X146316416Y-47807180D01*
X146312085Y-47802849D01*
X146312074Y-47802839D01*
X146168305Y-47659070D01*
X146134820Y-47597747D01*
X146134238Y-47557712D01*
X146132956Y-47557594D01*
X146153119Y-47340000D01*
X146153119Y-47339999D01*
X146132956Y-47122406D01*
X146135034Y-47122213D01*
X146141113Y-47061916D01*
X146168300Y-47020934D01*
X146468220Y-46721016D01*
X146547277Y-46584084D01*
X146575138Y-46480104D01*
X146611504Y-46420445D01*
X146674351Y-46389917D01*
X146694913Y-46388200D01*
X148563542Y-46388200D01*
X148630581Y-46407885D01*
G37*
%TD.AperFunction*%
%TA.AperFunction,NonConductor*%
G36*
X156085647Y-46388201D02*
G01*
X156183541Y-46388201D01*
X156250580Y-46407886D01*
X156296335Y-46460690D01*
X156306279Y-46529848D01*
X156277254Y-46593404D01*
X156269036Y-46601830D01*
X156267837Y-46603146D01*
X156139596Y-46772962D01*
X156044750Y-46963439D01*
X156044750Y-46963440D01*
X155986514Y-47168115D01*
X155966881Y-47379999D01*
X155966881Y-47380000D01*
X155986514Y-47591884D01*
X156044750Y-47796559D01*
X156044750Y-47796560D01*
X156139596Y-47987037D01*
X156267836Y-48156852D01*
X156425090Y-48300208D01*
X156425092Y-48300210D01*
X156606007Y-48412228D01*
X156606013Y-48412231D01*
X156648048Y-48428515D01*
X156804434Y-48489099D01*
X157013129Y-48528111D01*
X157075410Y-48559779D01*
X157110683Y-48620092D01*
X157107749Y-48689900D01*
X157067540Y-48747040D01*
X157013129Y-48771888D01*
X156804434Y-48810901D01*
X156804431Y-48810901D01*
X156804431Y-48810902D01*
X156606013Y-48887768D01*
X156606007Y-48887771D01*
X156425092Y-48999789D01*
X156425090Y-48999791D01*
X156267836Y-49143147D01*
X156139596Y-49312962D01*
X156044750Y-49503439D01*
X156044750Y-49503440D01*
X155986514Y-49708115D01*
X155966881Y-49919999D01*
X155966881Y-49920000D01*
X155986503Y-50131759D01*
X155973088Y-50200329D01*
X155924731Y-50250760D01*
X155863032Y-50267200D01*
X150756968Y-50267200D01*
X150689929Y-50247515D01*
X150644174Y-50194711D01*
X150633497Y-50131759D01*
X150653119Y-49920000D01*
X150653119Y-49919999D01*
X150633485Y-49708115D01*
X150622104Y-49668115D01*
X150575251Y-49503445D01*
X150575249Y-49503440D01*
X150575249Y-49503439D01*
X150480403Y-49312962D01*
X150352163Y-49143147D01*
X150194909Y-48999791D01*
X150194907Y-48999789D01*
X150013992Y-48887771D01*
X150013986Y-48887768D01*
X149847200Y-48823156D01*
X149815566Y-48810901D01*
X149606868Y-48771888D01*
X149544589Y-48740221D01*
X149509316Y-48679908D01*
X149512250Y-48610100D01*
X149552459Y-48552960D01*
X149606868Y-48528111D01*
X149815566Y-48489099D01*
X150013989Y-48412230D01*
X150194909Y-48300209D01*
X150352165Y-48156851D01*
X150480402Y-47987039D01*
X150494374Y-47958980D01*
X150575249Y-47796560D01*
X150575249Y-47796559D01*
X150575248Y-47796559D01*
X150575251Y-47796555D01*
X150633485Y-47591885D01*
X150653119Y-47380000D01*
X150652283Y-47370983D01*
X150633485Y-47168115D01*
X150622104Y-47128115D01*
X150575251Y-46963445D01*
X150575249Y-46963440D01*
X150575249Y-46963439D01*
X150480403Y-46772962D01*
X150401013Y-46667834D01*
X150352165Y-46603149D01*
X150352162Y-46603146D01*
X150348302Y-46598911D01*
X150349348Y-46597957D01*
X150316640Y-46544131D01*
X150318397Y-46474283D01*
X150357638Y-46416474D01*
X150421904Y-46389057D01*
X150436458Y-46388200D01*
X156085631Y-46388200D01*
X156085647Y-46388201D01*
G37*
%TD.AperFunction*%
%TA.AperFunction,NonConductor*%
G36*
X146333150Y-54578600D02*
G01*
X146389083Y-54620472D01*
X146413499Y-54685937D01*
X146413815Y-54694781D01*
X146413815Y-55185587D01*
X146394130Y-55252626D01*
X146377495Y-55273269D01*
X146333737Y-55317026D01*
X146272414Y-55350511D01*
X146202722Y-55345525D01*
X146146789Y-55303653D01*
X146122373Y-55238189D01*
X146126790Y-55195414D01*
X146133485Y-55171885D01*
X146153119Y-54960000D01*
X146149332Y-54919137D01*
X146132956Y-54742406D01*
X146135032Y-54742213D01*
X146141117Y-54681907D01*
X146168302Y-54640931D01*
X146202137Y-54607096D01*
X146263459Y-54573614D01*
X146333150Y-54578600D01*
G37*
%TD.AperFunction*%
%TA.AperFunction,NonConductor*%
G36*
X126178514Y-49538296D02*
G01*
X126213738Y-49562973D01*
X131331694Y-54680929D01*
X131365179Y-54742252D01*
X131365769Y-54782287D01*
X131367044Y-54782406D01*
X131346881Y-54999999D01*
X131346881Y-55000000D01*
X131366514Y-55211884D01*
X131424750Y-55416559D01*
X131424750Y-55416560D01*
X131519596Y-55607037D01*
X131647836Y-55776852D01*
X131805090Y-55920208D01*
X131805092Y-55920210D01*
X131986007Y-56032228D01*
X131986013Y-56032231D01*
X132028048Y-56048515D01*
X132184434Y-56109099D01*
X132393129Y-56148111D01*
X132455410Y-56179779D01*
X132490683Y-56240092D01*
X132487749Y-56309900D01*
X132447540Y-56367040D01*
X132393129Y-56391888D01*
X132184434Y-56430901D01*
X132184431Y-56430901D01*
X132184431Y-56430902D01*
X131986013Y-56507768D01*
X131986007Y-56507771D01*
X131805092Y-56619789D01*
X131805090Y-56619791D01*
X131647836Y-56763147D01*
X131519596Y-56932962D01*
X131424750Y-57123439D01*
X131424750Y-57123440D01*
X131366514Y-57328115D01*
X131346881Y-57539999D01*
X131346881Y-57540000D01*
X131366514Y-57751884D01*
X131424750Y-57956559D01*
X131424750Y-57956560D01*
X131519596Y-58147037D01*
X131647836Y-58316852D01*
X131805090Y-58460208D01*
X131805092Y-58460210D01*
X131986007Y-58572228D01*
X131986013Y-58572231D01*
X132026024Y-58587731D01*
X132184434Y-58649099D01*
X132381366Y-58685912D01*
X132443645Y-58717579D01*
X132478918Y-58777892D01*
X132475984Y-58847700D01*
X132435775Y-58904840D01*
X132371057Y-58931171D01*
X132358579Y-58931800D01*
X131804429Y-58931800D01*
X131804423Y-58931801D01*
X131744816Y-58938208D01*
X131725034Y-58945587D01*
X131655342Y-58950571D01*
X131594021Y-58917086D01*
X126464519Y-53787584D01*
X126431034Y-53726261D01*
X126428200Y-53699903D01*
X126428200Y-50788641D01*
X126425842Y-50779840D01*
X126425842Y-50779841D01*
X126425841Y-50779837D01*
X126387277Y-50635915D01*
X126324417Y-50527039D01*
X126308220Y-50498984D01*
X126308218Y-50498982D01*
X126308217Y-50498980D01*
X126192097Y-50382860D01*
X126192074Y-50382839D01*
X126048305Y-50239070D01*
X126014820Y-50177747D01*
X126014238Y-50137712D01*
X126012956Y-50137594D01*
X126033119Y-49920000D01*
X126033119Y-49919999D01*
X126013485Y-49708116D01*
X126006791Y-49684589D01*
X126007377Y-49614721D01*
X126045644Y-49556263D01*
X126109441Y-49527772D01*
X126178514Y-49538296D01*
G37*
%TD.AperFunction*%
%TA.AperFunction,NonConductor*%
G36*
X148297277Y-49534471D02*
G01*
X148353210Y-49576343D01*
X148377627Y-49641807D01*
X148373210Y-49684583D01*
X148373209Y-49684589D01*
X148366514Y-49708119D01*
X148346881Y-49919999D01*
X148346881Y-49920000D01*
X148366514Y-50131884D01*
X148424750Y-50336559D01*
X148424750Y-50336560D01*
X148519596Y-50527037D01*
X148647836Y-50696852D01*
X148805090Y-50840208D01*
X148805092Y-50840210D01*
X148986007Y-50952228D01*
X148986013Y-50952231D01*
X149028048Y-50968515D01*
X149184434Y-51029099D01*
X149393129Y-51068111D01*
X149455410Y-51099779D01*
X149490683Y-51160092D01*
X149487749Y-51229900D01*
X149447540Y-51287040D01*
X149393129Y-51311888D01*
X149184434Y-51350901D01*
X149184431Y-51350901D01*
X149184431Y-51350902D01*
X148986013Y-51427768D01*
X148986007Y-51427771D01*
X148805092Y-51539789D01*
X148805090Y-51539791D01*
X148647836Y-51683147D01*
X148519596Y-51852962D01*
X148424750Y-52043439D01*
X148424750Y-52043440D01*
X148366514Y-52248115D01*
X148346881Y-52459999D01*
X148346881Y-52460000D01*
X148366514Y-52671884D01*
X148424750Y-52876559D01*
X148424750Y-52876560D01*
X148519596Y-53067037D01*
X148647836Y-53236852D01*
X148805090Y-53380208D01*
X148805092Y-53380210D01*
X148986007Y-53492228D01*
X148986013Y-53492231D01*
X149028048Y-53508515D01*
X149184434Y-53569099D01*
X149393129Y-53608111D01*
X149455410Y-53639779D01*
X149490683Y-53700092D01*
X149487749Y-53769900D01*
X149447540Y-53827040D01*
X149393129Y-53851888D01*
X149184434Y-53890901D01*
X149184431Y-53890901D01*
X149184431Y-53890902D01*
X148986013Y-53967768D01*
X148986007Y-53967771D01*
X148805092Y-54079789D01*
X148805090Y-54079791D01*
X148647836Y-54223147D01*
X148519596Y-54392962D01*
X148424750Y-54583439D01*
X148424750Y-54583440D01*
X148366514Y-54788115D01*
X148346881Y-54999999D01*
X148346881Y-55000000D01*
X148366514Y-55211884D01*
X148424750Y-55416559D01*
X148424750Y-55416560D01*
X148519596Y-55607037D01*
X148647836Y-55776852D01*
X148805090Y-55920208D01*
X148805092Y-55920210D01*
X148986007Y-56032228D01*
X148986013Y-56032231D01*
X149028048Y-56048515D01*
X149184434Y-56109099D01*
X149393129Y-56148111D01*
X149455410Y-56179779D01*
X149490683Y-56240092D01*
X149487749Y-56309900D01*
X149447540Y-56367040D01*
X149393129Y-56391888D01*
X149184434Y-56430901D01*
X149184431Y-56430901D01*
X149184431Y-56430902D01*
X148986013Y-56507768D01*
X148986007Y-56507771D01*
X148805092Y-56619789D01*
X148805090Y-56619791D01*
X148647836Y-56763147D01*
X148519596Y-56932962D01*
X148424750Y-57123439D01*
X148424750Y-57123440D01*
X148366514Y-57328115D01*
X148346881Y-57539999D01*
X148346881Y-57540000D01*
X148366514Y-57751884D01*
X148424750Y-57956559D01*
X148424750Y-57956560D01*
X148519596Y-58147037D01*
X148647836Y-58316852D01*
X148805090Y-58460208D01*
X148805092Y-58460210D01*
X148986007Y-58572228D01*
X148986013Y-58572231D01*
X149026024Y-58587731D01*
X149184434Y-58649099D01*
X149393129Y-58688111D01*
X149455410Y-58719779D01*
X149490683Y-58780092D01*
X149487749Y-58849900D01*
X149447540Y-58907040D01*
X149393129Y-58931888D01*
X149184434Y-58970901D01*
X149184431Y-58970901D01*
X149184431Y-58970902D01*
X148986013Y-59047768D01*
X148986007Y-59047771D01*
X148805092Y-59159789D01*
X148805090Y-59159791D01*
X148647836Y-59303147D01*
X148519596Y-59472962D01*
X148424750Y-59663439D01*
X148424750Y-59663440D01*
X148366514Y-59868115D01*
X148346881Y-60079999D01*
X148346881Y-60080000D01*
X148362797Y-60251759D01*
X148349382Y-60320328D01*
X148301025Y-60370760D01*
X148239326Y-60387200D01*
X146256968Y-60387200D01*
X146189929Y-60367515D01*
X146144174Y-60314711D01*
X146133497Y-60251759D01*
X146153119Y-60040000D01*
X146153119Y-60039999D01*
X146133485Y-59828115D01*
X146120436Y-59782252D01*
X146075251Y-59623445D01*
X146075249Y-59623440D01*
X146075249Y-59623439D01*
X145980403Y-59432962D01*
X145937656Y-59376357D01*
X145852165Y-59263149D01*
X145771890Y-59189969D01*
X145694909Y-59119791D01*
X145694907Y-59119789D01*
X145513992Y-59007771D01*
X145513986Y-59007768D01*
X145334430Y-58938209D01*
X145315566Y-58930901D01*
X145106868Y-58891888D01*
X145044589Y-58860221D01*
X145009316Y-58799908D01*
X145012250Y-58730100D01*
X145052459Y-58672960D01*
X145106868Y-58648111D01*
X145315566Y-58609099D01*
X145513989Y-58532230D01*
X145694909Y-58420209D01*
X145852165Y-58276851D01*
X145980402Y-58107039D01*
X146075251Y-57916555D01*
X146133485Y-57711885D01*
X146153119Y-57500000D01*
X146133485Y-57288115D01*
X146132956Y-57282406D01*
X146135034Y-57282213D01*
X146141113Y-57221916D01*
X146168302Y-57180932D01*
X147494835Y-55854401D01*
X147573892Y-55717469D01*
X147614816Y-55564742D01*
X147614816Y-55406627D01*
X147614816Y-55399032D01*
X147614815Y-55399014D01*
X147614815Y-50165781D01*
X147634500Y-50098742D01*
X147651129Y-50078105D01*
X148166263Y-49562971D01*
X148227585Y-49529487D01*
X148297277Y-49534471D01*
G37*
%TD.AperFunction*%
%TA.AperFunction,NonConductor*%
G36*
X141088048Y-40744836D02*
G01*
X141098946Y-40757414D01*
X141127573Y-40795322D01*
X141288568Y-40942088D01*
X141288575Y-40942092D01*
X141288576Y-40942093D01*
X141473786Y-41056770D01*
X141473792Y-41056773D01*
X141496664Y-41065633D01*
X141676931Y-41135470D01*
X141891074Y-41175500D01*
X141891076Y-41175500D01*
X142108924Y-41175500D01*
X142108926Y-41175500D01*
X142323069Y-41135470D01*
X142526210Y-41056772D01*
X142711432Y-40942088D01*
X142722407Y-40932082D01*
X142785207Y-40901463D01*
X142854594Y-40909657D01*
X142905214Y-40949405D01*
X142967452Y-41032544D01*
X142967455Y-41032547D01*
X143082664Y-41118793D01*
X143082671Y-41118797D01*
X143217516Y-41169091D01*
X143277113Y-41175499D01*
X143277122Y-41175499D01*
X143277127Y-41175500D01*
X143277131Y-41175499D01*
X143280434Y-41175677D01*
X143280424Y-41175855D01*
X143280431Y-41175856D01*
X143280417Y-41175977D01*
X143280366Y-41176946D01*
X143342478Y-41195144D01*
X143388264Y-41247921D01*
X143399500Y-41299499D01*
X143399500Y-43713330D01*
X143399499Y-43713344D01*
X143399499Y-43879054D01*
X143399498Y-43879054D01*
X143440423Y-44031787D01*
X143449537Y-44047571D01*
X143449536Y-44047571D01*
X143449538Y-44047573D01*
X143519475Y-44168709D01*
X143519481Y-44168717D01*
X143638349Y-44287585D01*
X143638354Y-44287589D01*
X143831694Y-44480930D01*
X143865179Y-44542252D01*
X143865771Y-44582289D01*
X143867044Y-44582407D01*
X143866515Y-44588114D01*
X143866515Y-44588115D01*
X143857900Y-44681085D01*
X143846881Y-44799999D01*
X143846881Y-44800000D01*
X143866514Y-45011884D01*
X143924750Y-45216559D01*
X143924750Y-45216560D01*
X144019596Y-45407037D01*
X144147836Y-45576852D01*
X144305090Y-45720208D01*
X144305092Y-45720210D01*
X144486007Y-45832228D01*
X144486013Y-45832231D01*
X144528048Y-45848515D01*
X144684434Y-45909099D01*
X144893129Y-45948111D01*
X144955410Y-45979779D01*
X144990683Y-46040092D01*
X144987749Y-46109900D01*
X144947540Y-46167040D01*
X144893129Y-46191888D01*
X144684434Y-46230901D01*
X144684431Y-46230901D01*
X144684431Y-46230902D01*
X144486013Y-46307768D01*
X144486007Y-46307771D01*
X144305092Y-46419789D01*
X144305090Y-46419791D01*
X144147836Y-46563147D01*
X144019596Y-46732962D01*
X143924750Y-46923439D01*
X143924750Y-46923440D01*
X143866514Y-47128115D01*
X143846881Y-47339999D01*
X143846881Y-47340000D01*
X143866514Y-47551884D01*
X143924750Y-47756559D01*
X143924750Y-47756560D01*
X144019596Y-47947037D01*
X144147836Y-48116852D01*
X144305090Y-48260208D01*
X144305092Y-48260210D01*
X144486007Y-48372228D01*
X144486013Y-48372231D01*
X144511238Y-48382003D01*
X144684434Y-48449099D01*
X144893129Y-48488111D01*
X144955410Y-48519779D01*
X144990683Y-48580092D01*
X144987749Y-48649900D01*
X144947540Y-48707040D01*
X144893129Y-48731888D01*
X144684434Y-48770901D01*
X144684431Y-48770901D01*
X144684431Y-48770902D01*
X144486013Y-48847768D01*
X144486007Y-48847771D01*
X144305092Y-48959789D01*
X144305090Y-48959791D01*
X144147836Y-49103147D01*
X144019596Y-49272962D01*
X143924750Y-49463439D01*
X143924750Y-49463440D01*
X143866514Y-49668115D01*
X143846881Y-49879999D01*
X143846881Y-49880000D01*
X143867044Y-50097594D01*
X143864971Y-50097786D01*
X143858874Y-50158111D01*
X143831695Y-50199069D01*
X143683586Y-50347178D01*
X143571781Y-50458982D01*
X143571779Y-50458984D01*
X143548686Y-50498984D01*
X143532489Y-50527039D01*
X143512606Y-50561477D01*
X143492723Y-50595914D01*
X143492723Y-50595915D01*
X143451799Y-50748643D01*
X143451799Y-50748645D01*
X143451799Y-50916746D01*
X143451800Y-50916759D01*
X143451800Y-59005630D01*
X143451799Y-59005648D01*
X143451799Y-59171354D01*
X143451798Y-59171354D01*
X143492723Y-59324086D01*
X143493151Y-59324826D01*
X143493170Y-59324859D01*
X143571777Y-59461012D01*
X143571781Y-59461017D01*
X143690649Y-59579885D01*
X143690655Y-59579890D01*
X143831694Y-59720929D01*
X143865179Y-59782252D01*
X143865769Y-59822287D01*
X143867044Y-59822406D01*
X143846881Y-60039999D01*
X143846881Y-60040000D01*
X143866503Y-60251759D01*
X143853088Y-60320329D01*
X143804731Y-60370760D01*
X143743032Y-60387200D01*
X138636968Y-60387200D01*
X138569929Y-60367515D01*
X138524174Y-60314711D01*
X138513497Y-60251759D01*
X138533119Y-60040000D01*
X138533119Y-60039999D01*
X138513485Y-59828115D01*
X138500436Y-59782252D01*
X138455251Y-59623445D01*
X138455249Y-59623440D01*
X138455249Y-59623439D01*
X138360403Y-59432962D01*
X138317656Y-59376357D01*
X138232165Y-59263149D01*
X138151890Y-59189969D01*
X138074909Y-59119791D01*
X138074907Y-59119789D01*
X137893992Y-59007771D01*
X137893986Y-59007768D01*
X137714430Y-58938209D01*
X137695566Y-58930901D01*
X137486868Y-58891888D01*
X137424589Y-58860221D01*
X137389316Y-58799908D01*
X137392250Y-58730100D01*
X137432459Y-58672960D01*
X137486868Y-58648111D01*
X137695566Y-58609099D01*
X137893989Y-58532230D01*
X138074909Y-58420209D01*
X138232165Y-58276851D01*
X138360402Y-58107039D01*
X138455251Y-57916555D01*
X138513485Y-57711885D01*
X138533119Y-57500000D01*
X138513485Y-57288115D01*
X138455251Y-57083445D01*
X138455249Y-57083440D01*
X138455249Y-57083439D01*
X138360403Y-56892962D01*
X138232163Y-56723147D01*
X138074909Y-56579791D01*
X138074907Y-56579789D01*
X137893992Y-56467771D01*
X137893986Y-56467768D01*
X137698116Y-56391889D01*
X137695566Y-56390901D01*
X137486868Y-56351888D01*
X137424589Y-56320221D01*
X137389316Y-56259908D01*
X137392250Y-56190100D01*
X137432459Y-56132960D01*
X137486868Y-56108111D01*
X137695566Y-56069099D01*
X137893989Y-55992230D01*
X138074909Y-55880209D01*
X138232165Y-55736851D01*
X138360402Y-55567039D01*
X138418812Y-55449735D01*
X138455249Y-55376560D01*
X138455249Y-55376559D01*
X138455248Y-55376559D01*
X138455251Y-55376555D01*
X138513485Y-55171885D01*
X138533119Y-54960000D01*
X138529332Y-54919137D01*
X138513485Y-54748115D01*
X138466632Y-54583445D01*
X138455251Y-54543445D01*
X138455249Y-54543440D01*
X138455249Y-54543439D01*
X138360403Y-54352962D01*
X138232163Y-54183147D01*
X138074909Y-54039791D01*
X138074907Y-54039789D01*
X137893992Y-53927771D01*
X137893986Y-53927768D01*
X137701779Y-53853308D01*
X137695566Y-53850901D01*
X137486868Y-53811888D01*
X137424589Y-53780221D01*
X137389316Y-53719908D01*
X137392250Y-53650100D01*
X137432459Y-53592960D01*
X137486868Y-53568111D01*
X137695566Y-53529099D01*
X137893989Y-53452230D01*
X138074909Y-53340209D01*
X138232165Y-53196851D01*
X138360402Y-53027039D01*
X138360403Y-53027037D01*
X138455249Y-52836560D01*
X138455249Y-52836559D01*
X138455248Y-52836559D01*
X138455251Y-52836555D01*
X138513485Y-52631885D01*
X138533119Y-52420000D01*
X138513485Y-52208115D01*
X138455251Y-52003445D01*
X138455249Y-52003440D01*
X138455249Y-52003439D01*
X138360403Y-51812962D01*
X138262370Y-51683147D01*
X138232165Y-51643149D01*
X138074909Y-51499791D01*
X138074907Y-51499789D01*
X137893992Y-51387771D01*
X137893986Y-51387768D01*
X137698116Y-51311889D01*
X137695566Y-51310901D01*
X137486868Y-51271888D01*
X137424589Y-51240221D01*
X137389316Y-51179908D01*
X137392250Y-51110100D01*
X137432459Y-51052960D01*
X137486868Y-51028111D01*
X137695566Y-50989099D01*
X137893989Y-50912230D01*
X138074909Y-50800209D01*
X138232165Y-50656851D01*
X138360402Y-50487039D01*
X138374373Y-50458982D01*
X138455249Y-50296560D01*
X138455249Y-50296559D01*
X138455248Y-50296559D01*
X138455251Y-50296555D01*
X138513485Y-50091885D01*
X138533119Y-49880000D01*
X138513485Y-49668115D01*
X138455251Y-49463445D01*
X138455249Y-49463440D01*
X138455249Y-49463439D01*
X138360403Y-49272962D01*
X138232163Y-49103147D01*
X138074909Y-48959791D01*
X138074907Y-48959789D01*
X137893992Y-48847771D01*
X137893986Y-48847768D01*
X137698116Y-48771889D01*
X137695566Y-48770901D01*
X137486868Y-48731888D01*
X137424589Y-48700221D01*
X137389316Y-48639908D01*
X137392250Y-48570100D01*
X137432459Y-48512960D01*
X137486868Y-48488111D01*
X137695566Y-48449099D01*
X137893989Y-48372230D01*
X138074909Y-48260209D01*
X138232165Y-48116851D01*
X138360402Y-47947039D01*
X138374372Y-47918984D01*
X138455249Y-47756560D01*
X138455249Y-47756559D01*
X138455248Y-47756559D01*
X138455251Y-47756555D01*
X138513485Y-47551885D01*
X138533119Y-47340000D01*
X138513485Y-47128115D01*
X138455251Y-46923445D01*
X138455249Y-46923440D01*
X138455249Y-46923439D01*
X138360403Y-46732962D01*
X138262370Y-46603147D01*
X138232165Y-46563149D01*
X138074909Y-46419791D01*
X138074907Y-46419789D01*
X137893992Y-46307771D01*
X137893986Y-46307768D01*
X137698116Y-46231889D01*
X137695566Y-46230901D01*
X137498634Y-46194087D01*
X137436354Y-46162419D01*
X137401081Y-46102107D01*
X137404015Y-46032299D01*
X137444224Y-45975159D01*
X137508942Y-45948828D01*
X137521412Y-45948199D01*
X138075572Y-45948199D01*
X138135183Y-45941791D01*
X138270031Y-45891496D01*
X138385246Y-45805246D01*
X138471496Y-45690031D01*
X138521791Y-45555183D01*
X138528200Y-45495573D01*
X138528199Y-44104428D01*
X138521791Y-44044817D01*
X138516930Y-44031785D01*
X138471497Y-43909971D01*
X138471493Y-43909964D01*
X138385247Y-43794755D01*
X138385244Y-43794752D01*
X138270035Y-43708506D01*
X138270028Y-43708502D01*
X138135182Y-43658208D01*
X138135183Y-43658208D01*
X138075583Y-43651801D01*
X138075581Y-43651800D01*
X138075573Y-43651800D01*
X138075565Y-43651800D01*
X137496796Y-43651800D01*
X137429757Y-43632115D01*
X137384002Y-43579311D01*
X137374058Y-43510153D01*
X137403083Y-43446597D01*
X137409115Y-43440119D01*
X138234702Y-42614532D01*
X139661748Y-41187486D01*
X139723069Y-41154003D01*
X139772207Y-41153280D01*
X139891074Y-41175500D01*
X139891076Y-41175500D01*
X140108924Y-41175500D01*
X140108926Y-41175500D01*
X140323069Y-41135470D01*
X140526210Y-41056772D01*
X140711432Y-40942088D01*
X140872427Y-40795322D01*
X140901047Y-40757422D01*
X140957153Y-40715787D01*
X141026865Y-40711094D01*
X141088048Y-40744836D01*
G37*
%TD.AperFunction*%
%TA.AperFunction,NonConductor*%
G36*
X150496942Y-67390185D02*
G01*
X150517584Y-67406819D01*
X150695481Y-67584716D01*
X150728966Y-67646039D01*
X150731800Y-67672397D01*
X150731800Y-68615570D01*
X150731801Y-68615576D01*
X150738208Y-68675183D01*
X150788502Y-68810028D01*
X150788506Y-68810035D01*
X150874752Y-68925244D01*
X150874755Y-68925247D01*
X150989964Y-69011493D01*
X150989971Y-69011497D01*
X151124817Y-69061791D01*
X151124816Y-69061791D01*
X151131744Y-69062535D01*
X151184427Y-69068200D01*
X151738580Y-69068199D01*
X151805617Y-69087883D01*
X151851372Y-69140687D01*
X151861316Y-69209846D01*
X151832291Y-69273402D01*
X151773513Y-69311176D01*
X151761362Y-69314088D01*
X151564434Y-69350901D01*
X151564432Y-69350901D01*
X151564430Y-69350902D01*
X151366013Y-69427768D01*
X151366007Y-69427771D01*
X151185092Y-69539789D01*
X151185090Y-69539791D01*
X151027836Y-69683147D01*
X150931869Y-69810227D01*
X150875760Y-69851863D01*
X150832915Y-69859500D01*
X148220097Y-69859500D01*
X148153058Y-69839815D01*
X148132416Y-69823181D01*
X146747550Y-68438315D01*
X146714065Y-68376992D01*
X146713614Y-68326443D01*
X146721731Y-68285634D01*
X146750500Y-68141003D01*
X146750500Y-67938997D01*
X146711091Y-67740873D01*
X146633786Y-67554244D01*
X146633785Y-67554242D01*
X146633100Y-67552960D01*
X146632943Y-67552210D01*
X146631455Y-67548616D01*
X146632136Y-67548333D01*
X146618853Y-67484558D01*
X146643849Y-67419313D01*
X146700152Y-67377939D01*
X146742454Y-67370500D01*
X150429903Y-67370500D01*
X150496942Y-67390185D01*
G37*
%TD.AperFunction*%
M02*
